<?xml version="1.0" ?><svg height="48" id="svg5924" version="1.1" width="48" xmlns="http://www.w3.org/2000/svg" xmlns:cc="http://creativecommons.org/ns#" xmlns:dc="http://purl.org/dc/elements/1.1/" xmlns:inkscape="http://www.inkscape.org/namespaces/inkscape" xmlns:rdf="http://www.w3.org/1999/02/22-rdf-syntax-ns#" xmlns:sodipodi="http://sodipodi.sourceforge.net/DTD/sodipodi-0.dtd" xmlns:svg="http://www.w3.org/2000/svg"><defs id="defs5926"/><g id="layer1" transform="translate(0,-1004.3622)"><g id="g8020" transform="translate(-1253.4827,98.01825)"><g id="g6721" transform="translate(-94.119334,0.12115218)"><g id="g6674"><g id="g7963"><g id="g7941"><g id="g3390"><circle cx="1371.6021" cy="930.22278" id="circle4189-05" r="24" style="fill:#3a6c87;fill-opacity:1;stroke:none"/><g id="g7667" transform="translate(55.602034,-103.13938)"><g id="g6994"><rect height="2" id="rect7213" style="fill:#60c5b8;fill-opacity:1;stroke:none" width="8" x="1301" y="1031.3704"/><rect height="7" id="rect7215" style="fill:#60c5b8;fill-opacity:1;stroke:none" width="7.015625" x="1302" y="1033.3622"/><rect height="15.009266" id="rect7217" style="fill:#fcd062;fill-opacity:1;stroke:none" width="9.9917669" x="1309" y="1025.3622"/><rect height="2" id="rect7219" style="fill:#fcd062;fill-opacity:1;stroke:none" width="12" x="1308" y="1023.3668"/><rect height="2" id="rect7221" style="fill:#78c8f0;fill-opacity:1;stroke:none" transform="scale(-1,1)" width="8" x="-1327" y="1031.3704"/><rect height="7" id="rect7223" style="fill:#78c8f0;fill-opacity:1;stroke:none" transform="scale(-1,1)" width="7.015625" x="-1326" y="1033.3622"/><path d="m 1314,1017.8622 0,4" id="path7225" style="fill:none;stroke:#fcd062;stroke-width:1px;stroke-linecap:butt;stroke-linejoin:miter;stroke-opacity:1"/><path d="m 1303.521,1025.3622 c -0.4222,0 2.4972,0 2.4972,0 l 0,2 -2,0 0,2 2.4843,0" id="path7227" style="fill:none;stroke:#25b39e;stroke-width:1px;stroke-linecap:butt;stroke-linejoin:miter;stroke-opacity:1"/><path d="m 1321.5184,1025.3622 c -0.4221,0 2.4972,0 2.4972,0 l 0,2 -2,0" id="path7229" style="fill:none;stroke:#4bbfeb;stroke-width:1px;stroke-linecap:butt;stroke-linejoin:miter;stroke-opacity:1"/><path d="m 1321.5184,1029.3622 c -0.4221,0 2.4972,0 2.4972,0 l 0,-2" id="path7231" style="fill:none;stroke:#4bbfeb;stroke-width:1px;stroke-linecap:butt;stroke-linejoin:miter;stroke-opacity:1"/><circle cx="25.5" cy="26.5" id="path7233" r="5.5" style="fill:#f05542;fill-opacity:1;stroke:none" transform="matrix(1.1818182,0,0,1.1818182,1295.3636,1011.544)"/><path d="m 1321,1044.3622 3,-3 3,3 3,-3" id="path7235" style="fill:none;stroke:#fcd062;stroke-width:1px;stroke-linecap:butt;stroke-linejoin:miter;stroke-opacity:1"/><circle cx="24" cy="24" id="path7237" r="1" style="fill:#4bbfeb;fill-opacity:1;stroke:none" transform="translate(1300,1017.3622)"/><circle cx="24" cy="24" id="path7239" r="1" style="fill:#25b39e;fill-opacity:1;stroke:none" transform="translate(1303,1020.3622)"/><path d="m 1308.9861,1025.3622 0,1.0313 10,0 0,-1.0313 -10,0 z" id="path7241" style="fill:#f8b84e;fill-opacity:1;stroke:none"/><path d="m 1302,1033.3622 0,1 7.0173,0 0,-1 -7.0173,0 z" id="path7243" style="fill:#25b39e;fill-opacity:1;stroke:none"/><path d="m 1318.9844,1033.3622 0,1 7.0312,0 0,-1 -7.0312,0 z" id="path7245" style="fill:#4bbfeb;fill-opacity:1;stroke:none"/></g></g></g></g></g></g></g></g></g></svg>