<?xml version="1.0" ?><!DOCTYPE svg  PUBLIC '-//W3C//DTD SVG 1.1//EN'  'http://www.w3.org/Graphics/SVG/1.1/DTD/svg11.dtd'><svg enable-background="new 0 0 512 512" height="512px" version="1.1" viewBox="0 0 512 512" width="512px" xml:space="preserve" xmlns="http://www.w3.org/2000/svg" xmlns:xlink="http://www.w3.org/1999/xlink"><g id="Others"><g id="files"/><g id="pencil_rocket"/><g id="magic_hat__x26__rabbit"/><g id="phone__x26__target"/><g id="toast"/><g id="coffee"/><g id="suit"/><g id="DNA_tube"/><g id="clapper"/><g id="stopwatch"/><g id="map__x26__locator"/><g id="envelope"/><g id="phone__x26__megaphone"/><g id="speech_bubble"/><g id="medal"/></g><g id="Design"><g id="blueprint"/><g id="computer__x26__pencil__x26__ruker"/><g id="pencil__x26__ruler__x26__eraser"/><g id="paint_brush"/><g id="eraser"/><g id="round_brush"/><g id="scissor"/><g id="wacom"/><g id="vector"/><g id="lightbulb"/><g id="lamp"/><g id="pencil__x26__brush"/><g id="laptop__x26__brush"/><g id="paint"/><g id="magic_wand"/></g><g id="SEO_x2F__Web"><g id="W_key"/><g id="link_plus"/><g id="website__x26__lock"/><g id="video"/><g id="maginifier__x26__target"/><g id="website__x26__setting_1_"/><g id="website__x26__code"/><g id="SEO_tag"/><g id="website__x26__wrench"/><g id="crown"/><g id="eye"/><g id="website__x26__clock"/><g id="spider"/><g id="website__x26__medal"/><g id="graph"/></g><g id="Finance__x2F__Money"><g id="diamond"/><g id="calculating"/><g id="calculator"/><g id="auction_hammer"/><g id="bag_of_money"/><g id="piggy_bank"/><g id="bank"/><g id="umbrella__x26__coins"/><g id="safe"/><g id="treasure"/><g id="cash__x26__card"/><g id="coins__x26__cash"/><g id="coins__x26__card"/><g id="briefcase"/><g id="cash"/></g><g id="E-Commerce__x2F__Shopping"><g id="New_Symbol"/><g id="mobile__x26__finger"/><g id="price_tag"/><g id="website__x26__magnifier"/><g id="hand_to_ahnd_delivery"/><g id="hand__x26__credit_card"/><g id="hand__x26__iPad"/><g id="empty_basket"/><g id="full_basket"/><g id="trolley"/><g id="wallet"/><g id="truck"/><g id="delivery"/><g id="gift"/><g id="hand__x26__shopping_bag"/><g id="iMac_with_products"/><g id="laptop_store"/><g id="shopping_bag_with_mouse"/><g id="mobile_store"/><g id="store"/><g id="laptop_with_money"/></g><g id="Strategy"><g id="money_palnt"/><g id="contract"/><g id="trophy"/><g id="graph_paper"/><g id="competition"/><g id="checklist"/><g id="megaphone"/><g id="paper_airplane"/><g id="mission_1"/><g id="graph_board"/><g id="mission_2"/><g id="strategy"/><g id="target"/><g id="partnership"><radialGradient cx="257" cy="256" gradientUnits="userSpaceOnUse" id="SVGID_1_" r="256"><stop offset="0" style="stop-color:#2A93D8"/><stop offset="1" style="stop-color:#227FBB"/></radialGradient><path d="M513,256c0,141.385-114.615,256-256,256S1,397.385,1,256c0-5.644,0.183-11.245,0.542-16.797    c2.532-39.087,51.945-24.729,70.074-57.086c15.096-26.946-3.185-101.939,20.25-121.742C136.443,22.707,194.07,0,257,0    s120.556,22.706,165.132,60.373c22.964,19.404,0.486,92.458,15.465,118.744c17.726,31.105,71.098,16.606,74.404,54.11    C512.662,240.729,513,248.325,513,256z" fill="url(#SVGID_1_)"/><path d="M512.191,235.6c-2.976-37.74-14.144-73.17-31.714-104.532c-15.097-26.946-34.922-50.879-58.357-70.682    l-96.521,96.521l132.699,132.7l53.902-53.902C512.198,235.67,512.194,235.635,512.191,235.6z" fill="#33495F"/><path d="M390.118,221.427l68.123,68.124l53.95-53.95c-2.976-37.74-14.144-73.17-31.714-104.532l-43.227,43.228    L390.118,221.427z" fill="#2B3E51"/><path d="M91.879,60.387c-23.435,19.802-43.26,43.735-58.356,70.682c-17.57,31.362-28.738,66.792-31.714,104.533    l53.949,53.949l44.996-44.995l23.128-23.128l64.519-64.519L91.879,60.387z" fill="#95A5A6"/><path d="M1.809,235.601l53.949,53.949l44.996-44.995l23.128-23.128l-90.359-90.358    C15.953,162.431,4.785,197.861,1.809,235.601z" fill="#7F8C8D"/><rect fill="#D55400" height="157" transform="matrix(-0.7071 0.7071 -0.7071 -0.7071 749.8223 291.0204)" width="160" x="234.639" y="222.304"/><path d="M132.912,399.799c7.778,7.778,20.506,7.778,28.284,0l71.418-71.418c7.778-7.778,7.778-20.506,0-28.284l0,0    c-7.778-7.778-20.506-7.778-28.284,0l-71.418,71.418C125.134,379.292,125.134,392.021,132.912,399.799L132.912,399.799z" fill="#D55400"/><path d="M149.883,446.468c8.556,8.556,22.557,8.556,31.112,0l98.995-98.995c8.557-8.556,8.557-22.557,0-31.112l0,0    c-8.556-8.556-22.557-8.556-31.112,0l-98.995,98.995C141.326,423.911,141.327,437.912,149.883,446.468L149.883,446.468z" fill="#D55400"/><path d="M191.602,465.56c7.001,7,18.456,7,25.456,0l84.854-84.853c7-7,7-18.456,0-25.456l0,0    c-7.001-7-18.456-7-25.456,0l-84.854,84.853C184.602,447.104,184.602,458.56,191.602,465.56L191.602,465.56z" fill="#D55400"/><path d="M234.028,472.631c5.445,5.445,14.354,5.445,19.799,0l72.832-72.832c5.445-5.445,5.445-14.354,0-19.799l0,0    c-5.444-5.445-14.354-5.445-19.799,0l-72.832,72.832C228.584,458.276,228.584,467.186,234.028,472.631L234.028,472.631z" fill="#D55400"/><rect fill="#ECF0F1" height="171.665" transform="matrix(-0.7071 0.7071 -0.7071 -0.7071 815.444 134.2027)" width="35" x="362.428" y="150.153"/><rect fill="#BDC3C7" height="88.885" transform="matrix(-0.7071 0.7071 -0.7071 -0.7071 886.033 163.4423)" width="35" x="391.666" y="220.782"/><circle cx="461.515" cy="224.198" fill="#ECF0F1" r="20.475"/><rect fill="#F59D00" height="157" transform="matrix(0.7071 0.7071 -0.7071 0.7071 271.0912 -52.8661)" width="160.001" x="119.361" y="222.304"/><path d="M381.087,399.799c-7.778,7.778-20.506,7.778-28.284,0l-71.418-71.418c-7.777-7.778-7.777-20.506,0-28.284    l0,0c7.778-7.778,20.507-7.778,28.284,0l71.418,71.418C388.865,379.292,388.865,392.021,381.087,399.799L381.087,399.799z" fill="#F59D00"/><path d="M364.116,446.468c-8.556,8.556-22.556,8.556-31.112,0l-98.995-98.995c-8.556-8.556-8.556-22.557,0-31.112    l0,0c8.557-8.556,22.557-8.556,31.113,0l98.994,98.995C372.673,423.911,372.673,437.912,364.116,446.468L364.116,446.468z" fill="#F59D00"/><path d="M322.397,465.56c-7,7-18.456,7-25.456,0l-84.853-84.853c-7-7-7-18.456,0-25.456l0,0c7-7,18.455-7,25.456,0    l84.853,84.853C329.397,447.104,329.397,458.56,322.397,465.56L322.397,465.56z" fill="#F59D00"/><path d="M279.971,472.631c-5.444,5.445-14.354,5.445-19.799,0l-72.832-72.832c-5.444-5.445-5.444-14.354,0-19.799    l0,0c5.445-5.445,14.354-5.445,19.799,0l72.832,72.832C285.416,458.276,285.416,467.186,279.971,472.631L279.971,472.631z" fill="#F59D00"/><rect fill="#ECF0F1" height="171.665" transform="matrix(0.7071 0.7071 -0.7071 0.7071 206.1407 -25.6831)" width="35" x="116.572" y="150.153"/><rect fill="#BDC3C7" height="88.884" transform="matrix(0.7071 0.7071 -0.7071 0.7071 218.252 3.5569)" width="35" x="87.333" y="220.783"/><polygon fill="#E87E04" points="259.129,249.557 279.13,225.297 259.855,206.131 202.189,192.616   "/><circle cx="366.71" cy="385.017" fill="#ECF0F1" r="15"/><circle cx="349.74" cy="431.686" fill="#ECF0F1" r="15"/><circle cx="308.728" cy="451.485" fill="#ECF0F1" r="13"/><circle cx="269.129" cy="461.385" fill="#ECF0F1" r="10"/><circle cx="52.485" cy="224.198" fill="#ECF0F1" r="20.475"/><path d="M233.655,289.49c-18.929,19.935-50.892,4.773-50.892,4.773l71.381-88.132l57.666-13.515    C311.811,192.616,252.585,269.556,233.655,289.49z" fill="#D55400"/><path d="M292.674,256.757c0,0,33.663,28.442,72.693-10.583l36.611,36.612c0,0-20.268,79.972-50.269,51.787    c-24.471-22.99-67.655-69.348-67.655-69.348L292.674,256.757z" fill="#E87E04"/></g><g id="chess"/></g></svg>