<?xml version="1.0" ?><!DOCTYPE svg  PUBLIC '-//W3C//DTD SVG 1.1//EN'  'http://www.w3.org/Graphics/SVG/1.1/DTD/svg11.dtd'><svg enable-background="new 0 0 128 128" id="Layer_1" version="1.1" viewBox="0 0 128 128" xml:space="preserve" xmlns="http://www.w3.org/2000/svg" xmlns:xlink="http://www.w3.org/1999/xlink"><g><circle cx="64" cy="64" fill="#FFD05B" r="63.5"/><path d="M76.8,71.6h9.7l0,9.7l-2.8-2.8l-3.3,3.3c-0.6-0.8-1.2-1.5-1.9-2.2c-0.7-0.7-1.4-1.3-2.2-1.9l3.3-3.3   L76.8,71.6z" fill="#FFFFFF"/><circle cx="63.1" cy="95" fill="#FFFFFF" r="21.6"/><path d="M58.9,61.9l0,9.7l-9.7,0l2.8-2.8l-3.3-3.3c0.8-0.6,1.5-1.2,2.2-1.9c0.7-0.7,1.3-1.4,1.9-2.2l3.3,3.3   L58.9,61.9z" fill="#FFFFFF"/><circle cx="35.6" cy="48.3" fill="#FFFFFF" r="21.6"/><path d="M35.4,30.7c-9.8,0-17.7,7.9-17.7,17.7c0,7.9,5.2,14.6,12.4,16.9V53.2c0-0.3-0.3-0.6-0.6-0.6   c-0.3,0-0.6,0.2-0.6,0.6l-0.9,8.3c0,0.6-0.5,1-1.1,1c-0.6,0-1.1-0.5-1.1-1.1V55c0-5.3,4.1-9.8,9.4-9.9c5.5-0.2,10,4.2,10,9.7v6.6   c0,0.7-0.6,1.2-1.3,1.1c-0.5-0.1-0.9-0.5-0.9-1.1L42,53.2c0-0.3-0.3-0.6-0.6-0.6c-0.3,0-0.6,0.3-0.6,0.6v12.1   c7.2-2.3,12.4-9,12.4-16.9C53.1,38.7,45.2,30.7,35.4,30.7z M35.4,43.6c-2.5,0-4.6-2-4.6-4.6c0-2.5,2-4.6,4.6-4.6   c2.5,0,4.6,2,4.6,4.6C40,41.6,37.9,43.6,35.4,43.6z" fill="#84DBFF"/><path d="M92.4,26.7c-10.9,0-20,8.1-21.4,18.7h-4.7v-3.9l-6.9,6.9l6.9,6.9v-3.9H71c1.4,10.5,10.5,18.7,21.4,18.7   c11.9,0,21.6-9.7,21.6-21.6C114,36.4,104.4,26.7,92.4,26.7z" fill="#FFFFFF"/><path d="M92.4,30.7c-9.8,0-17.7,7.9-17.7,17.7c0,7.9,5.2,14.6,12.4,16.9V53.2c0-0.3-0.3-0.6-0.6-0.6   c-0.3,0-0.6,0.2-0.6,0.6l-0.9,8.3c0,0.6-0.5,1-1.1,1c-0.6,0-1.1-0.5-1.1-1.1V55c0-5.3,4.1-9.8,9.4-9.9c5.5-0.2,10,4.2,10,9.7v6.6   c0,0.7-0.6,1.2-1.3,1.1c-0.5-0.1-0.9-0.5-0.9-1.1L99,53.2c0-0.3-0.3-0.6-0.6-0.6c-0.3,0-0.6,0.3-0.6,0.6v12.1   c7.2-2.3,12.4-9,12.4-16.9C110.1,38.7,102.2,30.7,92.4,30.7z M92.4,43.6c-2.5,0-4.6-2-4.6-4.6c0-2.5,2-4.6,4.6-4.6s4.6,2,4.6,4.6   C97,41.6,94.9,43.6,92.4,43.6z" fill="#FF7058"/><path d="M63.1,77.4c-9.8,0-17.7,7.9-17.7,17.7c0,7.9,5.2,14.6,12.4,16.9V99.9c0-0.3-0.3-0.6-0.6-0.6   c-0.3,0-0.6,0.2-0.6,0.6l-0.9,8.3c0,0.6-0.5,1-1.1,1c-0.6,0-1.1-0.5-1.1-1.1v-6.4c0-5.3,4.1-9.8,9.4-9.9c5.5-0.2,10,4.2,10,9.7v6.6   c0,0.7-0.6,1.2-1.3,1.1c-0.5-0.1-0.9-0.5-0.9-1.1l-0.9-8.2c0-0.3-0.3-0.6-0.6-0.6c-0.3,0-0.6,0.3-0.6,0.6V112   c7.2-2.3,12.4-9,12.4-16.9C80.9,85.3,72.9,77.4,63.1,77.4z M63.1,90.3c-2.5,0-4.6-2-4.6-4.6c0-2.5,2-4.6,4.6-4.6   c2.5,0,4.6,2,4.6,4.6C67.7,88.3,65.7,90.3,63.1,90.3z" fill="#324A5E"/></g></svg>