<?xml version="1.0" ?><!DOCTYPE svg  PUBLIC '-//W3C//DTD SVG 1.1//EN'  'http://www.w3.org/Graphics/SVG/1.1/DTD/svg11.dtd'><svg enable-background="new 0 0 128 128" id="Layer_1" version="1.1" viewBox="0 0 128 128" xml:space="preserve" xmlns="http://www.w3.org/2000/svg" xmlns:xlink="http://www.w3.org/1999/xlink"><g><path d="M127.5,64c0,35.1-28.4,63.5-63.5,63.5S0.5,99.1,0.5,64C0.5,28.9,28.9,0.5,64,0.5   c27.7,0,51.2,17.7,59.9,42.4c1.9,5.3,3,10.9,3.4,16.7C127.5,61.1,127.5,62.5,127.5,64z" fill="#FD8469"/><g><g><path d="M64,99.5L25.4,61L64,22.4L102.6,61L64,99.5z M29.7,61L64,95.3L98.3,61L64,26.6L29.7,61z" fill="#E6E9EE"/></g><circle cx="64" cy="24.8" fill="#FFFFFF" r="11.9"/><circle cx="64" cy="97.4" fill="#FFFFFF" r="17.7"/><path d="M81.7,97.4c0,4.3-1.6,8.3-4.2,11.4c-3.2,3.8-8.1,6.3-13.5,6.3c-5.4,0-10.3-2.4-13.5-6.3    c-2.6-3.1-4.2-7-4.2-11.4c0-9.8,7.9-17.7,17.7-17.7C73.7,79.8,81.7,87.7,81.7,97.4z" fill="#FFFFFF"/><circle cx="100.3" cy="61.1" fill="#FFFFFF" r="11.9"/><circle cx="100.3" cy="61.1" fill="#84DBFF" r="6.1"/><circle cx="64" cy="91.8" fill="#324A5E" r="6.1"/><path d="M77.5,108.8c-3.2,3.8-8.1,6.3-13.5,6.3c-5.4,0-10.3-2.4-13.5-6.3c2.9-4.3,7.9-7.2,13.5-7.2    C69.6,101.6,74.6,104.5,77.5,108.8z" fill="#324A5E"/><circle cx="64" cy="24.8" fill="#2C9984" r="6.1"/><circle cx="27.7" cy="61.1" fill="#FFFFFF" r="11.9"/><circle cx="27.7" cy="61.1" fill="#FFD05B" r="6.1"/></g></g></svg>