<?xml version="1.0" ?><!DOCTYPE svg  PUBLIC '-//W3C//DTD SVG 1.1//EN'  'http://www.w3.org/Graphics/SVG/1.1/DTD/svg11.dtd'><svg enable-background="new 0 0 512 512.003" height="512.003px" id="Layer_1" version="1.1" viewBox="0 0 512 512.003" width="512px" xml:space="preserve" xmlns="http://www.w3.org/2000/svg" xmlns:xlink="http://www.w3.org/1999/xlink"><g><g><path d="M512,256.001c0,141.386-114.615,256.002-256.004,256.002C114.618,512.003,0,397.387,0,256.001     C0,114.615,114.618,0,255.996,0C397.385,0,512,114.615,512,256.001z" fill="#77B3D5"/><g><g><path d="M70.879,352.931v-240.34c0-7.386,5.987-13.373,13.373-13.373H419.56       c7.386,0,13.373,5.987,13.373,13.373v240.34H70.879z" fill="#0D2038"/><g><rect fill="#ECF0F0" height="216.875" width="321.582" x="91.115" y="117.636"/></g></g><g><path d="M465.685,361.202H37.34v-7.845c0-3.322,2.693-6.015,6.015-6.015H459.67       c3.322,0,6.015,2.693,6.015,6.015V361.202z" fill="#ECF0F0"/><path d="M465.685,361.202c0,5.876-6.267,10.642-14.001,10.642H51.35c-7.735,0-14.005-4.766-14.005-10.642       H465.685L465.685,361.202z" fill="#0D2038"/><path d="M465.685,361.202c0,5.876-6.267,10.642-14.001,10.642H51.35       c-7.735,0-14.005-4.766-14.005-10.642H465.685L465.685,361.202z" fill="#FFFFFF" opacity="0.1"/><path d="M87.5,361.202H37.346v-7.845c0-3.322,2.693-6.015,6.015-6.015H87.5V361.202z" fill="#FFFFFF"/><path d="M466.466,361.202H416.31v-13.859h44.142c3.322,0,6.015,2.693,6.015,6.015V361.202z" opacity="0.15"/><g><path d="M210.18,347.342v3.217c0,5.878,6.27,10.643,14.001,10.643h24.522v-13.859H210.18z" opacity="0.2"/><path d="M248.704,347.342v13.859h24.38c7.731,0,14.001-4.765,14.001-10.643v-3.217H248.704z" opacity="0.3"/></g></g><rect fill="#FF5835" height="82.291" width="70.998" x="105.229" y="160.47"/><rect fill="#F3C800" height="82.291" width="70.995" x="327.584" y="160.47"/><rect fill="#F39C12" height="82.29" width="91.854" x="105.125" y="242.762"/><rect fill="#746386" height="82.29" width="71.351" x="196.98" y="242.762"/><rect fill="#77B3D5" height="82.291" width="158.129" x="174.763" y="160.47"/><rect fill="#77D593" height="82.29" width="130.248" x="268.331" y="242.762"/><path d="M419.213,99.669H84.963c-7.363,0-13.33,5.967-13.33,13.331v238.667l357.726-247.226      C426.915,101.546,423.303,99.669,419.213,99.669z" fill="#FFFFFF" opacity="0.2"/><circle cx="117.403" cy="137.665" fill="#77D593" r="8.761"/><path d="M149.507,137.665c0,4.837-3.921,8.761-8.762,8.761c-4.835,0-8.759-3.924-8.759-8.761      c0-4.839,3.924-8.762,8.759-8.762C145.586,128.902,149.507,132.826,149.507,137.665z" fill="#FF5835"/><circle cx="164.089" cy="137.665" fill="#0D2038" r="8.76"/></g></g></g></svg>