<?xml version="1.0" ?><!DOCTYPE svg  PUBLIC '-//W3C//DTD SVG 1.1//EN'  'http://www.w3.org/Graphics/SVG/1.1/DTD/svg11.dtd'><svg enable-background="new 0 0 600 600" id="Layer_1" version="1.1" viewBox="0 0 600 600" xml:space="preserve" xmlns="http://www.w3.org/2000/svg" xmlns:xlink="http://www.w3.org/1999/xlink"><symbol id="Deleted_Symbol" viewBox="-76.5 -155.5 153 311.1"><g><defs><path d="M-74.4,134.3c0,0,12.5-100.1,12-116.6c-0.5-16.5-1.5-27,0-46.5c1.5-19.5-8.5-24,0-59.6s7.5-45,15-47     s10,1.5,10,1.5s1-6.7,4.5-9.5c6.3-5,10.5-4.5,12,0c0,0-0.4-5.7,2.7-7.1c5.6-2.5,9.3-4,15.4,2.1c0,0,4.3-4.1,9.7-3.5     c6.4,0.7,13,6.7,10.8,17c-4,19-4.7,30,1.4,57.1c0,0,0.6,12,16.1,10.5c3.9-0.4,6.4-0.6,7.9-0.6c2.8-0.1,5.5-0.9,7.8-2.4     c3.3-2.1,8.2-2.8,14.3-1c11.5,3.5,7.5,7,7.5,7s-5,6-8.5,5c-3.5-1-9.5,8.2-22,8.8c-12.5,0.7-18,15.7-32,24.7s-15,22-15,34     S10.7,121.3,8.7,134.3S-78.3,167.1-74.4,134.3z" id="SVGID_1_"/></defs><clipPath id="SVGID_2_"><use overflow="visible" xlink:href="#SVGID_1_"/></clipPath><g clip-path="url(#SVGID_2_)" id="WXzVXM.tif_2_"><g><path d="M76.5-68.5l-0.4-0.1l-0.4,0.1c-0.2,0-0.5,0.1-0.7,0.1c-4.1,1.5-8.2,3.3-12.7,2.7      c-7.4,2.9-15,5.1-22.7,7.2c-1.5,1.4-3.5,1.9-5.4,2.4C21.6-53.2,12-45.8,3.5-36.8C-1.1-32-0.6-25.9-0.4-20c0,1,0.7,1.9,2,1.6      c2.9-4.2,2.4-9.3,3.6-14c3.4-5.9,9.9-7.8,15-11.5c3.1-1.7,6.4-2.7,9.7-3.9c4-1.4,8.2-2.7,11.2-6.1c0.8-0.9,1.9-1.4,3-1.6      c6.1-0.8,11.7-3.6,17.7-4.8c4.9-1,9.6-2.2,13.8-5.1c0.3,0.2,0.6,0.1,0.8-0.1C76.5-66.5,76.5-67.5,76.5-68.5z" fill="#DF8C64"/><path d="M-72.3,104.5c-1.9,9.6-1.6,19.5-4.2,29c0,3.3,0,6.7,0,10c1.9,1.8,2.3,4.9,5,6c3.3-0.5,3-3.1,2.8-5.3      c-0.6-7.4-0.4-14.8-0.4-22.2c0.2-4.9-0.9-9.7-0.6-14.6C-69.6,105.8-70.3,104.3-72.3,104.5z" fill="#D78056"/><path d="M-13.5-155.5c-1.8,1.9-5.6,1.2-6.1,4.7c-0.5,1.4-0.4,2.6,1.4,2.9c1.3,0,2.3-0.9,3.4-1.5      c2.6-2.1,6.4-1.9,8.6-4.7c-0.3-1.2-1.7-0.6-2.2-1.4C-10.2-155.5-11.8-155.5-13.5-155.5z" fill="#A85831"/><path d="M17-149.7c-2.4-3.3-6.2-4.1-9.5-5.9c-1,0-2,0-3,0c-1,1-3.5,0.4-3.1,2.9C6.4-150.6,11.3-148.1,17-149.7z" fill="#AA5A34"/><path d="M-64.6,34.2c-1.1,2-0.8,4.1-0.7,6.3c1.8,3.1,0,6.3-0.3,9.3c-0.9,9.4,0.8,18.6,0.8,27.9      c-0.1,10.5,0.1,21-0.1,31.5c-0.1,4,2,7.8,0.5,11.9c-1,3.9,0.5,7.6,0.9,11.4c1,5,1.9,10.1,1.7,15.3c0,2.1-0.1,4.2,1.4,5.9      c0.7,1.3,1.9,0.9,3,1c0.2-0.2,0.4-0.4,0.6-0.7c1.6-4.1,0.1-8.3-0.6-12.2c-1.4-8.8-2.6-17.7-2.5-26.6c0.3-21.4-1.4-42.8-1-64.3      c0.1-5.6-0.3-11.2,1.4-16.7c2.1-16.3,3.5-32.7,6.6-48.8c1.2-6.3,3.5-12.2,8.1-16.8c5.3-5.3,12.4-4.9,16.8,1.1      c5.1,7,6.8,15.4,8.3,23.8C-18.7,0.7-19,8-17.8,15.2c0.3,1.7-0.3,3.8,2.2,4.4c1.6-1.4,1.3-3.3,1.4-5.1c0.1-4.6-0.2-9.3-0.7-13.7      c-0.7-6.3-0.8-12.8-2.4-19.1c-2-7.8-4.7-15.2-11.6-20.1c-5.2-3-10.4-3.6-15.8-0.5c-1.4,1.6-3.2,2.6-5,3.7      c-5.3,5.3-7.3,12-8.7,19.1c-2.6,13.3-3.4,26.8-4.9,40.2c-0.1,3.9-0.3,7.8-0.7,11.7C-64,35.3-64,34.7-64.6,34.2z" fill="#DD8B62"/><path d="M-45.6,155.3c0.4,0,0.7,0,1.1,0c3.7-1,2.6-3.9,2.1-6.1c-1.1-4.9-2.2-9.8-4.3-14.3      c-3.2-6.7-4-13.9-4.2-20.9C-51.4,93.8-53,73.5-52,53.2c0.4-7.9,1.3-15.9,5.5-23c1.5-4.7,5.9-8.7,9.6-8.7      c4.5,0,9.7,4.9,11.4,10.7c1.9,3.8,3.5,7.8,4.3,12c2.1,8.2,2.6,16.6,2.4,25.1c0,1.2,0.1,2.4,0.4,3.5c1.2,9.9,0.9,19.9,0.3,29.8      c-0.6,10.7-1.3,21.5-3.7,32c-1.1,4.5-2.4,9-2.9,13.6c-0.2,1.6-1.5,3.6,1.4,4.3c0.8,0,1.6-0.1,1.9-1c3.1-7.9,3.8-16.4,5.2-24.7      c3.4-20.4,1.8-41,2.1-61.6c0-4-1.3-7.9-1-11.9c0-0.6-0.1-1.1-0.2-1.7c-1.5-4.9-1.7-10.1-3.1-15c-2.2-5-2.5-10.7-6.3-15      c-3.2-2.9-5.8-6.7-11.1-6.6c-6.7,0.1-10,1.8-12.8,8.1c-0.6,1.4-1.5,2.5-2.3,3.8c-0.6,0.9-1.1,1.9-1.5,2.9      c-2.5,7.4-3.3,15.1-4,22.8c-0.2,0.9-0.3,1.8-0.3,2.6c1.9,15.8,0.5,31.7,0.9,47.6c0.1,2,0,4,0.1,5.9c0,0.6,0.1,1.2,0.3,1.7      c1.3,3.7,0.5,7.6,0.9,11.4c1.1,10.3,5.3,19.8,6.4,30.1C-48,153.5-47,154.7-45.6,155.3z" fill="#ECA988"/><path d="M7.6,98.2c-0.1-3.3,0.3-6.6-1-9.7C0.8,68.2-4.1,47.8-6.3,26.8c-0.8-7.6-1.1-15.3-0.6-22.9      C-6.6-0.6-7-6-1.4-8.4c1.3-1.8,1.1-4,1.1-6c-3.4-4-5.7-1.2-8,1.3c-4.9,12.5-3.7,25.5-3,38.4c0.1,2.6,0.4,5.3,0.5,7.9      c0.1,3.2-0.4,6.5,1.1,9.5c2.1,4.6,2.7,9.6,3.3,14.5c1.1,10.3,4.3,20.1,5.9,30.3c0.1,0.5,0.3,1,0.6,1.5c2.3,2.5,2.8,5.9,3.8,9      c0.5,1.4,1.5,2.8,3.2,2.6C8.4,100.4,8,99.1,7.6,98.2z" fill="#D07A50"/><path d="M-1.4-8.4c0-2.3-0.5-3.4-2.5-1.1C-7.6-5.4-8.2-0.3-8.5,4.8C-9.3,23.7-6,42-2.1,60.3      c1.7,8.1,3.8,16.1,6.4,23.9c0.5,1.6,0.8,3.2,2.3,4.3c-1.3-8.4-0.8-17-2.9-25.3c-0.1,0.1-0.3,0.2-0.4,0.3      c-0.2,0.5-0.5,0.6-0.6,0.2c-1.1-7.7-3.3-15.2-4.6-22.8c-2-11.6-2.7-23.4-2.2-35.2C-4,1.8-4,1.6-2.3-1.2C-1.3-3.5-1.6-6-1.4-8.4z      " fill="#C46E44"/><path d="M-16.4,150.8c1.1-0.2,2.4,0.1,3-1.2c1.7-2.1,1.9-4.6,2.2-7.1c2.9-25.5,2.5-51,2-76.5      c-0.1-5.2-1-10.5-1.8-15.8c-1.6-9.8-3.6-19.5-6.1-29c-1.7-1.5,0.4-5.6-3.7-5.4c-1.3,1.9-0.9,4-0.9,6.1c0.8,7.5,3.7,14.4,5,21.8      c4.4,24.4,2.9,49,2.7,73.6c-0.1,8.7-1.6,17.5-3.2,26.1C-17.9,145.9-18.6,148.6-16.4,150.8z" fill="#E49872"/><path d="M-47.5,28.5c-6.4,12.1-5.8,25.2-6.1,38.3c-0.3,15.8,1.3,31.6,1.2,47.4c0,8.9,2.7,17.5,5.7,26      c1.4,3.9,3.1,7.9,3.4,12.3c0.1,1.4-0.5,2.1-1.2,2.9c2.7,0.1,5.4,0.4,8-0.8c1.5-1.9,0.3-3.4-0.6-5c-2.8-5.8-5.6-11.7-8.4-17.5      c-2.1-4.3-2.7-8.9-3.3-13.5c-2.8-23.4-0.8-46.9-1.1-70.3c0-3.1,0.7-6.3,1.5-9.3c-0.5-3.9,3.8-6.5,3.1-10.5      C-46.1,27.9-46.8,27.9-47.5,28.5z" fill="#EFAF8F"/><path d="M-16.4,150.8c0-10.1,2.8-19.9,3.4-30c0.1-1.9,0.5-3.9,0.5-5.9c0-9.6-0.1-19.3,0-28.9      c0.2-21.1-1.7-41.9-7.7-62.2c-0.2-0.8-0.2-1.6-0.3-2.5c-0.9-1.8-0.6-3.8-0.9-5.7c-0.4-1.7-0.6-3.3-2.8-3.4      c-1.8,1.9-0.8,4.3-1.1,6.4c2.3,6.1,4.5,12.1,6.4,18.3c0.9,4.8,1.5,9.6,2.5,14.3c0,0.3,0,0.7,0,1c2.3,13.3,1.2,26.7,1.6,40.1      c0.5,18.3-1.5,36.4-4.9,54.4c-0.3,1.4-0.7,3,0.4,4.3C-18.4,151.5-17.3,151.8-16.4,150.8z" fill="#E89E7A"/><path d="M-12.5,49.5c3.1,20.1,1.8,40.4,2,60.7c0.1,11.6-1.4,23-2.8,34.5c-0.2,1.6-0.1,3.3-0.1,5      c1.8-0.1,3.6,0.4,5.1-1c0.5-6.8-0.4-13.6,0.4-20.3c0.9-7.7,0.6-15.4,1.5-23c0.9-17.4-0.8-34.7-2.9-52      C-10.1,51.7-10.1,49.6-12.5,49.5z" fill="#E49068"/><path d="M-5.3,147.5c1.2-1.7,3.7-0.3,5-2c-0.5-13.2,0.1-26.5-0.1-39.7c-0.1-6.1-1.2-12.2-0.7-18.4      c0.4-6.6-2.7-12.5-3.4-18.8c-0.5-1.8-1-3.5-1-5.4c-0.1-0.9-0.4-1.6-1.2-2.1c-0.6,0-1.1,0.3-1.4,0.8c-0.1,7.9,0.5,15.7,1.6,23.6      c0.9,6.7,0.4,13.5-0.1,20.2c-0.1,1.8-0.2,3.6,0.1,5.4c0.8,10.7,1.4,21.4-0.1,32.1c-0.2,1.3-0.5,2.6-0.1,3.9      C-6.4,147.9-5.9,148-5.3,147.5z" fill="#DD865D"/><path d="M1.7,144.6c1.9-0.4,3.6-1.3,4.9-2.8c1.9-3.9,1.2-8.3,0.9-12.2c-0.5-6.6-0.3-13.3-0.8-19.9      c-0.2-3.8-1.2-7.2-3.9-10c-0.8-0.9-1.8-2.3-3.1-0.4c-0.7,14-0.4,27.9-0.3,41.9C-0.6,142.7-0.9,144.7,1.7,144.6z" fill="#D88156"/><path d="M-55.5,54.5c0-0.7,0-1.3,0-2c0.5-8.2,1.1-16.4,4.1-24.2c1-3.8,4-7.2,2.6-11.6c-0.4-0.4-0.9-0.5-1.4-0.4      c-3.4,3.6-3.6,8.5-5.2,12.8c-1.9,6.3-1.7,12.9-3.4,19.3c0.3,11.6-0.5,23.2,0.7,34.7c0.7,6.6,0.5,13.3,0.3,19.9      c-0.4,14.4,1.8,28.4,4.5,42.4c0.5,2.4,2.3,5.5-0.9,7.7c-1.2,0.1-2.2,0.6-3.1,1.3c0,0,0,0.3,0,0.3c3.2,1.5,6.6,0.8,10,0.7      c-0.8-10.7-4.5-20.9-6-31.5c-0.6-4.4-0.6-8.9-1-13.3l0,0c-1.1-3.4-0.4-6.9-0.5-10.4c-0.1-11.8-0.2-23.6,0.1-35.4      C-54.8,61.2-57.1,58-55.5,54.5z" fill="#EAA17D"/><path d="M0.5,98.5c6.3,5.2,5.1,12.6,5.3,19.3c0.2,8,0.4,16,0.8,24c3.4-1.7,4.3-4.6,4.2-8.2      c-0.3-11.9-1.2-23.7-3.2-35.4c-1.7,1.5-2.6,1.2-3-1.4c-0.5-3.2-0.7-6.5-4.1-8.3C-1.6,91.8-1.6,95.1,0.5,98.5z" fill="#D67F55"/><path d="M-49.5,119.5c-0.3,4,0.4,7.9,2.2,11.5c3.5,6.8,5.9,14.3,10.2,20.7c0.5,0.7,0.4,1.9,0.6,2.9      c2.4-0.2,4.8,0.5,7-0.9c5.7-7.4,7.1-16.3,8.8-25.1c1-4.9,3.2-9.8,1.4-15c-2.2-0.4-2.2,1.4-2.5,2.7c-0.5,2.5-1.1,5.1-1.5,7.6      c-0.4,6.5-3.5,12.1-6.6,17.6c-1.8,3.3-4.5,3.7-6.7,0.7c-3.3-4.3-7.2-8.4-8.7-13.8c-0.9-2.7-1.2-5.6-2.5-8.2      c-0.3-0.4-0.7-0.7-1.1-0.9C-49,119.3-49.3,119.4-49.5,119.5z" fill="#F2B394"/><path d="M1.5-18.5c-3-8.1,1.2-17,9.6-24c7.1-5.9,15.1-9.5,23.4-13c-0.2-0.2-0.4-0.4-0.6-0.6      c-1.5-0.8-3-0.7-4.6-0.7c-2.3,0.1-4.5,1-6.8,1.2c-10.2,3.9-19.1,9.5-23.7,20C-4-29.2-6.2-22.7-0.8-16.5c0.5,0.4,0.9,0.3,1.4,0      c0.3,0,0.6-0.1,0.8-0.3C2.1-17.4,2.1-17.9,1.5-18.5z" fill="#D98358"/><path d="M75.7-65.4c-8.5,2.9-17.3,4.9-26,7.4C39-54.8,29.9-48.2,19.5-44.5c-0.9,0.9-2.6,1.3-2.1,3.1      c0.4,0.3,0.8,0.4,1.3,0.5c1.2,0,2.3-0.5,3.4-1c2.6-2,5.8-0.3,8.5-1.6c3.3-2,6.6-4.1,10-6.1c2.4-2.1,4.2-5.2,8-5.1      c1.3-0.4,2.7-0.6,4-1c2.8-1,5.9-1.1,8.8-1.8C66.3-59.9,72.7-59.5,75.7-65.4z" fill="#EAA280"/><path d="M-19.5,113.5c-0.6,12.5-3.8,24.4-8.9,35.8c-0.6,1.4-1.2,2.7-1,4.3c2-0.3,4.2,0.4,6-1.1      c-1.2-3.9,0.5-7.8,1.4-11.3c5.7-21.9,5.6-44.2,5.5-66.6c0-0.7-0.6-1.5-0.9-2.2c-1.8,1.7-1.3,4-1.4,6.1      c-0.2,7.3,0.4,14.6-0.4,21.9C-19.5,104.8-21.7,109.1-19.5,113.5z" fill="#F0AE8E"/><path d="M-19.5,151.3c2-10,3.2-20.1,4.1-30.3c1.7-18.4,0.5-36.7,0.8-55.1c0.1-4.6-0.5-9.1-2-13.5      c1.4,14.7,0.8,29.4,1,44.2c0.3,16.5-2.3,32.5-5.5,48.5c-0.4,2.2-0.5,4.3-0.5,6.4C-20.8,151.5-20.1,151.4-19.5,151.3z" fill="#ECA380"/><path d="M0.5,98.5c0-3.3,0-6.7,0-10c-0.8-1.1-1.5-2.1-3-1c0.3,10.9,0.7,21.9,0.9,32.8c0.1,6.8-0.1,13.7-0.4,20.5      c-0.1,2,0,3.6,1.7,4.8c0.8,0,1.6-0.2,2.1-1c-0.4-0.7-1.1-1.4-1.1-2.1c0.4-10.5-1.3-21,0-31.4C1.1,106.8,0.4,102.7,0.5,98.5z" fill="#DB8359"/><path d="M-2.3-1.2c-0.1-0.7-0.2-1.3-0.3-2C-9.8,3.3-3.4,49.5,3.2,67c0.2-1.5,0.3-2.7,0.4-3.8      c-1.4-5.3-0.3-10.9-1.9-16.1c-0.1,0.1-0.4,0.3-0.4,0.3C1.5,47.9,1,48,1,47.8c-0.3-6.3-2-12.4-2.7-18.6c-1-9.2-2.3-18.4-0.7-27.7      C-2.4,0.6-2.4-0.3-2.3-1.2z" fill="#BB663B"/><path d="M-2.4,1.5c-1.4,5.7-2.7,11.6-1.9,17.5C-2.9,29.5-1,40,1.3,50.5c0.1-1.1,0.3-2.2,0.4-3.4      C0.5,35.2-0.7,23.3-1.9,11.4C-2.2,8.1-2.3,4.8-2.4,1.5z" fill="#B7643B"/><path d="M-70.5,120.5c0.5,8.4-0.9,16.8,0.8,25.1c0.3,1.5-0.6,2.9-1.8,3.9c1.6,1.7,3.5,2.8,5.8,3.1      c2.6,0,2.4-2.1,2.1-3.6c-0.5-2.9-0.3-6-1.6-8.8c-2-5.3-1.6-11-2.9-16.5C-68.3,122.2-68,120.3-70.5,120.5z" fill="#D88156"/><path d="M-5.3,147.5c-0.4,0-0.8-0.1-1.1-0.1c-1.5-3.6,0.3-7.2,0.5-10.7c0.4-8,0.4-16,0.3-24.1      c-1.4-2.2,0-5.1-1.8-7.2c-0.2,0.2-0.6,0.5-0.6,0.7c0,13.6-2.4,27.1-1.2,40.8c0,0.6,0.7,1.1,1,1.6      C-7.2,148.5-6.1,148.5-5.3,147.5z" fill="#E28D64"/><path d="M-54.5,110.5c-2,4.2-0.1,8.5,0.3,12.6c0.8,9.5,4.1,18.6,4.9,28.2c0.1,1.4,1.2,2.7,1.8,4.1      c0.7,0,1.3,0,2,0c-2.3-3.2-2-7.1-2.7-10.7c-2.3-10.9-6.1-21.6-5.4-33C-53.7,111.3-54.2,110.9-54.5,110.5z" fill="#EAA27F"/><path d="M17.5-41.5c0.7-1,1.3-2,2-3c-5.4,3.1-11.4,5.4-15,11c-0.2,4-1.7,8.1,0,12.1c1-0.8,2-1.6,2.9-2.3      c2.4-2.7-0.4-5.9,0.7-8.7c0.5-1,1.2-1.8,2-2.5C12.6-37.2,16.1-38.2,17.5-41.5z" fill="#E99B76"/><path d="M52.5-56.5c-1.4,0.1-2.9-0.5-4,1c-0.8,0.8-1.9,0.4-2.8,0.7c-3.1,1.3-3,2.7-0.2,4.2      c5,0.2,9.4-1.5,13.2-4.9C56.9-57.6,54.7-57.3,52.5-56.5z" fill="#EFB294"/><path d="M30.6-43.5c-3.1-0.8-6.3-2.2-9.1,1c-1.4,1.2-3.1,1.9-4.3,3.3c-1.1,1.4-2.4,3,0.3,4.3      c0.5,0,0.9,0,1.4-0.1c2.6-0.5,4.1-2.9,6.5-3.6C27.7-39.7,29.1-41.6,30.6-43.5z" fill="#F0B295"/><path d="M-66.5,140.5c0.8,4,3.1,7.9,0.9,12.1c0.9,1,1.9,1.1,3.1,0.8c1.9-2.9,0.6-6.2,1-9.2c0-1.1,0-2.2-0.2-3.3      c-1.2-2.1-0.8-4.9-2.9-6.5C-67.9,135.5-66.1,138.3-66.5,140.5z" fill="#DB855B"/><path d="M17.5-41.5c-2.7,2-5.3,4-8,6c-2.7,4.7,0.7,6.1,4.1,7.3c1.2-0.4,2.3-1,2.9-2.2c1.2-2-0.3-2.7-1.8-3.1      c-1.6-0.4-1.8-1.1-0.7-2.3c1.3-2.1,4.4-2.7,4.4-5.7C18.2-41.5,17.8-41.5,17.5-41.5z" fill="#EDA989"/><path d="M4.5-21.4c0-4,0-8.1,0-12.1c-1,5-2,10-3,15c0,0.6,0,1.1,0,1.7C3-18,4.1-19.5,4.5-21.4z" fill="#DE8D66"/><path d="M13.5-36.5c-1.2,0.6-2.7,1.4-2.5,2.8c0.2,1.9,2.1,1.1,3.3,1.2c1.4,0.1,2.1,0.8,2.3,2.1      c1.6-1.4,3.2-2.9,4.8-4.4c-0.5-2.1-1.7-1.2-2.9-0.8h0C16.7-35.1,14.8-34.2,13.5-36.5z" fill="#EEAB8B"/><path d="M13.6-28.2c-0.9-2.7-5.8-3.1-4.1-7.3c-1,0.4-1.6,1-2,2C6-30,9-28.2,10.5-25.8      C11.8-26.2,12.8-27.1,13.6-28.2z" fill="#EBA684"/><path d="M10.5-25.8c1.2-3.4-3.9-4.4-3-7.7c-2.7,3.2,1.1,6.5,0,9.8C8.5-24.4,9.5-25.1,10.5-25.8z" fill="#E9A07D"/><path d="M0.6-16.5c-0.4,0-0.7,0-1.1,0c-1.4-1.4-2.7-3.2-5-2.3c-2,0.8-3.2,2.3-2.5,4.7c0.2,0.2,0.3,0.4,0.5,0.6      c2.3-1.1,4.5-2.9,7.1-0.9C0.6-14.8,0.5-15.7,0.6-16.5z" fill="#D27C52"/><path d="M45.5-50.6c-3.6-4.5,2.4-3.1,3-4.9c-4.4-0.5-6.9,1.8-8,5.9C42.2-50,43.8-50.3,45.5-50.6z" fill="#EBA684"/><path d="M52.5-56.5c2.2-0.3,4.1,0.7,6.2,1.1c1.2-0.3,2.3-0.8,2.7-2.1C58.1-59.4,55.3-57.9,52.5-56.5z" fill="#EBA684"/><path d="M-62.5,143.5c0,3.3,0,6.6,0,9.9c0.7,0.1,1.3,0.1,2,0.2c0-2,0-4.1,0-6.1      C-61.9,146.5-59.7,143.8-62.5,143.5z" fill="#DC875D"/><path d="M18.5-35.5c1,0.1,2.1-0.2,2.9,0.8c2.2-0.5,2.7-2.7,4-4C22.4-39.3,20.7-36.8,18.5-35.5z" fill="#F0B192"/><path d="M39.5-57.5c7.9-1.6,15.5-4.1,23-7c4.6-0.5,8.8-1.9,12.9-4c0,0,0.2-0.1,0.2-0.1c-0.5-1.5-1.5-2.1-3-2      c-4.8-1.8-8.4,1.6-12.5,3c-2.3,0.8-4.4,2.1-6.6,3.3c-7.8,3.2-16.1,4.2-24.3,4.2c-7.6,0-13.6-6.5-15.3-15.4      c-1.6-8.3-2.8-16.6-1.4-25.2c0.7-4.8,1.8-10.2-1.2-15c-1.2,0.2-1.9,1.1-1.8,2c0.3,6.5-1.9,12.7-2.2,19.1      c1.5,5.3,0.5,10.8,0.8,16.2c-0.1,2.2,0.7,4.2,1.1,6.3c0.1,0.5,0.2,1,0.4,1.5c0.4,1,0.8,1.9,1.1,2.9c2.3,9.9,6.5,12.5,18.5,11.6      c1.9,0.2,3.7-0.5,5.6-0.5C36.5-56.5,38.1-56.5,39.5-57.5z" fill="#D07C53"/><path d="M54.5-63.5c5.9-2.6,11.6-5.9,18.1-7c-1-2.2-3.1-2.5-5.1-2.8c-2.5,0.9-5,1.9-7.3,3.1      c-8.1,4-16.8,5.1-25.6,5.4c-7.1,0.2-11.9-3.4-15.2-9.5c-2.4-4.7-3.1-9.8-3.5-14.9c-0.2-2.1,0.4-4.4-1.2-6.2      c-3.5,0.2-2,3.4-3.1,5.1c0.3,6.6,1.2,13.1,3.5,19.4c2.7,7.2,10.3,12.1,18.1,11.4C40.4-60.3,47.7-60.8,54.5-63.5z" fill="#BC673D"/><path d="M18.5-73.5c3.2,7,8.9,10.3,16.3,9.9c11.6-0.6,23.1-2,32.6-9.8c-3-1.1-6.1-1.8-9.2-0.2      c0.6,0.9,1.6,1.1,3.1,1.1c-6.1,2.6-11.9,4.3-18.1,5c-0.5,0.1-0.9,0.2-1.4,0.3c-4,0.8-8,0.4-11.9,0.2c-0.4-0.1-0.9-0.2-1.3-0.3      c-1.5-0.3-2.8-0.8-3.9-2c-1.4-1.4-3-2.7-3.9-4.5c-0.6-1-1-2.3-2.6-1.7C18-74.8,17.9-74.1,18.5-73.5z" fill="#A8562D"/><path d="M1.6-153.4c-1.3,0.2-2.2,0.9-3.1,1.9c-1.3,0.8-2.1,1.7-1,3.2c0.8,1.2,1.9,0.9,3.1,0.5      c5.5-1.7,10.3-0.3,14.7,3.2c1.7,2.7,0.9,5.5,0.6,8.3c-0.3,0.8-0.6,1.7-0.8,2.5c-0.2,0.7-0.2,1.3-0.1,2c0.2,0.9,0.6,1.6,1.3,2.3      c0.4,0.3,0.8,0.3,1.2,0c1.8-1.7,1.3-3.8,1.2-5.9c1.4-3.5,1.1-7,0.1-10.6c0.5-1.7-0.5-2.7-1.6-3.7      C11.8-150.9,6.7-152.1,1.6-153.4z" fill="#B66239"/><path d="M18.5-75.5c0.7,0.7,1.3,1.3,2,2c0.4-0.2,0.7-0.5,0.9-1c-2.1-9.6-4.1-19.2-5-29c-0.7-0.2-1.1-0.1-1.5,0.5      C14.7-93.6,14-84.2,18.5-75.5z" fill="#A6552C"/><path d="M18.5-75.5c-3.6-9.1-3-18.6-3-28c1.3-3.9-0.2-8,0.8-12c0.3-4.7,0.7-9.3,1-14c-0.3,0-0.6,0-0.8,0      c-3,3.2-2.6,7.5-2.9,11.2c-0.6,7.6-1.9,15.3,0.8,22.8c0,7.6-0.1,15.2,4,22C18.5-74.2,18.5-74.9,18.5-75.5z" fill="#AD5C33"/><path d="M42.5-66.5c7.7,0.1,14.5-2.7,21.2-6.7c-1.8-0.1-3.6-0.3-5.5-0.4c-4.1,0.1-7,3.3-10.7,4.3      c-0.3,0.3-0.7,0.5-1.1,0.7C45-68.1,42.7-69.2,42.5-66.5z" fill="#A6552C"/><path d="M42.5-66.5c1.2-1.9,3.8-0.1,5-2c-1.8-0.9-3.6-0.6-5.4-0.1c-4.5,0-8.9,0-13.4,0c-0.7-0.3-1.4-0.4-2.2-0.2      c-1.1,2.2,1.4,1.4,1.9,2.3l0,0C33.2-65.7,37.8-65.7,42.5-66.5L42.5-66.5z" fill="#9A491F"/><path d="M26.5-68.5c0.8,0,1.5-0.1,2.3-0.1c-3-1.3-5.4-3.4-7.4-5.9c-0.3,0.3-0.6,0.7-0.9,1c0.3,2.5,2.1,3.7,4,5      C25.2-68,25.8-67.9,26.5-68.5z" fill="#994820"/><path d="M18.6-146c0,3.5-0.1,7-0.1,10.6C21.1-138.9,21.1-142.4,18.6-146z" fill="#B05C32"/><path d="M16.3-115.5c-1.7,3.9-0.4,8-0.8,12c0.3,0,0.6,0,0.8,0C16.3-107.5,16.3-111.5,16.3-115.5z" fill="#BA683F"/><path d="M42.1-68.7c1.8,0,3.6,0.1,5.4,0.1c0-0.3,0-0.6,0-0.9C45.7-69.4,43.8-69.5,42.1-68.7z" fill="#A8562D"/><path d="M-64.4-20.6c-0.5,6-0.5,12-0.1,18c3.3-0.6,2.7-3.4,2.8-5.5c0.7-11.7,4.5-22,12.3-30.8      c8.2-6.4,21-4.6,27.6,3.7c6,7.6,9.3,15.8,7.7,25.9c-1.2,7.5-0.7,15.2-0.4,22.9c0.1,3,0.1,3,2.6,3.2c0.7-6.9,0.4-13.8,1.3-20.7      c0.2-1.7,0.7-3.2,1-4.8c0.6-5.6,0.2-11.3,1.6-16.9c0.5-2.1,0.2-4.2-1.7-5.4c-4.7-3-7.7-7.8-12.1-11.2      c-5.7-4.4-11.6-6.5-19.3-5.8c-6.5,0.6-10.8,3-14.7,7.6C-61.1-34.8-61.4-27.1-64.4-20.6z" fill="#D88258"/><path d="M-66.6-54.3c-0.3,3,0.5,5.9,1.2,8.7c2.7-0.6,1.7-3.1,2.5-4.6c0.1-0.5,0.2-1,0.2-1.4c0-1.7-0.6-3.3-0.9-5      c-0.1-0.5-0.2-0.9-0.3-1.4c-0.7-2.1-0.4-4.3-0.4-6.5c-0.2-2.3,0.8-4.4,1.6-6.5c2.3-15.9,5.2-31.7,8.2-47.5      c0.8-4,3.4-7.2,3.4-11.4c-1.2-1.9-2.1-0.6-2.9,0.3c-1,1.2-1,3.1-2.5,4c-3.2,14.9-6.6,29.9-9.7,44.8c-1.5,7-2,14.1-1.3,21.2      C-66.5-57.8-67.5-55.9-66.6-54.3z" fill="#C7744A"/><path d="M-66.5,140.5c1.5-1.7,0.2-4.4,2-6c1.7-2.3,0.5-4.7,0-7c-0.5-2.4-0.4-4.8-0.7-7.2      c-1.9-11.9-1-23.9-1-35.8c0-1.8,0.2-3.7-0.5-5.4c-0.6-1.4-1.4-2.5-2.7-0.5c-1,8.7-2,17.4-3,26.1c0.5,0.6,1.6,1.3,1.5,1.7      c-0.8,4.8,0.8,9.5,0.3,14.2c2.7,5,1.8,10.6,3,15.9C-67.2,137.7-67.9,139.4-66.5,140.5z" fill="#D98258"/><path d="M-63.5,121.5c1.5-1.3,1.3-3.2,0.9-4.7c-1.6-6.9-1-13.9-0.8-20.9c0.4-15.8-1-31.5-1.2-47.3      c0-2.6,3.2-5.8-0.7-8.1c-1,9.6-2,19.3-3,28.9c2.6,3.5,1.6,7.6,1.7,11.4c0.4,10.7-0.2,21.5,0.2,32.2      C-65.4,115.8-66.4,119.3-63.5,121.5z" fill="#DE885F"/><path d="M-64.4-20.6c5-5.4,4.4-13.4,8.9-19c2.7-4.5,1.5-10.1,3.6-14.8c0.7-1.6-0.6-3-2.5-2.7      c-2.2,0.3-4.3-0.2-6.4,0c-0.6,0.3-1.2,0.8-0.8,1.5c2.6,4.9,1.1,9.6-1,14.1c-1.1,2.4-0.1,4.9-1.1,7.2      C-64.3-29.8-64.6-25.2-64.4-20.6z" fill="#D57E54"/><path d="M-50.5-39.5c-7.9,9.2-12.1,19.9-12.4,32c0,1.9-0.4,3.5-1.6,5c0.1,3.7,0.1,7.3,0.2,11      c0.5,0.4,1,0.4,1.5,0.3c2.6-4.9,2.1-10.5,3.3-15.7c1.3-5.8,1-11.7,3.5-17.4c1.3-3.1,2.6-6,4.6-8.7c1.1-1.5,2.9-2.8,2.6-5.1      C-49.1-39-49.4-39.7-50.5-39.5z" fill="#DA845B"/><path d="M-65.5,113.5c0-13.8,0-27.7,0-41.5c0-1.5,1-4.9-2.8-2.6c-0.3,3-0.7,6-1,9c3.2-0.8,1.7,1.8,1.7,2.7      c0.1,8.4,0.1,16.7,0.1,25.1c0,4.8-0.2,9.6,1,14.3C-63.7,118.5-65.1,115.9-65.5,113.5z" fill="#DB855B"/><path d="M-56.3-125.5c2.9-0.4,2.3-4.2,4.8-5c2.8-0.8,4.7-3.3,7.4-4.3c1.6-0.8,3-0.8,4,1.1c0.5,1,1.4,1.7,2.7,1.7      c1.1-0.2,1.6-1,1.8-2c0.2-1,0.2-1.9-0.2-2.9c-0.2-0.5-0.5-0.8-1-1c-2.1,1-3.2-1-4.7-1.8c-6-1.9-8.8,2.5-12.1,6      C-54.4-130.9-55.4-128.2-56.3-125.5z" fill="#BD6A40"/><path d="M-63.6-34.4c3-2.5,1.6-6.6,3.5-9.8c0.8-1.3,2.3-4.4,1.2-7.6c-0.7-1.8-1.9-3.1-2.5-4.8      c0-0.7-0.2-1.3-0.6-1.8c-0.5-0.5-1.1-0.7-1.8-0.6c-0.6,0.3-1.1,0.7-0.6,1.4c0,0.3,0,0.7,0,1c0.4,1.6,2.1,3,1,5c0,0.3,0,0.7,0,1      c-1.1,2.9-0.2,6-0.9,9c0,0.4,0,0.7,0.1,1.1C-63.4-38.5-64.6-36.4-63.6-34.4L-63.6-34.4z" fill="#CF7A50"/><path d="M-21.5-147.6c-3.5-3-10-1.8-12.9,2.7c-1.2,1.8-2.6,3.8-2.2,6.4c3.3,0.8,3.6-3.2,5.9-3.9      c0.5-0.2,0.9-0.4,1.3-0.5c1.9-0.4,3.9-0.3,5.7-1.2C-22.1-144.8-20.3-145.3-21.5-147.6z" fill="#B66238"/><path d="M-63.5,8.5c-0.3,0-0.6,0-0.8,0c-0.1,8.6-0.2,17.2-0.3,25.8c0.1,0.6,0.1,1.3,0.2,2      c2.7-3.7,1.8-7.8,1.9-11.8c0.1-3.8-0.2-7.6,0.3-11.4C-61.9,11.4-62.1,9.7-63.5,8.5z" fill="#DE885F"/><path d="M-21.5-147.6c-0.6,2.8-3.1,2.4-5,3c-1.3,0.4-3-0.3-4.1,1c0.8,1,1.8,1.2,3,1.3c2.4,0,4.9,0.2,7.2-0.3      c1.3-0.4,2.3-1.2,3.2-2.2c1-1.1,2.1-2.2,2.4-3.8c0.1-0.8-0.2-1.5-0.7-2c-1,0.3-1.6,1-2,2c-0.9,0.7-1.8,1.2-3,0.9l-0.5,0.1      L-21.5-147.6z" fill="#BD6A41"/><path d="M-53.5-133.5c4.1-1.8,6.5-7.1,12.1-6C-47.6-141.6-50.9-139.9-53.5-133.5z" fill="#B76A44"/><path d="M-31.5-143.5c-2.3,1-2.5,4.2-5.1,5c-0.2,0.2-0.3,0.4-0.2,0.7c0,0,0.3,0.3,0.3,0.3      c0.6,0.5,1.3,0.7,2.1,0.6c2.1-0.8,3.1-2.5,3.6-4.6C-30.7-142.2-31-142.9-31.5-143.5z" fill="#C1724A"/><path d="M-64.4-41.6c1.8-2.8,0.5-6,0.9-9c-1.9,1.2-0.2,3.7-1.8,4.9C-65.9-44-64.7-42.9-64.4-41.6z" fill="#CB784F"/><path d="M-20.5-147.6c0.1,0.6,0,1.5,0.8,1.4c1.2-0.2,1.7-1.3,2.2-2.3c-1.5,0-2-1-2.1-2.3      C-20.6-150-20.5-148.8-20.5-147.6z" fill="#B36139"/><path d="M-63.6-34.4c-0.1-2,0.8-4.2-0.8-6C-64.3-38.4-64.6-36.3-63.6-34.4z" fill="#D57E54"/><path d="M-66.6-54.3c-0.1-1.8,0.7-3.6-0.8-5.2C-67.5-57.7-67.6-55.9-66.6-54.3z" fill="#CB784F"/><path d="M75.4-68.5c-4.5,0.5-8.6,2.8-12.9,4C67.3-64.3,71.9-64.7,75.4-68.5z" fill="#DB8B64"/><path d="M39.5-57.5c-1.7,0-3.3,0-5,0c-0.6,0.7-0.6,1.3,0,2c0,0,0,0,0,0C36.4-55.5,38.5-55.2,39.5-57.5z" fill="#D98358"/><path d="M-15.5-150.5c0,0.7,0,1.3,0,2c1.8,0.7,2.9-0.9,4.4-1.1c6.7,0.1,7.1,0.7,5.7,8.1      c-0.1,0.5-0.2,0.9-0.3,1.4c-0.1,2-0.8,3.8-1.1,5.8c-0.2,1.5-0.6,3.3,1.3,3.7c1.9,0.5,2.1-1.5,2.8-2.7c0.5-1.7,0.8-3.4,1.4-5.1      c2.2-6.4,5.7-8.4,12-6.6c2.4,0.7,3.4,2.3,3.6,4.7c0.1,2.1-0.3,4.3,0.8,6.3c0.2,0.2,0.4,0.3,0.5,0.5c0.8-0.4,1-1.2,1-2      c0.8-3.3,0.8-6.7,0-10c-5.3-3-10.4-6.6-16.8-2.9c-1.4,0.8-1.7,0.1-1.1-3.1c-1.7-0.9-3.4-1.9-5.1-2.8      C-9.6-153-12.5-151.8-15.5-150.5z" fill="#C36E44"/><path d="M-12.5,49.5c0.7,1,1.3,2,2,3c2.2-2.9,0-5.7,0-8.6c-0.6-1.7-0.7-3.6-1.1-5.4c-0.6-1.8-0.5-3.6-0.7-5.5      c-1.6-4.4-1-9.3-3.2-13.5c-1.4-5.3-1.8-10.6-2-16c-0.4-10.5-2.2-20.7-6.7-30.3c-2.6-5.6-6.4-10.3-13.6-9.6      c-7.3,0.7-10.5,6.2-13.4,11.9c-4.1,7.8-4.7,16.7-5.6,25.1c-1.2,11-3.6,21.9-3.5,33c2.7-0.2,1.9-2.5,2.4-4.1      c0.7-2.3,0.8-4.8,1.3-7.2c0.2-0.5,0.3-1,0.4-1.5c1.6-5.9,0.5-12.2,2.5-18c2.4-10.1,3-20.7,9.1-29.7c2.1-3,4.3-5.7,8.4-4.9      c4.1,0.7,6.9,3.2,8.2,7.1c3.8,10.6,6.7,21.4,7.4,32.7c0.3,4.6,2.3,8.9,2.2,13.6C-15.9,30.7-14.3,40.1-12.5,49.5z" fill="#E09069"/><path d="M-57.5,21.5c-2.1,3.7-0.9,8.3-3,12c-2.8,5.7-1.7,11.9-1.9,17.8c-0.7,21.3,1.4,42.5,1,63.8      c-0.2,11.7,1.8,23.2,3.8,34.7c0.2,1.5,0.1,3,0.1,4.5c1,0,2,0.1,3,0.1c2.6-4.5,1-9.3,0.1-13.6c-3.1-14.6-3.3-29.3-3.7-44      c-0.4-15.6,0.3-31.2-1.1-46.7c-0.1-1.6,1.1-2.8,1-4.3c-0.2-5.3,0.7-10.5,1.7-15.8C-56,27.2-55.3,24.1-57.5,21.5z" fill="#E29169"/><path d="M-63.5,8.5c0.5,5.3-1.1,10.8,1,16c0.9-5.1,2.7-10.3,2.4-15.4c-0.3-6.4,0.7-12.5,2-18.5      c1.2-5.4,0.8-11.1,3.7-16.1c1.8-3.1,2.9-6.6,5.9-9c0.8-1.8,2.6-2.1,4-3c5-3.3,10-2.2,15,0c1.1,0.7,2.1,0.9,3.2,0      c0.2-1.9-1.1-2.6-2.5-3.3c-5.6-3.3-16.5-2.1-20.7,2.3c0.1,1.5-0.9,2.5-1.8,3.5c-7.4,8.2-8.2,18.4-9.3,28.6      C-61.1-1.4-61.9,3.6-63.5,8.5z" fill="#DB875F"/><path d="M-26.5-37.5c-1,0-2,0-3,0c9,8,11.2,18.6,12.2,30.1c0.8,9,1.6,17.9,1.8,26.9c-0.5,4.8,0.7,9.4,2,14      c1.2,1.5-0.2,3.5,1,5c0.2,1.7-0.7,3.6,1,5c0.6,0.3,1.1,0.2,1.4-0.4c-0.5-8.7-0.6-17.5-3.8-25.9c-0.4-1.1-0.2-2.3-0.2-3.5      c0.4-8.6-0.3-17.3-0.2-25.9c0.1-8.1-2.8-15.7-7.5-22.4C-22.8-36.3-24.1-38-26.5-37.5z" fill="#DC8960"/><path d="M-65.5,113.5c-0.4,2.3,0.9,4.9-1,7c-0.4,4.8,1.6,9.3,2,14c0.1,2.2,0.5,4.3,2,6c0.8-2.7,0.8-5.3,0-8      c-0.3-3.7-0.7-7.3-1-11C-64.7,119-63.8,115.9-65.5,113.5z" fill="#DC875D"/><path d="M-62.5,132.5c0,2.7,0,5.3,0,8c0,1,0,2,0,3c1.6,0.9,0.4,3.1,2,4C-60.4,142.4-60.7,137.3-62.5,132.5z" fill="#DE885F"/><path d="M-44.5-37.5c-2.2-0.1-3.9,0.4-4,3C-47-35.4-45.2-35.7-44.5-37.5z" fill="#DC8960"/><path d="M-18.5,101.5c2-2.3,0.9-5.1,0.9-7.6c0.2-7.1,0.1-14.2,0.1-21.4c0-1,0-2,0-3c-1.3-5.4-0.1-11-1.3-16.5      c-0.7-3.1-1.1-6.3-1.7-9.5c0.1-4.5-2.4-8.1-4-12c-1.6-2.1-2.8-4.4-4.9-6.1c-5.2-4.2-13.8-2.5-16.1,3.1c-0.9,3.2-4.1,5.4-4,9      c3,0,3.4-2.7,4.7-4.5c4.5-6,10.2-6.4,15.5-1c3.3,3.4,5.7,7.3,5.9,12.3c1.3,4.7,1.7,9.5,1.7,14.4c0.1,0.6,0.2,1.2,0.4,1.7      c0.4,11.5,1.8,23,1.4,34.5C-19.9,97.2-20.4,99.6-18.5,101.5z" fill="#EEB090"/><path d="M-49.5,16.5c1,4-2.8,7.1-2,11c-0.6,0.7-0.6,1.3,0,2c0.8-0.4,1-1.2,1-2c2-3.1,3.1-6.7,5.8-9.6      c4.7-5,9.7-5.5,14.7-0.7c1.7,1.6,3.1,3.4,4.5,5.3c3.3,4.1,3.1,9.7,6,14c0.3,0.5,0.7,0.5,1,0c-2-6-4-12-6-18      c-1-4.5-2.7-8.2-7.6-10.1C-39.1,5.6-47.1,9-49.5,16.5z" fill="#E9A380"/><path d="M-25.5,22.5c-4-9.4-8.2-12.4-16-8.7c-5,2.4-8.2,7.7-9,13.7c3.7-1.2,2.8-5.5,5.5-7.8      c4.9-4.2,11.4-4.7,16.1-0.1C-27.8,20.6-26.6,21.5-25.5,22.5z" fill="#EAA683"/><path d="M-45.5,28.5c6-5.8,11.6-5.8,17.3-0.2c1.2,1.1,2.5,2.1,3.7,3.2c-0.3-7.4-6.8-9-11.6-11.7      c-2.7-1.5-9.4,4.1-11.4,8.7C-46.8,28.5-46.2,28.5-45.5,28.5z" fill="#EDAD8C"/><path d="M-55.5,54.5c-1.1,0.8-1.1,2-1,3.2c2.1,16,0.4,32.1,1,48.2c0.1,1.6-0.5,3.4,1,4.7      C-55,91.8-53.4,73.1-55.5,54.5z" fill="#EAA27F"/><path d="M-51.5,29.5c0-0.7,0-1.3,0-2c-3.7,8-4.4,16.4-4,25c2-5.6,0.4-11.7,2.9-17.2      C-51.8,33.5-51.8,31.4-51.5,29.5z" fill="#EAA27F"/><path d="M-20.5,43.5c1,8.7,2,17.3,3,26C-17.5,60.7-17.1,51.9-20.5,43.5z" fill="#F0AE8E"/><path d="M-18.5,36.5c-0.3,0-0.7,0-1,0c0.8,5,0.9,10.2,3,15C-16.3,46.4-17.9,41.5-18.5,36.5z" fill="#ECA380"/><path d="M-26.5-37.5c7.6,6.1,10.2,14.9,10.8,23.7c1.3,18.3,1.3,36.7,5.2,54.8c0.2,0.8,0,1.7,0,2.5      c0,6.2,0.8,12.2,3,18c0.3,0,0.7,0,1,0c2.1-2.3,0-4.7,0-7c-0.1-4.1-1.2-8-2-12c-1.7-2.9-0.8-6-1-9c-1.8-5.2-0.3-11-3-16      c-2.1-6.1-0.8-12.4-0.9-18.6c-0.1-5.7,1.5-11.6,0.7-17.1C-15-34.4-28.5-49.7-47.5-42c-1.2,0.5-2.4,1.1-3,2.5      c0.3,0.3,0.7,0.7,1,1C-40.2-43.1-31.9-42.7-26.5-37.5z" fill="#D9845C"/><path d="M-8.5,42.5c0.7,6.3,1.3,12.7,2,19c0,0.7,0,1.3,0,2c1.2,1.5-0.2,3.5,1,5c-0.2,6.5,3.9,12.4,3,19      c1,0.3,2,0.7,3,1c0.5-5.8-2.1-11-3-16.6c-1.5-9.1-3.3-18.2-5-27.3C-7.6,43.9-8.2,43.2-8.5,42.5z" fill="#D67F55"/><path d="M-12.5,17.5c1.7,5.2-0.1,11.1,3,16c0-7.6-1.1-15.1-1.2-22.7c-0.1-8.4,1.5-16.3,3.2-24.3c0,0,0,0,0,0      c-3.4-0.5-1.8,2.8-3,4C-11.9-0.6-12.6,8.4-12.5,17.5z" fill="#D27C52"/><path d="M-57.5,21.5c0.8,8.1-2.8,15.9-2,24c3.6-1,1.1-4.4,2.4-6.3c2.2-10.3,3.3-20.8,5.8-31      c0.6-11.4,3.2-22.2,9.9-31.7c2.9-4.1,5-4.3,8-0.2c7.6,10.3,10,22.2,10.5,34.7c0.9,1.5-0.3,4,2.3,4.6c1.8,1.6,0.5,4.3,2,6      c1.2-6.1-1.4-11.9-1.4-17.8c0-6.9-1.8-13.5-3.9-19.8c-1.8-5.4-1.8-12.1-8-15.7c-5.2-3-10-2.4-13.3,2.7      c-3.5,5.4-6.8,11.3-7.1,17.8c-0.2,4.8-4.4,8.8-2.3,13.8C-56.2,8.7-55.4,15.3-57.5,21.5L-57.5,21.5z" fill="#E39570"/><path d="M-20.5,15.5c-1.7-1.4-0.8-3.3-1-5C-23.3,5.2-23-0.7-25.6-5.8c-1.9-1.9-3.1-4.3-4.7-6.4      C-34.7-18-40.6-18-44.5-12c-2.7,4.1-5.7,8.2-6.1,13.4c-0.2,0.5-0.3,1-0.3,1.5c0.2,1.2,0.5,2.5,2,2.8c2.1-1,2.1-3.2,2.7-5      c1.7-5.2,4.5-7.7,8.9-7.9c4.9-0.2,6.9,3.1,8.6,6.9c1.1,2.4,1.1,5.1,1.9,7.6c0.4,1.6,0.8,3.3,1.8,4.7c0.2,0.2,0.4,0.3,0.6,0.5      c3.4,2.1,1.6,6.5,4,9C-20.5,19.5-20.5,17.5-20.5,15.5z" fill="#E59B76"/><path d="M-22.5,43.5c-0.5-8-5.9-14.3-13.2-16.3c-3.9-1.1-6.3,0.6-8.5,3.2c-1.9,2.2-3.5,4.7-5.2,7.1      c-1.1,5.2-2.1,10.3-2,15.7c0.1,17.9,0,35.9,0,53.8c0,4.3,0.7,8.4,2,12.5c0,0,0,0,0,0c1.5-1.7,1.3-3.8,1.4-5.8      c-1.4-18.9-1.1-37.7-0.9-56.6c0.1-6.8,0.8-13.5,4.5-19.6c3.7-6.1,12.5-6.4,16.4-0.3c1.4,2.2,1.9,5,4.1,6.7      C-23.5,44-23,43.9-22.5,43.5z" fill="#F2B394"/><path d="M-49.5,16.5c2.4-1,2.5-3.8,4.9-5.2c8.7-4.9,13.9-3.6,18.6,5.2c0.4,0.7,1,1.3,1.4,2c0.8-2,0-4,0-6      c0,0,0,0,0,0c-2.4-3.9-3.8-8.5-8.7-10.1c-7.5-2.5-10.5-1.3-15.2,5.8C-49.7,10.8-51.9,13.4-49.5,16.5L-49.5,16.5z" fill="#E8A07D"/><path d="M-7.5,61.5c-1-6-2-12-3-18c-0.3,0-0.7,0-1,0c0.3,3,0.7,6,1,9c1.6,17.6,3.3,35.3,3,53      c0.1,2.4-0.4,4.8,1,7c0.9,0.2,1.4,0.1,1-1c0.3-8.4,1.8-16.9,0.4-25C-6.5,78.1-7.1,69.8-7.5,61.5z" fill="#DF8A62"/><path d="M-5.5,111.5c-0.3,0.3-0.7,0.7-1,1c0.1,10.2-0.3,20.3-1.9,30.4c-0.3,1.9-0.2,3.7,1.9,4.6      C-2.9,135.5-4.5,123.5-5.5,111.5z" fill="#E08960"/><path d="M-5.5,68.5c-0.2-1.7,0.7-3.6-1-5C-6.3,65.2-7.2,67.1-5.5,68.5z" fill="#D9845C"/><path d="M-57.5,39.5c-2.1,1.5,0.1,4.5-2,6c-1.1,4.3,0.1,8.5,0.1,12.8c-0.2,13.5-0.3,27,0,40.4      c0.3,14,0.4,28.1,3.7,41.9c1.1,4.4,0.9,9.2,1.2,13.8c2.8,0.2,4.2,0,3.4-3.8c-4.5-20.7-5.4-41.6-5.7-62.8      c-0.2-12.5,0.6-25.2-1.4-37.7c-0.1-0.5,0.5-1.1,0.8-1.7C-56.7,45.5-56.7,42.5-57.5,39.5z" fill="#E79873"/><path d="M-49.5,16.5c-0.8-3,1.2-5.4,2-8c0.7-2.2,2-4.1,2.9-6.2c1.4-3.3,4.3-4.3,7.6-4.5c3.1-0.2,4.6,1.8,6.2,4.2      c1.4,2.1,1.3,5.8,5.3,5.5c-1-3.3-1.3-6.7-2.9-10c-2.1-4.3-5-6.5-9.8-6c-4.9,0.5-7.7,3.7-9.1,8c-0.7,2-0.7,4.2-2.2,5.9      c-0.5,0.2-1.1,0.3-1.2,0.7c-2.2,7.3-4.9,14.4-3.8,22.3C-52.1,24.8-52.5,19.9-49.5,16.5z" fill="#E69D78"/><path d="M-54.5,28.5c0.7-7.9,2-15.6,5-23c-0.3-1-0.7-2-1-3c-3.2,0.7-0.3,3.7-2,5c-2.6,10.5-3.8,21.3-5,32      c0,3,0,6,0,9C-56.5,41.8-55.5,35.1-54.5,28.5z" fill="#E59974"/><path d="M-23.5,43.5c-1.6-1.4-1.7-3.6-2.4-5.3C-28.6,31-35.6,29-42.7,33c-4.6,2.6-6.1,8.5-6.7,13.7      c-1.8,15.8-0.9,31.7-0.7,47.6c0.1,6.4,1.1,12.8,0.6,19.2c1.3,1.8-0.3,4.2,1,6c0.7,3,1.3,6,2,9c1.9,3,3.4,6.3,6,8.8      c1.2,1.2,2.3,2.4,4.1,1.3c0.4-1.8-0.9-3-1.7-4.3c-6.9-7.8-8.6-17.4-9.1-27.3c-0.4-10.1,0.4-20.2-0.9-30.4      c-1.1-9.1,1-18.2,1.1-27.3c0-3.7,2-7.1,4.2-9.9c4.6-5.8,12.3-3.9,15.7,3.8c0.8,1.9,0.7,4.4,3.7,4.5      C-22.3,46.1-22.7,44.8-23.5,43.5z" fill="#F1B79B"/><path d="M-36.5,138.5c-3.5-0.8-5.2-3.6-7.1-6.2c-0.9-1.3-1.2-3.1-2.9-3.8c1.7,6.3,6.2,10.9,10.1,15.8      c1.9,2.4,5.6,2.1,6.8-0.5c2.9-6.2,7.8-11.7,7.1-19.3c-0.2-0.1-0.5-0.1-0.7-0.2c-3.2,1.7-3,5.2-4.4,7.9      C-29.3,137.8-31,139-36.5,138.5z" fill="#F3B598"/><path d="M-18.5,101.5c0.7-13-1-25.9-1-38.8c0-1.2,0.1-2.4-1-3.2c-2.9,5.1-0.8,10.7-1.4,16      c-0.2,14.3,0.9,28.7-1.8,42.9c-0.4,2-0.5,4.3,1.2,6.1c0,0,0,0,0,0c2.2-3.3,1-7.6,3-11C-19.2,109.5-18.8,105.5-18.5,101.5z" fill="#F3B598"/><path d="M-48.5,119.5c-0.3-2,0.8-4.2-1-6c0,2,0,4,0,6C-49.2,119.5-48.8,119.5-48.5,119.5z" fill="#F3B598"/><path d="M-10.5-9.5c1.4-1,0.9-3.5,3-4c1-5.1,1.3-5.3,7-3c-1-4.2-3-8.1-1.7-12.8c2.7-9.8,8.7-16.8,17.5-21.6      c2.3-1.3,4.8-2.4,7.1-3.6c-1.7-3.7-4.7-2.1-7-1.2C8.5-53.1,2.3-49-1.3-42.3c-2.2,3.9-5.8,4-9.2,4.8c-1.1,0.2-2.1-0.2-2.6-1.1      c-2.8-4.9-7.6-7.3-12-10.3c7.7-6.7,15.5-1.5,23-0.2c2.6,0.4,4.4,0.7,6.3-1.1c0.4-0.3,0.7-0.8,1.1-1c9.5-3.1,7.4-10.4,6.3-17.3      c0-0.8-0.2-1.6-1-2c-0.9-0.3-1.3,0.2-1.6,0.9c-0.1,0.5-0.1,0.9,0,1.4c0.5,8.8-6.3,14.3-15.9,12.9c-1.2-0.4-2.5-1-3.8-1.3      c-1.5-0.2-2.7-1.1-3.9-2c-0.4-0.2-0.8-0.3-1.2-0.4c-1.5,0.2-2.7,1.2-4.2,1.3c-0.9,0.1-1.7,0.3-2.5,0.7c-0.4,0.2-0.8,0.4-1.2,0.6      c-3.2,1-6.2,1-8.5-1.9c-2.3-2.7-4.4-3.3-7.2-0.2c-2.5,2.8-6,2-9.1,0.7c-1.7-0.7-3.2-1.8-5-1.8c-2.9,1.2-6.2,0.4-9.1,2      c0.3,0.3,0.7,0.7,1,1c0.8,0.2,1.7,0.7,2.4,0.6c7.8-1.5,5.7,3.1,4.5,7.1c-0.9,3-0.6,6.2-0.9,9.3c0.6-0.2,1.7-0.2,1.8-0.6      c3.7-8.5,12-5.6,18.3-6.9c3.8-0.8,8.1,2.2,11.6,4.7c5.1,3.6,8,9.6,13.8,12.5c1.3,0.7,1.2,2.4,0.7,4C-10.7-20.5-10.6-15-10.5-9.5      z" fill="#D68055"/><path d="M11.5-68.5c0.7,3.7-2.1,7.5,0.3,11.2c0.2,0.2-0.4,1.4-0.9,1.5c-3.7,1.3-6.7,3.4-9.4,6.2      c-0.3,0.3-1.5,0.4-1.8,0.1c-4.1-3.8-10-1.1-14.5-3.9c-2.4-1.5-5.1-0.9-7.2,1.3c-0.6,0.7-1.7,1-2.6,1.3c-1.1,0.3-2.8-1.6-3.4,0.3      c-0.5,1.6,1.4,2.3,2.6,3.2c4.3,2.9,9.5,5,11.4,10.6c0.2,0.5,1.2,1.2,1.5,1.1c3.5-1.7,8.4,0.6,11-4.2c3.7-7,9.7-11.6,17-14.6      c2.3-1,4.7-1.8,7,0c2.3-0.3,4.7-0.7,7-1c0.3-0.2,0.4-0.4,0.3-0.7c-0.1-0.2-0.2-0.3-0.3-0.3c-2.8,0-5.5-0.2-8.2-0.8      C14.9-58.6,12.9-63.2,11.5-68.5z" fill="#D57F54"/><path d="M29.5-56.5c0,0.3,0,0.7,0,1c1.7,0,3.3,0,5,0c0-0.7,0-1.3,0-2C32.8-57.2,31.2-56.9,29.5-56.5z" fill="#D68055"/><path d="M13.5-36.5c0.2,0.9-1,2.4,0.1,2.7c1.7,0.4,3.5-0.4,4.9-1.7c-2.1-0.3-2.1-1.2-0.9-2.6      c1.3-1.5,2.6-2.9,3.9-4.4c-1,0.3-2,0.7-3,1C17.7-39,14.5-38.8,13.5-36.5z" fill="#F0B192"/><path d="M8.5-94.5c1-7,2-14,3-21c1.1-0.6,1.9-1.6,1.9-2.7c0.1-5.1,2.2-9.9,1.6-15c-0.1-1.1,0.2-2.3-0.3-3.3      c-2.2-0.1-2.2,1.6-2.4,3c-0.3,2.5-1.3,4.7-1.9,7.1c-2.4,10.2-2.1,20.8-5.1,30.8c-0.1,0.6-0.1,1.3-0.2,1.9      c-0.9,6.8-1.7,7.1-7.7,3.7c-1-0.6-2-1.2-3.2-0.5c-1,1.3-1.2,2.9-0.5,4.2c2.2,4.5-0.1,7.1-3.6,9.4c-0.9,0.6-2.2,1-1.6,2.6      c0.8,0.7,2,1.1,2.8,0.6c5.4-3.2,10.9-1.5,16.4-0.3c1.9-0.7,0.9-2.2,0.6-3.2c-0.5-1.6-0.8-3.1,0-4.7C8.4-86.1,8.6-90.3,8.5-94.5z      " fill="#D78157"/><path d="M14.5-133.5c-1,6-2,12-3,18c-0.3,6.5-0.1,12.9-0.8,19.4c-1,9.1,0.6,18.2,3.8,26.9      c2.1,5.8,9.7,11.1,16,10.6c7.2-0.6,14.4-2.1,21.5-3.3c0.9-0.1,1.6-1.1,2.4-1.6c-4.7,0.7-9.5,1.4-14.2,2.2      c-16.8,3.1-24.2-4.8-26.8-19.4c-0.6-3.2-0.7-6.6-1.1-9.8c1.1-5.7,1.3-11.5,1.4-17.3c0.1-6.7,0.1-13.3,1.8-19.8      c0.3-1.3,0.5-2.6-0.3-3.9c0-0.7,0-1.3,0-2c0,0,0,0,0,0C15.1-134,14.8-134,14.5-133.5z" fill="#C4734C"/><path d="M8.5-74.5c-6.7-3.6-13.3-2.5-20,0c-0.8-0.9-1.6-0.5-2.4,0c-1,0.9-2.1,1.5-3.5,1.8      c-0.9,0.3-1.8,0.5-2.3,1.4c1,2.6,3.2,2.1,5,1.5c3.2-1.3,6.4-1.4,9.7-0.7c1,0.2,2.1,0.2,2.9-0.2c4.1-1.7,8-1.6,11.6,1.2      c0.3-0.3,0.7-0.7,1-1c0-0.3,0-0.7,0-1C9.6-72.4,9.6-73.8,8.5-74.5z" fill="#D9835A"/><path d="M8.5-94.5c-1.6,4.2-1.5,8.6-1,13c-1,2.1-0.8,3.7,2,4C9-83.2,10.6-89,8.5-94.5z" fill="#D57F54"/><path d="M9.5-77.5c-1.8-0.8-2.1-2.3-2-4c-3.4,2.9,0.8,4.6,1,7c0,1.4,0.7,2.4,2,3C10.2-73.5,9.8-75.5,9.5-77.5z" fill="#D68055"/><path d="M15.5-131.5c-2.5,13.6-2.4,27.3-3,41c1.9-1.2,0.1-3.8,2-5c-0.2-11.4-0.1-22.8,2-34      C16.5-130.3,16.3-131.1,15.5-131.5z" fill="#BA683F"/><path d="M42.5-66.5c-4.7,0-9.3,0-14,0C33.2-64.9,37.8-64.9,42.5-66.5z" fill="#A6552C"/><path d="M26.5-68.5c-0.7,0-1.3,0-2,0c0.8,1.8,2.3,2.1,4,2C27.8-67.2,27.2-67.9,26.5-68.5z" fill="#A6552C"/><path d="M16.5-145.5c0,3.3,0,6.7,0,10C18.1-138.9,18.1-142.2,16.5-145.5z" fill="#BE6B42"/><path d="M-44.5-135.5c-2.9,0.9-5.4,2.4-7,5c-7.2,19.4-9.4,39.7-12,60c0.3,0.1,0.5,0.1,0.8,0.2      c4-1.6,4.9-5.3,4.3-8.6c-1.6-8.7,1.2-16.7,2.7-24.9c0.9-5.2,2.2-10.3,3-15.5c1.3-2.6,1.7-5.6,3.1-8.2c2.7-5,3.8-5.3,8.2-1.8      c0.4,0.3,0.9,0.3,1.4,0.3c0.5-0.2,0.9-0.5,1.1-1C-39.6-133.1-39-137.5-44.5-135.5z" fill="#CD784E"/><path d="M-63.5-70.5c-1.9,1.6-2.1,3.8-2,6c0.4,0.4,0.9,0.4,1.4,0.1c1.1-0.8,1.6-2,1.7-3.3      C-62.4-68.8-62.7-69.8-63.5-70.5L-63.5-70.5z" fill="#CD784E"/><path d="M-64.5-64.5c-0.3,0-0.7,0-1,0c0.4,2.3-0.9,4.9,1,7c0.3-0.3,0.7-0.7,1-1c0.3-0.4,0.5-0.8,0.5-1.3      C-63.3-61.5-63.1-63.3-64.5-64.5z" fill="#D57E54"/><path d="M-63.5-51.5c2.1-2.1,0.1-3.5-1-5C-64.2-54.9-63.8-53.2-63.5-51.5z" fill="#CB784F"/><path d="M-44.5-135.5c4.7-0.5,4.6,2.9,5,6c-0.6,0.5-0.6,1.2-0.3,1.8c0.3,0.3,0.7,0.5,1.2,0.4      c0.9-0.5,1.3-1.3,1.6-2.1c0.2-0.4,0.2-0.9,0.3-1.3c0-0.7-0.2-1.3-0.8-1.8C-39.9-133.4-39.9-139.9-44.5-135.5z" fill="#C67248"/><path d="M-34.5-137.5c-0.7,0-1.3,0-2,0c0,1,0,2,0,2.9c0.4,0.4,0.9,0.5,1.5,0.4      C-33.6-135.1-33.5-136.2-34.5-137.5z" fill="#C67248"/><path d="M-35.5-134.5c-0.3,0-0.7,0-1,0c0,0.8-0.2,1.6-1,2c0,0.7,0,1.4,0,2C-34.6-130.7-34.2-132.2-35.5-134.5z" fill="#C8744A"/><path d="M-63.5-59.5c0,0.3,0,0.7,0,1c0.3,0.3,0.7,0.7,1,1c3.1,0.2,6.2,0.9,9-1c2-1.7,3.2-0.1,4.6,1      c2.5,2,5.1,2.8,7.5-0.2c-1-1-2.4-0.9-3.7-1.4c-1.6-0.6-2.1-2-2-3.6c0-1.5,0.8-2.4,2.1-3c1.6-0.7,2.8-0.1,4,1      c1.4,1.2,0.9,3.6,2.9,4.4c2.6-1,2.9-2.9,2.1-5.2c-2.1-5.6-8.7-7.5-13.6-4c-0.9,1.2-1.7,2.7-3.5,1.3c-2.6-1.9-5.1-2.9-7.9-0.2      C-63.7-65.8-64.8-63-63.5-59.5z" fill="#DF8C64"/><path d="M-31.5-143.5c0,0.7,0,1.3,0,2c1.7,1.6,4.5,1.1,6.1,3c4.1,4.3,4.1,4.3,7.7-2.9c0.5-1.4,1.4-2.7,0.2-4.2      c-1,0.4-1.6,1.1-2,2c-2.7,2-5.3,0.7-8,0c-1,0-2,0-3,0C-30.8-143.5-31.2-143.5-31.5-143.5z" fill="#CA774E"/><path d="M-17.5-145.5c-0.3,1.3-0.7,2.7-1,4c0.2,0.1,0.4,0.2,0.7,0.2c1.3-0.2,2.1-1.1,2.5-2.1      c1.6-4.2,4.3-4.6,7.9-2.5c0.5-0.1,0.9-0.3,1.3-0.6c0.3-0.7,0.3-1.4,0-2.2c-1.6-1.1-3-2.8-5.3-1.8c-1.7-0.1-2.6,1.4-4,2      C-16.2-147.5-16.8-146.5-17.5-145.5z" fill="#D28058"/><path d="M-27.5-143.5c2.7,0.5,5.3,5.2,8,0C-22.2-143.5-24.8-143.5-27.5-143.5z" fill="#C26F46"/><path d="M-24.5-139.5c-2-1.8-4.4-2.3-7-2c-1,1.3-2,2.7-3,4c-0.1,1.1,0.1,2.3-1,3c0.1,1.7-0.2,3.2-2,4      c0,0.3,0,0.6,0,0.9c0,0.3,0,0.6,0,0.8c-1.3,11.2-2.8,22.4-5.9,33.3c-0.3,1.1-0.5,2.3-0.8,3.4c-0.8,3.2-1.3,6.7,2.2,8.4      c3.6,1.9,5.2-1.4,7.1-3.7c3-7.5,5.1-15.3,6.1-23.3c0.4-3.6,1.8-7,3.3-10.3C-24-127-21.6-133.1-24.5-139.5z" fill="#E09068"/><path d="M-13.5-73.5c0.4-0.8,1.2-1,2-1c1.2-1.4,3.1-1.5,4.5-2.8c2.4-2.5,4.6-4.6,2.1-8.4      c-0.8-1.2-0.4-3.2-0.6-4.8c-0.2-1.7-0.9-3.4-0.7-5.2c-0.2-4,0.6-7.9,2-11.6c2.6-6.8,2.1-14,2.9-21c0.4-3.4,2.7-6.5,1.1-10.1      c-0.7-0.7-1.5-0.8-2.3-0.1c-1,1.5-1.1,3.2-1,5c-3.1,7.3-5.8,14.8-7,22.7c-0.2,1.1-0.3,2.1-0.3,3.2c0,1.1,0,2.1,0,3.2      c0.2,6.4-0.5,12.9,1.8,19.1c1.2,3.3,0.1,6.1-3.3,7.8c-1.6,0.8-3.3,1.6-3.3,3.9C-15-72.9-14.2-73-13.5-73.5z" fill="#D78156"/><path d="M-2.5-138.5c0.7,0,1.3,0,2,0c2.4-0.4,3.5-2.9,5.6-3.7c1.8-0.6,3.6-1.6,5.6-0.2c2.1,1.4,1.9,4.3,3.8,5.9      c0,1,0,2,0,3c0.3,0,0.6,0,1,0c0-0.8,0-1.7,0-2.5c0-9.9-3.6-12.9-13.3-10.3C-1.4-145.4-1.8-141.7-2.5-138.5z" fill="#D37E54"/><path d="M-9.5-110.5c1.3-7.8,5.2-15,6-23c-0.5,0.8-1.1,1.6-1.9,2.7c-1.2-3.6,1.5-6.6,0.9-9.7      c-2.6,0.2-2.7,2.5-3.1,4.3c-1.3,5.2-2.4,10.5-3.1,15.8c-0.1,1.9,0.2,3.9-1,5.6c-0.2,0.5-0.2,0.9-0.2,1.4      C-11.5-112.2-11.7-110.3-9.5-110.5z" fill="#C97449"/><path d="M-11.5-113.5c0-0.3,0-0.7,0-1c2.3-1,0.8-3.5,2-5c1.2-7.1,1.7-14.4,5-21c0-0.3,0-0.7,0-1      c0.1-2.6,2.4-5.7-2-7c0,0.7,0,1.3,0,2c-2.6,8.6-4.2,17.5-6.3,26.2c-0.8,3.2-1.3,6.5-1.9,9.7c-0.2,2-0.5,4,0.8,5.8      c3.9-0.4,2.2-3.6,2.9-5.6C-11.1-111.4-10.7-112.6-11.5-113.5z" fill="#D67F54"/><path d="M-6.5-148.5c3.1,1.6,1.6,4.6,2,7c1.7-2.7,1.9-6.2,0.1-8.2c-1.1-1.3-4.5-2.6-7.1-0.8      C-9.8-149.9-8.2-149.2-6.5-148.5z" fill="#C97449"/><path d="M-57.5,21.5c2.7-6.1,3.1-12.5,3-19C-57.9,8.4-56,15.2-57.5,21.5z" fill="#E29169"/><path d="M-12.5,38.5c-0.2-1.7,0.7-3.6-1-5C-13.3,35.2-14.2,37.1-12.5,38.5z" fill="#DF8A62"/><path d="M-20.5,75.5c0-5.3,0-10.7,0-16c0-0.3,0-0.7,0-1c-1-1.5-0.3-3.2-0.5-4.8c-0.1-1.1,0.3-2.5-1.6-2.3      c-2,2.9-1,6.1-1,9.2c0.1,0.6,0.2,1.1,0.4,1.7c0.8,3,0.2,6.1,0.5,9.2C-22.6,73-23.2,75.2-20.5,75.5z" fill="#F1B79B"/><path d="M-22.5,51.5c2.3,1.9-0.3,5.1,2,7c0.2-5.1-0.2-10.2-2-15c-0.3,0-0.7,0-1,0c0,1.3,0,2.7,0,4      C-24.7,49.2-24.4,50.5-22.5,51.5z" fill="#F3B598"/><path d="M-52.5,7.5c1.9-1.2,0.1-3.8,2-5h0C-50-3.1-47-7.7-44.9-12.7c1.3-3.1,3.6-5.6,7.5-5.6      c3.7,0,5.6,2.3,7.2,5.2c1.4,2.4,2.6,4.9,3.7,7.5c2.7,5,1.8,11.2,5,16c-0.7-12.3-2.9-24.2-10.3-34.6C-36-30-38.5-29.9-42.6-24      C-49.3-14.5-51.7-3.8-52.5,7.5z" fill="#E49872"/><path d="M-25.5,7.5c-2.9-1.1-3-4.1-4.2-6.4c-1.9-3.6-4.5-5.3-8.7-4.6c-4.2,0.6-6.9,2.7-8.1,6.7      c-0.5,1.7-0.7,3.5-1,5.3c3.2-5.3,7.5-7.1,13.7-5.1c3.8,1.2,4.8,4.6,7.1,7c0.7,0.7,0.8,2.1,2.3,2.1C-24.8,10.8-25.2,9.1-25.5,7.5      z" fill="#E89E7A"/><path d="M-26.5-5.5c0.2-7.1-5.4-13.9-11.3-14.1c-3.6-0.1-5.8,1.9-7.1,4.4c-2.8,5.5-5.8,11.1-5.5,17.7      c1.8-4.6,3.9-9,6.5-13.2c4.1-6.5,9.5-6.4,13.5,0.3C-29.4-8.6-28.7-6.5-26.5-5.5z" fill="#E59974"/><path d="M-22.5,51.5c-0.7-1.2-1.2-2.5-1-4c-2.6-2.1-1.9-5.8-4.1-8.3c-2.4-2.8-4.9-5.1-8.8-4.6      c-4.2,0.5-7.5,2.4-9.1,6.6c-4.8,12.4-4.6,25.4-3.6,38.2c0.7,8.3,0.3,16.6,0.6,24.9c0.3,8.8,1.1,17.5,5.5,25.5      c1.2,2.3,3.2,3.7,4.5,5.7c6.6,3.2,7.4,3,12-3c1.6-2.5,1.3-6,4-8c1.8-16.3,2.5-32.6,2-49c-2-2.6-0.6-5.7-1-8.5      c-0.3-1.9,0.7-3.9-1-5.5c-0.9,0.9-1.3,2-1.3,3.2c-0.1,9.3,0.4,18.6,0.4,27.9c0.1,10.5,0.4,21.3-3.6,31.4      c-1.2,2.3-2.8,4.3-4.8,5.9c-3.6,2.1-6,0.3-8.1-2.4c-5-6.6-6-14.5-6.2-22.2c-0.4-16.1-0.3-32.3-0.1-48.4c0-4.6,1.6-8.8,3.2-13      c1-2.7,2.6-5.3,6-5.1c3.4,0.2,6.5,1.2,8.2,4.7c2.1,4.4,3.2,9.1,4,13.9c0.3,1.6-0.4,3.9,2.3,4.2C-22.5,58.1-22.5,54.8-22.5,51.5z      " fill="#F2BA9F"/><path d="M-26.5,132.5c-0.3,0.1-0.8,0-0.9,0.2c-2.8,4.6-6.9,3.6-11.1,2.8c0.7,1,1.3,2,2,3      C-31.7,141.6-27.9,139.4-26.5,132.5z" fill="#F3B89C"/><path d="M-49.5-68.5c4.7-3,9.8-1.7,12.4,3.1c1.1,2,0.8,3.8-1.4,4.9c-2.1-0.1-3.1,0.9-3,3c-3,1.9-5.8,1.6-7.6-1.5      c-2.1-3.6-3.1-1.5-4.4,0.5c3.3,0.2,5.5,3.6,9.3,3.1c2.7-0.4,5.1-0.3,6.8-3.1c2.2-3.7,3.2,1.1,4.9,1c0.6,0.8,1.1,1.5,2.2,1.5      c0.5-0.1,0.9-0.3,1.2-0.7c0.2-0.5,0.2-0.9,0.1-1.4c-0.3-0.7-0.7-1.3-1.2-1.8c-1.8-5.9-0.8-7,5-7.4c9.5-0.6,19.2,1,28.6-1.1      c2.6-0.6,2.8,1,2.4,2.9C4.7-59.7-5.6-55.6-10.5-59c-6.8-4.8-6.9-4.7-12.1,1.8c0.1,0.2,0.1,0.5,0.2,0.7c1,0,2,0,3,0      c1.4-0.5,2-2.6,4-2l0,0c1.4,0.9,2.6,2.1,4,3c1.3,0.3,2.7,0.7,4,1c9.4,0.4,14.3-2.3,16.9-9.3c0.6-1.6,1-3.1,0.1-4.7      c0-0.3,0-0.7,0-1c-2.5-3-4.5-6.8-9.4-2.8c-1.3,1.1-4.2,0.9-6.1,0.4c-3.1-0.9-5.8-0.6-8.5,0.8c-1.6,0.8-3.5,1.2-5-0.4      c-3.5-2.2-7.1-1.7-10.7-0.3c-2.6,2.9-5.3,3.2-8.6,0.8c-1.8-1.4-4.2-2-6.5-2.1C-48.2-73.1-50.6-72.4-49.5-68.5z" fill="#DC8860"/><path d="M9.5-68.5C9-60.8,4.8-56.4-2.7-55.5c-1.6,0.2-3.2,0.6-4.8,1c5.7,2.5,10.2,0.2,14.1-3.7      C9.5-61,11.9-64.2,9.5-68.5z" fill="#D9835A"/><path d="M-29.5-56.5c-1-0.3-2-0.7-3-1c2.6,4.6,6.3,3.4,10,2C-24.6-57.3-27.1-56.9-29.5-56.5z" fill="#D9835A"/><path d="M-29.5-56.5c2.1,1.9,4.7,0.6,7,1c0-0.3,0-0.7,0-1c0,0,0,0,0,0C-24.8-58.4-27.2-58.2-29.5-56.5      L-29.5-56.5z" fill="#DC8860"/><path d="M-15.5-58.5c-2.7-2-2.8,1-4,2C-17.8-56.4-16.9-58-15.5-58.5z" fill="#D9835A"/><path d="M-11.5-55.5c-0.9-1.6-2-2.9-4-3C-14.6-56.9-13.5-55.6-11.5-55.5z" fill="#D9835A"/><path d="M14.5-136.5c-0.1-2.7-0.9-5.1-3-7c-1.3-0.7-2.7-0.8-4,0c-0.2,2.1,2.1,2,2.8,3.3c0.2,0.4,0.5,0.7,0.7,1.1      c0.8,3.9-0.3,7.5-2.1,10.9c-0.7,1.3-1.5,2.8-3.3,2.4c-1.9-0.4-2.6-2-2.7-3.7c-0.2-3.7,1-7.1,3.2-10.1c0.7-0.9,3-1.9,0.5-3.4      c-5.5,0.4-7,6.1-8,13.8c-0.5,3.9-0.7,7.9-0.6,11.9c0.1,4.2-1.4,8.1-3.1,11.9c1.1,2.5,2.4,0.6,3.5,0.1c1.8-0.8,2.5-3,4.4-3.9      c1.9,1.7,1,4,1.3,6c0.3,1.7-0.7,4.1,2,4.8c1.2-3.4,2.2-7,2-10.5c-0.2-6.2,1.4-11.9,3.1-17.6C12.5-129.9,13.5-133.2,14.5-136.5z" fill="#DF8F68"/><path d="M11.5-126.5c-2.4,4.9-4.5,9.9-4.1,15.7c0.4,4.2-0.4,8.4-1.9,12.3c-1.7-0.3-1.9,1-2.3,2      c-0.9,2.3-2.6,2.8-4.8,2.5c-2.3-0.4-2.5-2.3-2.7-4.2c-0.2-2.1,0.7-4.3-0.3-6.4c4.2-6.3,4.3-13.3,4-20.4      c-0.2-4.4,0.5-8.6,1.9-12.7c1-2.9,2.7-4.9,6.1-4.9h0c1-1.5,2.6-0.9,4-1c-5-1.8-7.4-0.8-12,5c-2.8,9-2.2,18.5-4.1,27.6      c-1.1,5.4-3.6,10.6-2.9,16.4c4.8,6.9,10.3,6.9,14,0C9.3-105,9.5-115.9,11.5-126.5z" fill="#DE8A61"/><path d="M6.5-94.5c-5.8,5.5-7,5.5-14,0c-0.1,1.7,0.2,3.2,2,4c1.6,0.6,2.6,2,3.8,3c3.2,2.8,6.4,1.5,7.3-2.7      C5.9-91.6,6.2-93.1,6.5-94.5z" fill="#D9845B"/><path d="M-30.5-70.5c3.5-1.8,7.3-0.7,11-1c1,0,2,0,3,0c-0.8-3.7-4.9-1.5-6.6-3.5c-2.7-1-5.3-0.6-7.6,0.9      c-3,1.9-6,1.4-8.3-0.5c-3-2.5-5.8-2.6-9.1-1.3c-1.5,0.8-2.5,1.8-1.5,3.6c4.3-1.3,8.4-0.2,11.5,2.3      C-34.9-67.5-32.9-68.3-30.5-70.5z" fill="#D98359"/><path d="M-23.5-74.5c1.3,3.5,5.2,0.8,7,3c1-0.7,2-1.3,3-2c-0.7,0-1.3,0-2,0c-1-1-2.2-1.3-3.5-1.4      C-20.6-75.2-22.1-75.8-23.5-74.5z" fill="#D78157"/><path d="M-49.5-72.5c0-1.4,0.7-2.4,2-3c2.6-2,2.6-4.6,1.7-7.4c-0.8-1.2-1.6-0.8-2.3,0.1c-1,1.3-1.2,2.9-2.1,4.4      c-1.5-4.2,2.2-8.3-0.3-12.3c-2.2,0-2.4,1.8-3.1,3.3c-0.6,1.1-0.8,2.9-2.5,2.5c-1.5-0.4-1.1-2.2-1.1-3.4      c-0.2-4.9,1.6-9.3,2.8-13.9c1.3-4.5,2.7-8.9,2.2-13.6c-0.2-1.6,0-3.3-1.4-4.6c-2,9.6-4,19.2-6,28.8c-0.8,4-1.2,8-0.2,12.2      c0.8,3.4-0.2,7-3.8,9c0,1,0,2,0,3c3.8-1.7,7.4-3.7,11.9-2.5C-50.5-69.7-49.1-70.7-49.5-72.5z" fill="#D68056"/><path d="M-53.5-120.5c0.7,6.5-0.9,12.7-2,19c-0.5,0.6-0.5,1.3-0.3,2c3.3-1.3,4.3,1.1,5.5,3.3      c0.5,0,1-0.2,1.3-0.6c1.4-6.2,2.7-12.5,4.1-18.7c-0.6-1.5-1.7-1.2-2.8-0.9c-2.3,0.8-2.4-0.8-2.5-2.3c-0.1-1.5,0-3.1,0.5-4.5      c0.5-1.6,0.9-3.2,1.8-4.6c0.6-1,1.2-2.2,2.6-1.9c1.9,0.5,1.3,2,1,3.3c-0.2,0.7-0.3,1.3-0.4,2c0,2.1-1.3,3.9-1.6,5.9      c-0.1,0.7,0.1,1.4,0.5,2c1.6,0.9,2-0.5,2.7-1.3c0.8-1.4,1.4-2.8,2.1-4.2c0.2-0.4,0.3-0.8,0.4-1.3c0.3-2,0.3-4,0-6      c-1.4-1.3-1.2-4.4-4.2-4c-2.7,0.4-4.2,2-5.5,4.3C-51.8-126.4-52.3-123.4-53.5-120.5z" fill="#DF8E66"/><path d="M-40.5-129.5c-1.3,2.2-0.9,4.6-1,7c3.1-0.7,2.5-2.9,2-5c0-0.7,0-1.3,0-2      C-39.8-129.5-40.2-129.5-40.5-129.5z" fill="#CB784F"/><path d="M-49.5-72.5c-0.7,1.3-1.5,2.1-3.1,1.5c-4.5-1.6-8,0.2-10.9,3.5c-0.3,1-0.7,2-1,3c0.2,1.7-0.7,3.6,1,5      c0-0.8-0.1-1.7,0-2.5c0.7-6.1,5.5-8.4,10.1-4.7c3.3,2.6,3.8,1.4,3.9-1.9c0.6-3.1,2-4.1,5.3-3.2c2.3,0.6,4.6,1.3,6.4,2.7      c3.2,2.4,5.5,1.8,7.3-1.5c-3.8,3.2-6.9,0-9.8-1.6C-43.5-74-46.4-73.9-49.5-72.5z" fill="#DB875E"/><path d="M-39.5-127.5c-1.3,1.4-0.4,3.7-2,5c0,0,0,0,0,0c-0.8,2-1.1,4.2-2.6,6c-1.3,2.2-2,4.5-2.4,7      c-0.7,3.1-0.9,6.3-1.7,9.4c-0.4,1.2-0.2,2.4-0.7,3.6c-0.2,0.4-0.4,0.9-0.6,1.4c-0.2,1-0.2,2,0,3c0.8,2.4,2.2,2.2,3.7,0.8      c1.1-1.1,1.6-2.5,2.1-3.9c0.2-0.5,0.3-1,0.4-1.5c0.6-4.8,2.4-9.4,3.1-14.1c0.9-3.8,0.8-7.8,2-11.6c0.3-0.4,0.4-0.9,0.6-1.4      c0.1-1.3,0.3-2.6-0.9-3.5C-38.8-127.5-39.2-127.5-39.5-127.5z" fill="#C8744A"/><path d="M-38.5-127.5c0,1.3,0,2.7,0,4c3-1.5,1.1-3.9,1-6c0,0,0,0,0,0C-38.3-129.1-38.5-128.4-38.5-127.5z" fill="#CB784F"/><path d="M-41.5-57.5c1-1,2-2,3-3c-0.1-1.5,0.2-3-0.8-4.3c-1.6-1.8-3.1-3.4-5.9-2.4c-2.6,1-3.5,2.7-3.2,5.4      c0.3,2.7,1.8,4.1,4.5,4.2C-43.2-57.5-42.3-57.5-41.5-57.5z" fill="#E79974"/><path d="M-53.8-62.4c-0.6-2-1.9-3-4-3.1c-2.1-0.1-4,0.7-4.3,2.6c-0.3,2.1,1.5,3.1,3.5,3.3      C-56.3-59.3-54.6-60.2-53.8-62.4z" fill="#EC9E79"/><path d="M-24.5-139.5c0.8,6.5-1.2,12.7-2,19c-0.3,0.2-0.4,0.5-0.3,0.8c0.1,0.3,0.2,0.4,0.2,0.4      c2.3-0.1,2.1-2.1,2.5-3.4c0.5-1.6,1.3-0.8,2.1-0.5c0.5-0.1,0.9-0.4,1.1-0.8c1-4,0.8-8.2,2.3-12.1c0.5-1.8,1.6-3.5,0-5.3      c0,0,0,0,0,0c-1.1,1.7-2.2,3.5-3.4,5.3C-22.8-137.3-23.7-138.4-24.5-139.5z" fill="#D28058"/><path d="M-19.5-136.5c-2.1,4.1-2,8.6-2,13c-2.1,6-1.7,12.4-3.3,18.5c0,1.4,0,2.8,0.7,4.1      c0.3,0.5,0.7,0.7,1.2,0.8c2.5-0.9,1.5-4.7,4.4-5.6c1.2,2.6-0.1,4.8-0.8,7c-0.6,1.9-2.2,4,0.4,5.7c4.3-1.6,3.8-5.7,4.6-9.1      c0.7-2.7-0.3-5.6,0.7-8.3c1.9-12.1,6.6-23.6,7-36c-0.3,0-0.7,0-1,0c-2,4.4-2.7,9.1-4.2,13.7c-0.5,1.4-0.8,2.9-1.3,4.3      c-0.7,1.6-1.1,4.1-3.3,3.8c-2.4-0.4-1.5-2.9-1.8-4.6C-18.5-131.8-17.5-134.4-19.5-136.5z" fill="#E08F67"/><path d="M-19.5-136.5c0,3.3,0,6.6,0,9.9c0,1.7,0.1,3.4,2.2,3.9c2.1,0.5,3.9-0.6,4.4-2.4c2-7.1,5.5-13.8,5.4-21.4      c-4.6-3.6-5.3-3.5-8.3,1.6c-0.7,1.3-1.1,2.8-2.7,3.4C-18.8-139.9-19.2-138.2-19.5-136.5z" fill="#E19976"/><path d="M-25.4-134.7c-0.5-2.5-0.7-5-3.3-5.5c-2.4-0.5-2.9,1.8-3.6,3.4c-1.8,3.9-3.1,8.1-3.2,12.4      c0,1.8,0.3,3.4,2.4,3.8c2.2,0.4,4.1-0.1,4.8-2.4C-27.2-127-26.3-131.1-25.4-134.7z" fill="#E8A380"/><path d="M-37.5-129.5c-0.4,2,0.8,4.3-1,6c0,0,0,0,0,0c-1.4,3.8-1,8-2.4,11.8c-0.2,5.3-2.2,10.2-3.6,15.2      c0,0.3,0,0.7,0,1c-0.8,1.3-0.4,2.9-1,4.2c-0.5,1.8-0.4,3.6-0.2,5.4c0.5,3.7,2.9,5.9,5.8,5.1c3.2-0.9,5.8-2.6,4.4-6.7      c-2.4,0.4-3,5.4-6.4,2.9c-3-2.2-1.5-5.4-0.7-8.3c2.7-10.4,4.8-20.9,6-31.5C-36.4-126.1-35.9-128-37.5-129.5z" fill="#D8855D"/><path d="M-35.5-87.5c-0.2,1.7-0.8,3.3-2.1,4.4c-1.1,0.9-2.5,1.9-4.1,1.4c-1.7-0.6-2.7-1.9-2.8-3.8      c-0.1-2,0-4,0-6c-2.7,0.1-2.9,1.9-2.8,4c0.1,0.7,0.3,1.3,0.5,1.9c2.9,8.7,6.6,9.5,12.9,2.5c1.9-3.2,1.3-7.1,3.2-10.3      c0.9-3.2,1.3-6.5,2.1-9.7c0.2-0.5,0.3-1,0.3-1.5c0.2-2,0.1-4.1,0.8-6c0.1-3,3.1-5.6,1.1-8.9c0-0.3,0-0.7,0-1      c-3,4-3.6,8.7-4.1,13.5C-31.2-100.3-34.5-94.2-35.5-87.5z" fill="#D98359"/><path d="M-34.5-97.5c0.6-2.5,1.2-5.1,1.7-7.6c0.3-1.3,0.1-2.4-1.2-2.9c-1.3-0.5-1.7,0.7-2.1,1.5      c-1.2,2.3-2.3,4.6-3.5,6.9c-1.1,1.6,0,3.6-0.9,5.3c-0.6,1.3-1.5,3.1,0.4,3.9c1.8,0.8,2.5-1.1,3.4-2.2l0,0      C-35.7-94.1-35.4-96-34.5-97.5z" fill="#E89973"/><path d="M-36.5-92.5c-1.2,0.3-2,2.3-3.3,1.4c-1.4-1,0.1-2.3,0.2-3.5c0.1-1.6,0.1-3.2,0.1-4.9      c-1.7,2.7-1.3,6-2.4,8.8c-0.7,1.8-0.6,3.4,1.5,3.9c1.8,0.5,2.6-0.9,3-2.5C-37.2-90.3-36.8-91.4-36.5-92.5z" fill="#E5926A"/><path d="M-34.5-97.5c-1.6,1.3-2.1,3-2,5C-34.9-93.8-34.4-95.6-34.5-97.5z" fill="#E5926A"/><path d="M-19.5-73.5c1.3,0,2.7,0,4,0c0.5-1.4,1.7-2,3-2.5c4.9-1.7,6.9-5.3,4.9-10c-2.6-6.1-1.5-12.4-1.8-18.6      c-0.7-0.3-1.4-0.1-1.6,0.5c-0.8,2.4-1.9,0.8-2.9,0.2c-1.7,2.3-1.1,5.2-2.3,7.6c-0.1,5-2.9,9.3-4.3,13.9      C-21.3-79.2-21.2-76.3-19.5-73.5z" fill="#D67F54"/><path d="M-13.5-103.5c0.3,1.5-0.6,3.2,1.1,4.7c1.4-1.8,1-4.4,2.9-5.7c0-1,0-2,0-3c-2.4,0.1-0.4-2.6-2-3      c-2.1,1.5,0.1,4.5-2,6c-0.3,0.2-0.3,0.4-0.3,0.7C-13.7-103.6-13.6-103.5-13.5-103.5z" fill="#CD794F"/><path d="M-11.5-110.5c0.2,1.4-0.5,2.8,0.5,4c0,0,1-0.7,1.5-1c0-1,0-2,0-3c-0.7-1-1.3-2-2-3      C-11.5-112.5-11.5-111.5-11.5-110.5z" fill="#C9754A"/><path d="M-9.5-119.5c-1.6,1.3-0.8,3.6-2,5C-8.3-115.2-9.9-117.8-9.5-119.5z" fill="#C9754A"/><path d="M-13.5-103.5c0-0.3,0-0.7,0-1c0-2,0-4,0-6c-1.1,4.4-2,8.9-3.3,13.3c-0.4,1.4-0.3,3.6-2.7,3.7      c-0.2,0.2-0.3,0.3-0.5,0.5c-0.5,0.8-0.6,1.8-0.8,2.7c-0.2,1-0.3,2.1-1.7,2c-1.3-0.1-1.4-1.1-1.7-2.1c-0.6-2.1,1.1-5.1-2.3-6.2      c-2.3,2.9-1.5,6.2-0.9,9.4c0.3,1.9,1.5,3.2,3.6,3.6c2,0.4,3.5-0.5,4.7-2c2.4-2.9,2.7-6.6,3.6-10C-15-98.2-15-101.1-13.5-103.5z" fill="#DC875E"/><path d="M-22.5,61.5c-1.9-5.9-2.1-12.2-4.7-18c-2.1-4.9-6.3-6.2-10.3-6.4c-3.7-0.2-5.6,3.4-7,6.8      c-3.2,7.6-3.5,15.6-3.2,23.4c0.4,12.5-0.3,24.9,0.4,37.4c0.4,8.4,1.3,16.9,6.7,24c3.2,4.2,6.7,4.8,10.2,1.8      c-0.4-0.8-1-1.4-1.8-1.5c-5.7-0.9-8.4-4.8-10.1-9.7c-0.1-0.4-0.3-0.9-0.4-1.3c-0.7-1.9-0.3-4-0.7-5.9c-0.1-0.5-0.2-0.9-0.3-1.3      c-0.9-4.9-0.5-9.9-0.6-14.8c-0.1-0.5-0.2-1.1-0.3-1.6c-0.6-12.7-0.2-25.4-0.2-38c0-1.4,0.6-2.6,0.9-3.8c0.1-0.5,0.3-1,0.5-1.5      c0.1-0.3,0.2-0.6,0.3-0.9c0.8-4.1,2.5-7.8,7.2-8.2c4.7-0.4,6.1,3.6,7.7,7c0.2,0.4,0.4,0.9,0.6,1.3c1.3,2.1,1.2,4.6,1.5,6.9      c0.1,0.5,0.2,1,0.4,1.5c2,7.8,1,15.8,1.2,23.7c0,2-0.1,4,0,6c0.2,7.4,0.3,14.9-0.4,22.3c-0.3,1-0.4,2-0.4,3c0,2-0.1,4.1-1.1,5.9      c-0.2,0.4-0.3,0.9-0.4,1.3c0,1.6-0.7,3.2,0.6,4.6c2.5-2.2,2.5-5.4,2.9-8.2c1.1-9.3,2.2-18.5,1.3-28      C-23.1,80.1-22.5,70.7-22.5,61.5z" fill="#F3BEA4"/><path d="M-26.5,125.5c-0.3-1.7,1.1-3.3,0-5c-2.1-0.3-2.7,1.6-3.9,2.6c-3.3,2.8-5.1,2.6-8-0.5      c-1.5-1.6-2-4.4-5.1-4.1c1.2,7.4,4.2,10.1,13,12C-28.8,129.1-27.2,127.7-26.5,125.5z" fill="#F4C0A7"/><path d="M-29.5-56.5c2.3,0,4.7,0,7,0c0.8-0.6,1.7-1.1,2.3-1.9c2.8-3.6,5-4.6,8.5-0.2c3.1,4,8.1,2.5,11.9,0.8      c3.7-1.6,7.2-4.1,7.3-9.1c0.1-3.1-1-4.6-4.1-3.1c-4.1,2-8.3,1-12.6,0.8c-6.7-0.3-13.4,0.6-20.2,0.5c-3.7-0.1-4.3,6.4-1.2,10.1      c1.3-1.9-0.2-5.2,3.2-6c2.5-0.7,5-0.2,5.8,2.2c0.8,2.2-1.8,2.8-3.4,3.4c-1.5,0.5-3.3,0.1-4.6,1.5      C-29.5-57.2-29.5-56.9-29.5-56.5z" fill="#DF8E66"/><path d="M-29.5-57.5c2.6,0,5.3,0.3,7.7-1.4c3.1-2.2,2.9-4.8-0.5-6.4c-2.5-1.2-4.9-1.4-7.4,0.5      c-2.6,2-1.1,4.1-0.8,6.3C-30.2-58.2-29.8-57.9-29.5-57.5z" fill="#E99B77"/><path d="M11.4-140.4c-0.6-2-2.1-2.2-3.9-2.1c0,0,0,0,0,0c-4.3,3.2-5.8,7.7-6,12.9c-0.1,2.9,1.4,5,3.8,5.8      c2.6,0.9,3.7-1.6,4.6-3.6C11.9-131.6,14-135.8,11.4-140.4c-2.2,2.4-0.1,6.9-3.8,9.3C5.8-135.7,8.1-138.4,11.4-140.4z" fill="#E69D7A"/><path d="M-4.5-104.5c-1.2,1.9-0.9,4.1-1,6.3c-0.1,3,0.7,5.3,4.1,5.7c3.2,0.3,5.6-0.6,6-4.3      c0.1-0.6,0.6-1.1,0.9-1.7c0-3.1,0.1-6.3-0.1-9.4c-0.1-1.2-0.2-2.7-2-3c-1.5-0.2-2.4,0.3-3,1.8C-0.4-106.9-2.7-105.9-4.5-104.5z" fill="#E5936B"/><path d="M-19.5-73.5c0-3,0-6,0-9c-7.1-1.3-7.1-1.3-7.5-8.6c-0.1-1,0.4-2.5-1.4-2.6c-0.6,0.5-0.9,1.1-1.1,1.8      c-0.8,12.3-1.2,13.7-4.6,16.2c-1.5-2.6,2-5.4-0.3-7.9c-0.5,0.4-1.1,0.7-1.6,1.1c-4.2,4.4-9.3,4.1-9.5-3.5c0-0.6-0.6-1.1-0.9-1.6      c-0.4,0.3-0.7,0.7-0.8,1.2c-0.2,1.1,0,2,0.8,2.8c0.2,2.7-0.2,5.4-1,8c3.5-0.8,6.1,0.6,9,2.7c2.3,1.6,5.6,2.2,8.4-0.3      c1.8-1.6,4.3-1.5,6.6-1.4C-22-74.7-20.7-74.2-19.5-73.5z" fill="#D78156"/><path d="M-55.5-99.5c0-0.7,0-1.3,0-2c-2.1,4.7-3.2,9.5-3,14.7c0.1,1.8,0,4,2.4,4.1c2.1,0.1,3.2-1.5,3.5-3.5      c0.3-1.7,0.7-3.2,2.1-4.3c1.3-1.3,1.2-3.1,1.5-4.7c0-0.5-0.1-0.9-0.5-1.3c-0.3,0-0.7,0-1,0c-3.9,0.9-2.5,5.4-4.9,7.2      C-55.7-92.7-53-96.1-55.5-99.5z" fill="#E08C64"/><path d="M-49.5-95.5c-0.3,1.7-0.7,3.3-1,5c-0.2,4.3-1.7,8.3-1.4,12.7c0.1,0.8-0.6,1.7,0.5,2.1      c1.2,0.4,1.7-0.5,2.2-1.4c1.1-2,1-4.5,2.7-6.3c0-1,0-2,0-3c-1.9-1.6-2.8-3.5-2-6c0-1,0-2,0-3C-48.8-96-49.2-96-49.5-95.5z" fill="#D17B51"/><path d="M-55.5-99.5c0.4,4.1-2.1,8-0.6,12.4c4.2-1.9,3.1-6.7,5.6-9.4c0-0.3,0.1-0.7,0-1c-0.3-1.6,1-4-1.3-4.7      C-53.9-102.9-54.2-100.3-55.5-99.5z" fill="#E79772"/><path d="M-43.5-124.5c0-0.7,0-1.3,0-2c1-2,0.5-3.7-1.6-4.3c-1.8-0.5-2.6,1.1-3.2,2.5c-1.2,3.1-4.5,6.2-0.2,9.4      C-44.8-119.1-44.9-122.5-43.5-124.5z" fill="#EAA583"/><path d="M-49.5-95.5c0.3,0,0.7,0,1,0c0-0.3,0-0.7,0-1c0.8-1.6,0.3-3.5,1.3-5c0-2.8,0.8-5.4,1.6-8      c0-2.5,1.1-4.7,2-7c0.6-0.7,0.6-1.3,0-2c-0.7,0.7-1.3,1.3-2,2h0c-2,6.5-4.1,13-4,20C-49.5-96.2-49.5-95.9-49.5-95.5z" fill="#D9865E"/><path d="M-47.5-119.5c-2.6-2.4-1.8-9.6,1.4-10.4c2.8-0.7,2.4,1.8,2.6,3.5c1.7-2,1.3-3.8-0.9-4.7      c-2-0.9-3.4,0.3-4.3,2.2c-0.8,1.8-2,3.4-1.8,5.5c-0.9,1.4-0.3,2.9-0.4,4.3c0.1,0.5,0.4,0.9,0.8,1.2      C-48.8-117.8-47.5-117.5-47.5-119.5z" fill="#E8A280"/><path d="M-45.5-116.5c0-0.7,0-1.3,0-2c-1.7-0.6-3.3,1.6-5,0h0c-0.3-0.5-0.7-0.5-1,0      C-51.2-112.7-48.4-114.5-45.5-116.5C-45.5-116.5-45.5-116.5-45.5-116.5z" fill="#E49772"/><path d="M-50.5-118.5c1.7,1.9,3.3,0.7,5,0c0.9-1.9,2.3-3.7,2-6c-1.3,1.7-2.7,3.3-4,5      C-48.2-118.3-49.4-118.6-50.5-118.5z" fill="#E79D7A"/><path d="M-43.5-118.5c0,0.7,0,1.3,0,2c1.9-1.6,2.1-3.8,2-6C-42.8-121.5-43.3-120.1-43.5-118.5z" fill="#CB784F"/><path d="M-51.5-118.5c0.3,0,0.7,0,1,0c0-1.7,0-3.3,0-5C-52.2-122.1-51.3-120.2-51.5-118.5z" fill="#E79D7A"/><path d="M-48.5-92.5c-1.9,5.1-1.5,6.3,2,6c0-0.3,0-0.7,0-1c-0.1-1.7,0.2-3.2,2-4c0-1.3,0-2.7,0-4      c-0.7,1.2-1.4,2.6-2.2,3.7C-47.7-90.7-48.4-91.1-48.5-92.5z" fill="#CE7950"/><path d="M-44.5-96.5c2.5-4.7,3.9-9.7,4-15c-0.3-0.5-0.7-0.5-1,0C-41.9-106.4-44.5-101.7-44.5-96.5z" fill="#CE7950"/><path d="M-41.5-111.5c0.3,0,0.7,0,1,0c1.4-3.9,2.1-7.9,2-12C-41.5-120-39.8-115.4-41.5-111.5z" fill="#CB784F"/><path d="M-45.5-109.5c-1.9,2.4-2.1,5.1-2,8c-0.6,0.7-0.6,1.3,0,2C-46-102.7-45.8-106.1-45.5-109.5z" fill="#CE7950"/><path d="M-47.5-99.5c0-0.7,0-1.3,0-2c-1.6,1.4-0.8,3.3-1,5C-47.3-97.2-47.5-98.4-47.5-99.5z" fill="#D17B51"/><path d="M-40.6-61.8c0-1.9-1.1-2.6-2.8-2.7c-1.7-0.1-3.1,0.2-3.3,2.1c-0.2,1.8,1.3,2.6,2.8,2.8      C-42.3-59.4-41.1-60-40.6-61.8z" fill="#F0A886"/><path d="M-28.5-93.5c1.7,1.6,0.9,3.7,1,5.6c0.3,5.2,3,7.1,8,5.4c1.8-4.2,4.6-8.1,4-13c-1,2.6-1.8,5.2-2.9,7.7      c-1,2.4-2.8,3.8-5.5,3.1c-2.4-0.6-2.7-2.8-2.6-4.8c0.2-2.4-1-5,0.9-7.1c3.4-2,0.3-5.6,2-8c0.9-6.3,2.7-12.5,2-19      c-0.3,0-0.7,0-1,0c-0.2,0.2-0.3,0.3-0.5,0.5c-1.2,2.4-0.3,5.1-1,7.6c-0.1,0.4-0.3,0.9-0.3,1.3c-0.3,1.6-0.3,3.2-1.2,4.6      c-0.6,1.1-1,2.2-1.1,3.5c-0.1,2.8-0.8,5.4-1.6,8C-28.8-96.6-29.7-95.1-28.5-93.5z" fill="#D88258"/><path d="M-25.5-106.5c0.3-1,0.7-2,1-3c1.2-1.5-0.2-3.5,1-5h0c1.3-2.9-0.4-6.1,1-9c0,0,0,0,0,0      c-0.3-1.2,0.6-2.6-1.1-3.5c-1.8,2.2-1,5.4-2.9,7.5c0.3,3.2-2.7,5.7-2,9c-1.3,1.8,0.3,4.2-1,6c0,0.3,0,0.7,0,1      c-0.6,1.4-1.1,3.3,0.3,3.8c2.1,0.7,2.2-1.8,3-3.1C-25.6-103.9-26.5-105.4-25.5-106.5z" fill="#CB7950"/><path d="M-19.5-93.5c0-3.3,2.4-5.8,2.8-9c0.3-2,1.3-4.9-1.6-5.5c-2.4-0.5-3,2.2-3.5,4.1      c-0.3,1.1-0.5,2.3-0.7,3.4C-24.7-95-24-93.2-19.5-93.5L-19.5-93.5z" fill="#E79771"/><path d="M-23.5-104.5c-1.7,2.4-0.8,5.5-2,8c0,1.8,0,3.7,0,5.5c0,2.1,0,4.2,2.8,4.4c2.7,0.2,3.3-1.6,3.2-3.9      c-3.3,0.1-4.3-1.7-3.8-4.7c0.3-1.8,0.7-3.6-0.2-5.3C-23.5-101.9-23.5-103.2-23.5-104.5z" fill="#E08C63"/><path d="M-23.5-100.5c0.2,2.3-0.5,4.5-0.9,6.8c-0.2,1.5-0.8,3.5,0.6,4.7c1.8,1.4,2.8-1,4.3-1.4c0-1,0-2,0-3      c-5.4-0.5-2-4.7-3-7C-22.8-100.5-23.2-100.5-23.5-100.5z" fill="#E5936B"/><path d="M-8.8-142.6c0-1.8-0.4-3-1.5-3.6c-1.5-0.8-2.6,0.3-3.3,1.4c-2.5,4-3.8,8.4-4.8,13      c-0.3,1.4,0.4,2.7,1.9,3.1c1.6,0.4,3.1,0.1,3.7-1.6C-11.3-134.6-10-138.8-8.8-142.6z" fill="#ECAA88"/><path d="M-33.6-128.8c0.4,1.8-0.3,4.4,1.7,3.9c4.5-1.2,3.2-5.8,4.3-9c0.4-1-0.1-2.9-1.5-2.4      C-32.8-135-32.8-131.4-33.6-128.8z" fill="#EEAE8D"/><path d="M-34.5-83.5c-0.5,1.9-0.9,3.8-1.4,5.7c-0.4,1.4-1.3,3,0.4,3.9c2,1,3.9-0.2,4.4-1.9      c1.2-3.7,1.8-7.5,2.5-11.3c0.3-1.4,0-2.9,0-4.4c-0.9-0.9-1.8-1.7-3-2C-34.9-90.9-33.1-86.7-34.5-83.5z" fill="#D57E53"/><path d="M-31.5-93.5c0.1,2,1.5,2,3,2c0-0.7,0-1.3,0-2c1.3-4.3,3.4-8.3,3-13c-1.8,1.7-0.7,4.8-3.3,6.3      c-1.1-0.9-0.5-2.2-0.7-3.3C-31-100.4-31.6-97-31.5-93.5z" fill="#D17D53"/><path d="M-29.5-104.5c1.8-1.8,0.7-4,1-6C-30.3-108.8-29.2-106.5-29.5-104.5z" fill="#D17D53"/><path d="M-43.5,118.5c2,0.8,2.5,3,3.8,4.4c4.1,4.8,6.8,5,11,0.2c0.8-0.9,1.4-1.8,2.2-2.6c0,0,0,0,0,0      c1-1.9,0.9-4.1,2-6c0-1,0-2,0-3c1.1-6.5,0.2-13.1,0.5-19.7c0.1-1.1-0.3-2.3,0.5-3.3c0-2,0-4,0-6c-1-7.7-0.4-15.5-1.5-23.1      c-0.1-0.7-0.1-1.3-0.5-1.9c0-0.3,0-0.7,0-1c-0.9-2.3-0.9-4.8-2-7v0c-1.5-3.5-3.5-6.6-7.7-6.6c-5.1-0.1-7.4,3.6-9.3,7.6v0      c-2.6,13.6-1.3,27.4-1.2,41.1c0,1.3-0.1,2.6,0.2,3.9c0,0.3,0,0.7,0,1c1.2,4.9-0.4,10.1,1,15l0,0      C-43.4,113.7-44.3,116.2-43.5,118.5L-43.5,118.5z" fill="#F5C3AB"/><path d="M-44.5,50.5c2.5-0.7,2.4-3.7,4.4-4.9c4.7-3,7.8-2,12.6,3.9c-1.2-5.8-4.5-9.2-8.7-9      C-40.7,40.6-43.4,43.9-44.5,50.5z" fill="#F4C0A7"/><path d="M-45.5,95.5c2-2.9-0.3-5.7-0.1-8.6c0.6-10.7-0.9-21.4,1.3-32c0.3-1.4-0.1-2.9-0.2-4.4      c-1.5,1.7-2,3.8-2,6c0,12.1,0,24.2,0,36.4C-46.5,93.8-46.4,94.8-45.5,95.5z" fill="#F4C0A7"/><path d="M-25.5,57.5c0.1,8.4,0.4,16.7,2,25C-24,74.1-22,65.6-25.5,57.5z" fill="#F4C0A7"/><path d="M-23.5,88.5c-2.1,4.4-0.6,9.1-1,13.6c-0.2,3.1,0,6.3,0,9.4C-22.5,103.9-23.7,96.1-23.5,88.5z" fill="#F4C0A7"/><path d="M-44.5,111.5c-0.6-5,1.2-10.1-1-15C-45.6,101.5-46.9,106.6-44.5,111.5z" fill="#F4C0A7"/><path d="M-27.5,49.5c-0.1,2.5,0.3,5,2,7C-25.5,53.9-25.2,51.3-27.5,49.5z" fill="#F4C0A7"/><path d="M-24.5,114.5c-1.9,1.6-2.1,3.8-2,6C-24.6,118.9-24.4,116.7-24.5,114.5z" fill="#F4C0A7"/><path d="M-43.5,118.5c0.6-2.5,0.4-4.8-1-7C-44.1,113.8-45.4,116.4-43.5,118.5z" fill="#F4C0A7"/><path d="M-2-59.9c-0.8,1.8-3,2.2-5,2.3c-2.7,0.1-4.5-1.3-4.4-4.1c0,0,0,0,0,0c0-0.6,0.1-1.2,0.4-1.7      c0.2-0.3,0.4-0.5,0.7-0.7c0.1,0,0.1-0.1,0.2-0.1c0.3-0.5,0.8-0.8,1.4-1c0.2-0.1,0.5-0.1,0.8-0.1c0.1,0,0.2-0.1,0.4-0.1      c0.2-0.1,0.5-0.1,0.7-0.2c1.2-0.2,2.6-0.1,3.6,0.6c0.9,0.4,1.7,1.1,2,2.2C-1-61.6-1.3-60.6-2-59.9z" fill="#E99D7A"/><path d="M-22.7-61.3c-0.7-1.9-1.7-3.2-3.6-3c-1.4,0.2-3.2,0.7-3,2.6c0.2,1.7,1.5,3,3.4,3      C-24.2-58.7-23.4-60.1-22.7-61.3z" fill="#EFA785"/><path d="M11.5-140.5c-4.7,0.5-8.1,6.9-5.6,10.5c1.8,2.6,3.2,0.6,4.1-0.9C11.7-133.9,11.6-137.2,11.5-140.5z" fill="#EBAA88"/><path d="M-3.5-100.7c0.1,3.3-0.3,6.2,3.2,6c4.2-0.2,4-4,4.4-6.7c0.2-1.7-0.2-4.2-3.1-4.1      C-2.8-105.3-3.7-102.9-3.5-100.7z" fill="#EEA07B"/><path d="M-22.5-123.5c-2,2.8-0.6,6-1,9C-21.5-117.3-22.9-120.5-22.5-123.5z" fill="#D28058"/><path d="M-23.5-114.5c-1.7,1.4-0.8,3.3-1,5C-22.8-110.9-23.7-112.8-23.5-114.5z" fill="#D28058"/><path d="M-43.3,71.8c-0.6,10.1,0.6,20.2,0.1,30.3c-0.4,6.6,1.4,13.1,5.9,18.4c2.3,2.8,5.5,2.1,7.8-1      c3.4-4.5,3.9-9.9,3.9-15c-0.2-15.7-0.4-31.4-2.3-47c-0.3-2.4-1.1-4.5-2.3-6.5c-1.3-2.3-3.7-2.9-6-2.8c-2.1,0.1-3.4,1.7-4.3,3.7      C-43.2,58.3-43.2,65.1-43.3,71.8z" fill="#F5C6AF"/><path d="M-41.4,77.5c-0.5,12,1.3,22.9,2.9,33.8c0.4,2.6,1.9,4.6,4.3,4.8c2.4,0.2,4.3-1.7,5.2-3.9      c2.1-5,1.3-10.4,1.4-15.6c0.1-7.3-0.1-14.6-0.9-21.8c-0.6-5.1,0.5-10.3-1.3-15.2c-0.9-2.5-1.9-6-4.7-5.6c-3.2,0.4-5.5,3.3-6,7      C-41.2,66.8-42,72.6-41.4,77.5z" fill="#F6C8B2"/><path d="M-38.3,83.1c-0.1,6.8,2,13.4,1.5,20.2c-0.1,0.9,0.6,2.1,1.9,1.7c1.9-0.6,4.3-1.6,4.1-3.8      c-0.3-5.4,0.9-10.7-0.1-16.2c-1.2-6.5-0.6-13.2-1.8-19.8c-0.4-2.4-1.1-3.6-3-3.4c-2.1,0.3-3,1.9-1.3,4c0.3,0.4,0.4,1.4,0.2,1.9      C-39.6,72.6-38.5,77.9-38.3,83.1z" fill="#F6CAB5"/></g></g></g><path d="M-21.5-59.8c-0.6,0.9-1.5,1.3-2.5,1.6c-1.1,0.3-2.3,0.3-3.4,0c-1.6-0.1-2.9-1.3-3-3.1   c0-1.2,0.6-2.2,1.4-2.8c1-1,2.6-1.5,3.9-1.3c0.7,0.1,1.5,0.4,2.1,0.9c0.6,0.3,1.1,0.9,1.5,1.5C-20.9-62-20.9-60.7-21.5-59.8z" fill="#E99D7A"/></symbol><circle cx="303.3" cy="302.3" fill="#E4E8EB" r="258.7"/><path d="M450.8,434.4c0,0-71.4,49.8-144.4,49.8c-73.1,0-144.4-49.8-144.4-49.8s71.4-49.8,144.4-49.8  C379.4,384.6,450.8,434.4,450.8,434.4z" fill="#3C586A" opacity="0.29"/><path d="M458.4,258.8l-35.3-26.4L299.8,287l-123.4-54.6l-35.3,26.4v71.4c0,0,90.3,59.7,153.7,67.5v0.7  c1.6,0,3.3-0.1,4.9-0.2c1.7,0.1,3.3,0.2,4.9,0.2v-0.7c63.4-7.8,153.7-67.5,153.7-67.5V258.8z" fill="#0E2D3D"/><path d="M303.3,284.1l-3.5,1.5L176.5,231l-35.3,26.4v71.4c0,0,90.3,59.7,153.7,67.5v0.7  c1.6,0,3.3-0.1,4.9-0.2c1.2,0.1,2.3,0.1,3.5,0.1V284.1z" fill="#3C637D" opacity="0.35"/><polyline fill="#35576E" points="87.4,239.3 86.8,239.6 88,239.6 301.4,320.6 511.7,239.6 512.9,239.6 512.3,239.3 512.9,239.1   511.7,239.1 512.4,231.2 301.4,158 86.8,230.9 88,239.1 "/><polygon fill="#3C637D" points="512.3,231.1 512.9,230.9 511.7,230.9 301.4,149.9 88,230.9 86.8,230.9 87.4,231.1 86.8,231.4   88,231.4 301.4,312.4 511.7,231.4 512.9,231.4 "/><polyline fill="none" points="299.8,226.8   408.6,276.2 408.6,348.9 " stroke="#F2AE24" stroke-linecap="round" stroke-miterlimit="10" stroke-width="3"/><ellipse cx="407.9" cy="357.9" fill="#F2AE24" rx="12.2" ry="12.1"/><path d="M407.9,357.9c0,0-34.6,6.8-21.3,24.8c13.3,18,33.5,22.6,33.5,28.7C420,417.5,452,365.3,407.9,357.9z" fill="#FFBC33"/></svg>