<?xml version="1.0" ?><!DOCTYPE svg  PUBLIC '-//W3C//DTD SVG 1.1//EN'  'http://www.w3.org/Graphics/SVG/1.1/DTD/svg11.dtd'><svg enable-background="new 0 0 64 64" height="64px" version="1.1" viewBox="0 0 64 64" width="64px" xml:space="preserve" xmlns="http://www.w3.org/2000/svg" xmlns:xlink="http://www.w3.org/1999/xlink"><g id="Layer_2"><g><g><g><circle cx="106" cy="771" fill="#E5766D" r="32"/></g><g><circle cx="32" cy="771" fill="#3CAFD6" r="32"/></g><g><circle cx="-42" cy="771" fill="#EECE7B" r="32"/></g><g><circle cx="-116" cy="771" fill="#82D2ED" r="32"/></g><g><circle cx="-190" cy="771" fill="#EECE7B" r="32"/></g><g><circle cx="-264" cy="771" fill="#E5766D" r="32"/></g></g><g><g><circle cx="106" cy="697" fill="#82D2ED" r="32"/></g><g><circle cx="32" cy="697" fill="#61BFAF" r="32"/></g><g><circle cx="-42" cy="697" fill="#E5766D" r="32"/></g><g><circle cx="-116" cy="697" fill="#61BFAF" r="32"/></g><g><circle cx="-190" cy="697" fill="#E5766D" r="32"/></g><g><circle cx="-264" cy="697" fill="#EECE7B" r="32"/></g></g><g><g><circle cx="106" cy="623" fill="#EECE7B" r="32"/></g><g><circle cx="32" cy="623" fill="#82D2ED" r="32"/></g><g><circle cx="-42" cy="623" fill="#E5766D" r="32"/></g><g><circle cx="-116" cy="623" fill="#82D2ED" r="32"/></g><g><circle cx="-190" cy="623" fill="#3CAFD6" r="32"/></g><g><circle cx="-264" cy="623" fill="#E5766D" r="32"/></g></g><g><g><circle cx="106" cy="550" fill="#E5766D" r="32"/></g><g><circle cx="32" cy="550" fill="#3CAFD6" r="32"/></g><g><circle cx="-42" cy="550" fill="#61BFAF" r="32"/></g><g><circle cx="-116" cy="550" fill="#EECE7B" r="32"/></g><g><circle cx="-190" cy="550" fill="#E5766D" r="32"/></g><g><circle cx="-264" cy="550" fill="#EECE7B" r="32"/></g></g><g><g><circle cx="106" cy="476" fill="#3CAFD6" r="32"/></g><g><circle cx="32" cy="476" fill="#82D2ED" r="32"/></g><g><circle cx="-42" cy="476" fill="#EECE7B" r="32"/></g><g><circle cx="-116" cy="476" fill="#61BFAF" r="32"/></g><g><circle cx="-190" cy="476" fill="#3CAFD6" r="32"/></g><g><circle cx="-264" cy="476" fill="#EECE7B" r="32"/></g></g><g><g><circle cx="106" cy="402" fill="#E5766D" r="32"/></g><g><circle cx="32" cy="402" fill="#EECE7B" r="32"/></g><g><circle cx="-42" cy="402" fill="#82D2ED" r="32"/></g><g><circle cx="-116" cy="402" fill="#EECE7B" r="32"/></g><g><circle cx="-190" cy="402" fill="#E5766D" r="32"/></g><g><circle cx="-264" cy="402" fill="#61BFAF" r="32"/></g></g><g><g><circle cx="106" cy="328" fill="#3CAFD6" r="32"/></g><g><circle cx="32" cy="328" fill="#EECE7B" r="32"/></g><g><circle cx="-42" cy="328" fill="#61BFAF" r="32"/></g><g><circle cx="-116" cy="328" fill="#3CAFD6" r="32"/></g><g><circle cx="-190" cy="328" fill="#E5766D" r="32"/></g><g><circle cx="-264" cy="328" fill="#EECE7B" r="32"/></g></g><g><g><circle cx="106" cy="254" fill="#EECE7B" r="32"/></g><g><circle cx="32" cy="254" fill="#82D2ED" r="32"/></g><g><circle cx="-42" cy="254" fill="#E5766D" r="32"/></g><g><circle cx="-116" cy="254" fill="#61BFAF" r="32"/></g><g><circle cx="-190" cy="254" fill="#EECE7B" r="32"/></g><g><circle cx="-264" cy="254" fill="#E5766D" r="32"/></g></g><g><g><circle cx="106" cy="180" fill="#61BFAF" r="32"/></g><g><circle cx="32" cy="180" fill="#82D2ED" r="32"/></g><g><circle cx="-42" cy="180" fill="#82D2ED" r="32"/></g><g><circle cx="-116" cy="180" fill="#E5766D" r="32"/></g><g><circle cx="-190" cy="180" fill="#3CAFD6" r="32"/></g><g><circle cx="-264" cy="180" fill="#82D2ED" r="32"/></g></g><g><g><circle cx="106" cy="106" fill="#E5766D" r="32"/></g><g><circle cx="32" cy="106" fill="#3CAFD6" r="32"/></g><g><circle cx="-42" cy="106" fill="#EECE7B" r="32"/></g><g><circle cx="-116" cy="106" fill="#82D2ED" r="32"/></g><g><circle cx="-190" cy="106" fill="#61BFAF" r="32"/></g><g><circle cx="-264" cy="106" fill="#EECE7B" r="32"/></g></g><g><g><circle cx="106" cy="32" fill="#E5766D" r="32"/></g><g><circle cx="32" cy="32" fill="#EECE7B" r="32"/></g><g><circle cx="-42" cy="32" fill="#82D2ED" r="32"/></g><g><circle cx="-116" cy="32" fill="#3CAFD6" r="32"/></g><g><circle cx="-190" cy="32" fill="#61BFAF" r="32"/></g><g><circle cx="-264" cy="32" fill="#E5766D" r="32"/></g></g><g><g><circle cx="106" cy="-42" fill="#82D2ED" r="32"/></g><g><circle cx="32" cy="-42" fill="#3CAFD6" r="32"/></g><g><circle cx="-42" cy="-42" fill="#EECE7B" r="32"/></g><g><circle cx="-116" cy="-42" fill="#61BFAF" r="32"/></g><g><circle cx="-190" cy="-42" fill="#E5766D" r="32"/></g><g><circle cx="-264" cy="-42" fill="#82D2ED" r="32"/></g></g><g><g><circle cx="106" cy="-116" fill="#E5766D" r="32"/></g><g><circle cx="32" cy="-116" fill="#EECE7B" r="32"/></g><g><circle cx="-42" cy="-116" fill="#3CAFD6" r="32"/></g><g><circle cx="-116" cy="-116" fill="#EECE7B" r="32"/></g><g><circle cx="-190" cy="-116" fill="#61BFAF" r="32"/></g><g><circle cx="-264" cy="-116" fill="#E5766D" r="32"/></g></g><g><g><circle cx="106" cy="-190" fill="#EECE7B" r="32"/></g><g><circle cx="32" cy="-190" fill="#82D2ED" r="32"/></g><g><circle cx="-42" cy="-190" fill="#E5766D" r="32"/></g><g><circle cx="-116" cy="-190" fill="#3CAFD6" r="32"/></g><g><circle cx="-190" cy="-190" fill="#EECE7B" r="32"/></g><g><circle cx="-264" cy="-190" fill="#61BFAF" r="32"/></g></g><g><g><circle cx="106" cy="-264" fill="#91D8F0" r="32"/></g><g><circle cx="32" cy="-264" fill="#E5766D" r="32"/></g><g><circle cx="-42" cy="-264" fill="#EECE7B" r="32"/></g><g><circle cx="-116" cy="-264" fill="#61BFAF" r="32"/></g><g><circle cx="-190" cy="-264" fill="#E5766D" r="32"/></g><g><circle cx="-264" cy="-264" fill="#EECE7B" r="32"/></g></g></g></g><g id="Icons"><g id="WEB_development"><path d="M50.228,45.199l-1.886-1.885c-1.257-1.257-1.01-2.091-0.555-2.957l1.343-3.037    c0.283-0.936,1.537-1.733,2.426-1.734v-0.031h2.667c0.977,0,1.777-0.801,1.777-1.778v-3.556c0-0.978-0.801-1.778-1.777-1.778    h-3.184c-0.926,0-1.864-0.811-2.131-1.694l-1.117-3.104c-0.456-0.866-0.706-1.703,0.551-2.96l1.886-1.885    c0.691-0.691,0.69-1.823,0-2.514l-2.514-2.514c-0.691-0.691-1.823-0.692-2.515,0l-1.886,1.886    c-1.257,1.257-2.091,1.01-2.956,0.555l-3.037-1.342c-0.937-0.283-1.733-1.537-1.733-2.426h-0.031V9.778    C35.556,8.8,34.755,8,33.777,8h-3.555c-0.977,0-1.778,0.8-1.778,1.778v3.037c-0.003,0.976-0.768,2.003-1.701,2.285l-3.101,1.113    c-0.865,0.456-2.327,0.074-2.956-0.555l-1.886-1.886c-0.694-0.694-1.82-0.694-2.515,0l-2.514,2.514    c-0.694,0.694-0.694,1.82,0,2.514l1.886,1.885c0.628,0.628,1.01,2.091,0.555,2.957L14.87,26.68    c-0.283,0.936-1.537,1.733-2.426,1.734v0.031H9.777c-0.977,0-1.777,0.8-1.777,1.778v3.556c0,0.977,0.8,1.778,1.777,1.778h3.184    c0.926,0,1.864,0.811,2.131,1.694l1.117,3.104c0.456,0.866,0.706,1.703-0.551,2.96l-1.886,1.885c-0.691,0.691-0.69,1.823,0,2.514    l2.514,2.514c0.691,0.691,1.823,0.692,2.515,0l1.886-1.886c1.257-1.257,2.091-1.01,2.956-0.555l3.037,1.342    c0.937,0.283,1.733,1.537,1.733,2.426h0.031v2.667c0,0.978,0.801,1.778,1.778,1.778h3.555c0.978,0,1.778-0.8,1.778-1.778v-3.179    c0.08-0.927,0.81-1.868,1.693-2.135l3.104-1.117c0.865-0.456,1.703-0.706,2.96,0.551l1.886,1.886c0.694,0.694,1.82,0.694,2.515,0    l2.514-2.514C50.922,47.019,50.922,45.894,50.228,45.199z" fill="#3DB39E"/><path d="M50.228,45.199l-1.886-1.885c-1.257-1.257-1.01-2.091-0.555-2.957l1.343-3.037    c0.283-0.936,1.537-1.733,2.426-1.734v-0.031h2.667c0.977,0,1.777-0.801,1.777-1.778v-3.556c0-0.978-0.801-1.778-1.777-1.778    h-3.184c-0.926,0-1.864-0.811-2.131-1.694l-1.117-3.104c-0.456-0.866-0.706-1.703,0.551-2.96l1.886-1.885    c0.691-0.691,0.69-1.823,0-2.514l-1.257-1.257L15.029,48.971l1.257,1.257c0.691,0.691,1.823,0.692,2.515,0l1.886-1.886    c1.257-1.257,2.091-1.01,2.956-0.555l3.037,1.342c0.937,0.283,1.733,1.537,1.733,2.426h0.031v2.667    c0,0.978,0.801,1.778,1.778,1.778h3.555c0.978,0,1.778-0.8,1.778-1.778v-3.179c0.08-0.927,0.81-1.868,1.693-2.135l3.104-1.117    c0.865-0.456,1.703-0.706,2.96,0.551l1.886,1.886c0.694,0.694,1.82,0.694,2.515,0l2.514-2.514    C50.922,47.019,50.922,45.894,50.228,45.199z" fill="#37A18E"/><linearGradient gradientUnits="userSpaceOnUse" id="SVGID_1_" x1="48.9717" x2="33.3338" y1="48.9717" y2="33.3338"><stop offset="0" style="stop-color:#0F272D;stop-opacity:0"/><stop offset="1" style="stop-color:#0F272D;stop-opacity:0.6"/></linearGradient><path d="M35.556,54.222v-3.179c0.08-0.927,0.81-1.868,1.693-2.135l3.104-1.117    c0.865-0.456,1.703-0.706,2.96,0.551l1.886,1.886c0.694,0.694,1.82,0.694,2.515,0l2.514-2.514c0.694-0.694,0.694-1.82,0-2.514    l-1.886-1.885c-1.257-1.257-1.01-2.091-0.555-2.957l1.343-3.037c0.283-0.936,1.537-1.733,2.426-1.734v-0.031h2.667    c0.977,0,1.777-0.801,1.777-1.778l-5.397-5.397c-0.769-0.201-1.471-0.887-1.694-1.63l-0.037-0.101l-4.427-4.427L22.223,44.444    l4.908,4.909c0.295,0.192,0.562,0.462,0.773,0.773L33.777,56C34.755,56,35.556,55.2,35.556,54.222z" fill="url(#SVGID_1_)"/><circle cx="32" cy="32" fill="#FFFFFF" r="16"/><circle cx="32" cy="32" fill="#177FA2" r="14.222"/><path d="M21.943,42.057c-5.554-5.554-5.554-14.56,0-20.113s14.56-5.554,20.113,0L21.943,42.057z" fill="#1795BF"/><path d="M47.111,32.889v-1.777H41.75c-0.12-2.538-0.745-4.939-1.78-7.111h4.475v-1.778h-5.439    c-1.346-2.18-3.127-4.063-5.224-5.526c-0.303,0.141-0.6,0.291-0.893,0.448v-0.255h-1.777v0.255    c-0.293-0.158-0.59-0.308-0.893-0.448c-2.097,1.464-3.878,3.347-5.224,5.526h-5.439V24h4.475c-1.035,2.172-1.66,4.574-1.78,7.111    h-5.361v1.777h5.361c0.12,2.538,0.745,4.939,1.78,7.111h-4.475v1.778h5.439c1.346,2.18,3.127,4.063,5.224,5.526    c0.303-0.141,0.6-0.291,0.893-0.448v0.255h1.777v-0.255c0.293,0.158,0.59,0.308,0.893,0.448c2.097-1.464,3.878-3.347,5.224-5.526    h5.439V40H39.97c1.035-2.172,1.66-4.574,1.78-7.111H47.111z M39.971,31.111h-7.082V24h5.083    C39.128,26.135,39.837,28.545,39.971,31.111z M36.859,22.222h-3.971v-3.971C34.425,19.344,35.764,20.69,36.859,22.222z     M31.111,18.251v3.971h-3.971C28.236,20.69,29.575,19.344,31.111,18.251z M26.028,24h5.083v7.111h-7.082    C24.163,28.545,24.872,26.135,26.028,24z M24.029,32.889h7.082V40h-5.083C24.872,37.865,24.163,35.455,24.029,32.889z     M27.141,41.778h3.971v3.971C29.575,44.656,28.236,43.31,27.141,41.778z M32.889,45.749v-3.971h3.971    C35.764,43.31,34.425,44.656,32.889,45.749z M37.972,40h-5.083v-7.111h7.082C39.837,35.455,39.128,37.865,37.972,40z" fill="#FFFFFF"/></g></g></svg>