<?xml version="1.0" ?><!DOCTYPE svg  PUBLIC '-//W3C//DTD SVG 1.1//EN'  'http://www.w3.org/Graphics/SVG/1.1/DTD/svg11.dtd'><svg enable-background="new 0 0 512.001 512" height="512px" id="Layer_1" version="1.1" viewBox="0 0 512.001 512" width="512.001px" xml:space="preserve" xmlns="http://www.w3.org/2000/svg" xmlns:xlink="http://www.w3.org/1999/xlink"><g><g><path d="M512.001,256c0,20.556-2.43,40.55-7.01,59.699C478.111,428.287,376.834,512,256.001,512     c-11.162,0-22.143-0.718-32.922-2.101C97.255,493.746,0,386.201,0,256C0,114.611,114.638,0,256.001,0     C397.39,0,512.001,114.611,512.001,256z" fill="#E05B49"/><g><path d="M504.991,315.698C478.111,428.287,376.834,512,256.001,512L113.103,402.098v-19.711l16.05-5.709v-12.697      h16.435v-46.593l-9.96-7.45v-24.55l47.646-5.555v-66.893l-8.553-7.578v-21.479h19.023c6.245-16.205,18.2-29.364,33.33-36.864      h-0.103l-1.05-20.326h8.5c2.278-9.319,9.753-16.41,18.968-17.563V98.995h-0.05V85.632h0.103c0.052-0.691,0.382-1.28,0.872-1.716      c-0.027-0.025-0.08-0.051-0.104-0.077c-0.075-0.051-0.128-0.127-0.205-0.179c-0.1-0.154-0.23-0.282-0.305-0.436      c0,0,0.025,0,0.05,0.026c-0.255-0.41-0.435-0.87-0.435-1.383c0-1.51,1.203-2.714,2.688-2.714c0.615,0,1.128,0.23,1.563,0.564      c0-0.026,0-0.051-0.025-0.078c0.1,0.051,0.205,0.154,0.28,0.231c0.05,0.051,0.103,0.076,0.13,0.127      c0.205,0.205,0.382,0.461,0.51,0.743c0.025,0.051,0.05,0.127,0.077,0.179c0.103,0.308,0.178,0.615,0.178,0.947      c0,0.845-0.41,1.562-0.998,2.048c0.027,0,4.788,1.716,4.788,1.716h8.805l0.41,2.509h9.448l223.77,227.557H504.991z" opacity="0.2"/><g><g><g><path d="M258.644,113.594V85.88c0-1.452-1.177-2.628-2.63-2.628c-1.455,0-2.63,1.176-2.63,2.628v27.714         H258.644z" fill="#8199B0"/><path d="M256.014,83.251c-0.623,0-1.19,0.225-1.64,0.588c0.075-0.006,0.15-0.023,0.225-0.023         c1.453,0,2.63,1.176,2.63,2.628v27.149h1.415V85.88C258.644,84.428,257.466,83.251,256.014,83.251z" fill="#6A7D91"/><circle cx="256.014" cy="81.862" fill="#8199B0" r="2.703"/><path d="M257.539,79.632c0.23,0.4,0.375,0.86,0.375,1.353c0,1.495-1.21,2.705-2.702,2.705         c-0.568,0-1.088-0.175-1.523-0.471c0.468,0.801,1.33,1.346,2.325,1.346c1.495,0,2.703-1.208,2.703-2.703         C258.716,80.936,258.249,80.12,257.539,79.632z" fill="#6A7D91"/></g><g><g><path d="M277.934,128.236c-1.935-10.969-11.005-19.279-21.92-19.279s-19.985,8.31-21.922,19.279H277.934z" fill="#CCCCCC"/><g><g><path d="M319.289,186.512c-9.152-26.956-34.018-46.297-63.275-46.297            c-29.26,0-54.125,19.341-63.275,46.297H319.289z" fill="#CCCCCC"/><path d="M268.739,128.236h9.195c-1.935-10.969-11.005-19.279-21.92-19.279            c-0.295,0-0.585,0.027-0.877,0.041C262.021,111.261,266.539,118.586,268.739,128.236z" fill="#B3B3B3"/><path d="M300.332,186.512h18.958c-9.152-26.956-34.018-46.297-63.275-46.297            c-3.1,0-6.145,0.226-9.13,0.647C271.289,144.396,291.544,162.28,300.332,186.512z" fill="#B3B3B3"/><g><g><g><rect fill="#B3B3B3" height="102.972" width="145.476" x="183.276" y="200.097"/><g><rect fill="#F2F2F2" height="102.972" width="19.06" x="204.309" y="200.097"/><rect fill="#F2F2F2" height="102.972" width="19.06" x="246.484" y="200.097"/><rect fill="#F2F2F2" height="102.972" width="19.063" x="288.656" y="200.097"/></g></g><polygon opacity="0.2" points="328.752,213.411 258.599,210.812 183.276,210.25 183.276,202.507 328.752,202.507                           "/><rect fill="#F2F2F2" height="21.473" width="162.561" x="174.733" y="183.882"/></g><g><g><polygon fill="#B3B3B3" points="366.432,297.74 366.432,369.67 145.593,369.67 145.593,297.74 185.428,295.18                326.594,295.18              "/><g><rect fill="#F2F2F2" height="74.491" width="19.063" x="166.623" y="295.18"/><rect fill="#F2F2F2" height="74.491" width="19.06" x="219.864" y="295.18"/><rect fill="#F2F2F2" height="74.491" width="19.06" x="273.104" y="295.18"/><rect fill="#F2F2F2" height="74.491" width="19.061" x="326.339" y="295.18"/></g></g><g opacity="0.2"><polygon points="256.014,290.658 256.014,308.361 145.593,315.108 145.593,297.74 185.428,295.18              "/><polygon points="366.432,297.74 366.432,315.108 256.014,308.361 256.014,290.658 326.594,295.18              "/></g><g><polygon fill="#F2F2F2" points="135.633,285.393 135.633,309.931 256.014,302.921 256.014,271.374              "/><polygon fill="#D4D4D4" points="376.395,285.393 256.014,271.374 256.014,302.921 376.395,309.931              "/></g></g></g></g><polygon fill="#F2F2F2" points="285.044,147.021 226.981,147.021 225.918,126.703 286.109,126.703          "/></g></g><g><polygon fill="#F2F2F2" points="381.26,376.68 381.26,382.375 129.163,382.375 129.163,376.68 113.093,382.375           113.093,402.094 398.932,402.094 398.932,382.375         "/><rect fill="#F2F2F2" height="12.708" width="252.097" x="129.163" y="363.972"/><polygon fill="#D4D4D4" points="398.932,382.375 381.26,376.68 129.163,376.68 113.093,382.375         "/></g></g></g><g><rect fill="#CCCCCC" height="13.365" width="15.335" x="265.836" y="88.143"/><rect fill="#F2F2F2" height="13.364" width="15.338" x="255.976" y="85.625"/><polygon fill="#A8A8A8" points="273.504,98.989 271.314,98.989 271.314,85.625       "/><polygon fill="#A8A8A8" points="265.836,101.507 265.836,98.989 273.504,98.989       "/><rect fill="#FFFFFF" height="13.364" width="2.627" x="253.349" y="85.625"/><rect fill="#A8A8A8" height="13.364" width="0.547" x="258.606" y="85.625"/></g></g></g></g></g></svg>