<?xml version="1.0" ?><svg height="36px" id="Layer_1" style="enable-background:new 0 0 36 36;" version="1.1" viewBox="0 0 36 36" width="36px" xml:space="preserve" xmlns="http://www.w3.org/2000/svg" xmlns:xlink="http://www.w3.org/1999/xlink"><style type="text/css">
	.st0{fill:#3FB34F;}
	.st1{opacity:0.1;}
	.st2{fill:#F59331;}
	.st3{fill:#2BBBB3;}
	.st4{fill:#3498DB;}
	.st5{fill:#9B59B6;}
	.st6{opacity:0.15;}
	.st7{fill:#EBEBEB;}
	.st8{fill:#F5BA45;}
	.st9{fill:#8AC054;}
	.st10{fill:#F4F6F9;}
	.st11{fill:#424953;}
	.st12{fill:#FECD57;}
	.st13{fill:#646C77;}
	.st14{fill:#EC5564;}
	.st15{fill:#E4B693;}
	.st16{fill:#A9B1BC;}
	.st17{fill:#4B89DA;}
	.st18{fill:#D94452;}
	.st19{fill:#E5E8EC;}
	.st20{fill:#CBD0D8;}
	.st21{fill:#F0C8A5;}
	.st22{fill:#F4D0B5;}
	.st23{fill:#F76D82;}
	.st24{fill:#5E9CEA;}
	.st25{fill:#303135;}
	.st26{fill:#E8563F;}
	.st27{fill:#FB6D51;}
	.st28{fill:#9ED36A;}
	.st29{fill:#46CEAD;}
	.st30{fill:#FCD277;}
	.st31{fill:#B4E080;}
	.st32{fill:#F55B5C;}
	.st33{fill:#73B1F4;}
	.st34{fill:#D670AC;}
	.st35{fill:#4FC0E8;}
	.st36{fill:#3BAED9;}
	.st37{fill:#FC8370;}
	.st38{fill:#35BB9B;}
	.st39{fill:#66D5F2;}
	.st40{fill:none;stroke:#2E74A6;stroke-width:2;stroke-linecap:round;stroke-miterlimit:10;}
	.st41{fill:none;stroke:#000000;stroke-width:3;stroke-linecap:round;stroke-miterlimit:10;}
	.st42{fill:#2E74A6;}
	.st43{fill:#EB87BF;}
</style><g><circle class="st32" cx="18" cy="18" r="18"/><path class="st1" d="M25,8l-1.2,7.6L20,12h-3v4.9L15,15l-2.7,6.2L10,19l-3,3l2.6,2.5l-0.2,0.2l-3.2,0l1.9,1.8l-0.9,1.2l8.5,8.1   c0.7,0.1,1.4,0.1,2.1,0.1c9.8,0,17.7-7.8,18-17.5L25,8z"/><g><path class="st16" d="M26,20c-1.9,0-3.4,1.3-3.9,3H7c-0.6,0-1,0.4-1,1s0.4,1,1,1v2c0,0.6,0.4,1,1,1s1-0.4,1-1v-2h2v2    c0,0.6,0.4,1,1,1s1-0.4,1-1v-2h9.1c0.4,1.7,2,3,3.9,3c2.2,0,4-1.8,4-4C30,21.8,28.2,20,26,20z M26,26c-1.1,0-2-0.9-2-2    c0-1.1,0.9-2,2-2s2,0.9,2,2C28,25.1,27.1,26,26,26z"/><rect class="st23" height="3" width="3" x="7" y="19"/><rect class="st37" height="7" width="3" x="12" y="15"/><rect class="st30" height="10" width="3" x="17" y="12"/><path class="st31" d="M25,19.1V8h-3v13C22.7,20.1,23.8,19.4,25,19.1z"/><path class="st20" d="M26,20c-1.9,0-3.4,1.3-3.9,3H7c-0.6,0-1,0.4-1,1h18c0-1.1,0.9-2,2-2s2,0.9,2,2h2C30,21.8,28.2,20,26,20z"/></g></g></svg>