<?xml version="1.0" ?><!DOCTYPE svg  PUBLIC '-//W3C//DTD SVG 1.1//EN'  'http://www.w3.org/Graphics/SVG/1.1/DTD/svg11.dtd'><svg enable-background="new 0 0 512 512" height="512px" id="Layer_1" version="1.1" viewBox="0 0 512 512" width="512px" xml:space="preserve" xmlns="http://www.w3.org/2000/svg" xmlns:xlink="http://www.w3.org/1999/xlink"><g><path d="M512,256c0,136.84-107.35,248.59-242.43,255.65C265.08,511.88,260.55,512,256,512    C114.62,512,0,397.39,0,256C0,114.62,114.62,0,256,0c126.17,0,231.02,91.28,252.12,211.4C510.67,225.88,512,240.79,512,256z" fill="#EFC849"/><g><path d="M512,256c0,136.84-107.35,248.59-242.43,255.65c0,0-167.562-183.771-171.11-183.771v-8.05h4.41V137.86     L89.53,123.01c-3.08,0-3.08-4.729,0-4.729h1.649c0.84-4.24,3.9-7.42,7.61-7.65v-1.39h313.59v1.38c0.07,0,0.14-0.021,0.21-0.021     c3.14,0,5.86,2.12,7.26,5.23C421.72,116.765,512,256,512,256z" opacity="0.2"/><g><g><rect fill="#003252" height="58.533" width="22.788" x="244.604" y="325.991"/><g><path d="M321.753,402.766c-0.63,0-1.273-0.075-1.913-0.234l-64.871-16.205        c-4.323-1.084-6.978-5.56-5.929-10.002c1.056-4.441,5.413-7.168,9.742-6.087l64.867,16.203        c4.328,1.082,6.98,5.56,5.929,10.002C328.685,400.228,325.388,402.766,321.753,402.766z" fill="#003252"/><path d="M190.243,402.766c-3.629,0-6.926-2.538-7.822-6.323c-1.052-4.442,1.602-8.92,5.925-10.002        l64.876-16.203c4.32-1.079,8.678,1.646,9.736,6.087c1.049,4.442-1.603,8.918-5.926,10.002l-64.874,16.205        C191.521,402.69,190.88,402.766,190.243,402.766z" fill="#003252"/></g><path d="M323.649,386.44l-56.258-14.057v-46.393h-22.788l18.58,14.857l1.182,31.535l52.604,16.768       c4.232,1.419,6.543,6.094,5.161,10.438c-0.373,1.179-0.998,2.187-1.766,3.039c0.464,0.083,0.925,0.137,1.388,0.137       c3.635,0,6.932-2.538,7.825-6.323C330.63,392,327.978,387.522,323.649,386.44z" opacity="0.3"/></g><g><g><rect fill="#FFFFFF" height="189.353" width="306.256" x="102.873" y="131.903"/><g><g><rect fill="#0092AD" height="145.246" width="1.671" x="262.092" y="143.647"/><rect fill="#0092AD" height="1.781" width="258.84" x="139.408" y="204.098"/><g><g><path d="M365.839,171.489l-57.296,59.399l-40.103-34.396c-2.809-2.386-7.131-2.328-9.883,0.136            l-55.747,50.409l-30.337-31.345c-1.378-1.404-3.328-2.202-5.363-2.202c0,0,0,0-0.025,0            c-2.036,0.025-3.983,0.825-5.33,2.255l-22.347,20.485v20.701l27.76-26.814l29.966,30.92c1.29,1.35,3.125,2.147,5.068,2.2            c1.973,0.082,3.87-0.638,5.251-1.882l56.229-50.83l40.51,34.709c1.405,1.215,3.302,1.827,5.211,1.75            c1.922-0.084,3.727-0.902,5.017-2.227l60.769-63.257L365.839,171.489z" fill="#0E2947"/></g><polygon fill="#0E2947" points="386.406,195.939 352.223,160.836 386.406,160.836          "/></g><g><path d="M217.864,250.183c0,7.958-6.277,14.405-14.027,14.405c-7.74,0-14.021-6.447-14.021-14.405           s6.28-14.405,14.021-14.405C211.587,235.777,217.864,242.225,217.864,250.183z" fill="#FFFFFF"/><path d="M203.837,268.909c-10.051,0-18.231-8.401-18.231-18.727c0-10.324,8.181-18.726,18.231-18.726           c10.058,0,18.242,8.401,18.242,18.726C222.079,260.508,213.895,268.909,203.837,268.909z M203.837,240.102           c-5.41,0-9.811,4.521-9.811,10.081s4.4,10.082,9.811,10.082c5.423,0,9.822-4.521,9.822-10.082           S209.26,240.102,203.837,240.102z" fill="#FD6B38"/></g><g><path d="M276.955,204.27c0,7.957-6.283,14.404-14.029,14.404c-7.745,0-14.025-6.447-14.025-14.404           c0-7.959,6.28-14.405,14.025-14.405C270.672,189.864,276.955,196.311,276.955,204.27z" fill="#FFFFFF"/><path d="M262.926,222.996c-10.056,0-18.231-8.403-18.231-18.727c0-10.328,8.176-18.727,18.231-18.727           s18.231,8.398,18.231,18.727C281.157,214.593,272.981,222.996,262.926,222.996z M262.926,194.188           c-5.412,0-9.814,4.522-9.814,10.082c0,5.561,4.402,10.082,9.814,10.082c5.418,0,9.814-4.521,9.814-10.082           C272.74,198.71,268.344,194.188,262.926,194.188z" fill="#FD6B38"/></g></g><g><polygon fill="#364D5C" points="374.348,292.494 135.903,292.494 135.903,153.739 139.408,153.739 139.408,288.894           374.348,288.894         "/><path d="M135.849,292.502h-7.013v-1.803h7.013V292.502z M135.849,281.695h-7.013v-1.798h7.013V281.695z           M135.849,270.892h-7.013v-1.799h7.013V270.892z M135.849,260.091h-7.013v-1.801h7.013V260.091z M135.849,249.287h-7.013          v-1.802h7.013V249.287z M135.849,238.482h-7.013v-1.802h7.013V238.482z M135.849,227.678h-7.013v-1.8h7.013V227.678z           M135.849,216.877h-7.013v-1.8h7.013V216.877z M135.849,206.073h-7.013v-1.802h7.013V206.073z M135.849,195.27h-7.013          v-1.802h7.013V195.27z M135.849,184.467h-7.013v-1.802h7.013V184.467z M135.849,173.663h-7.013v-1.801h7.013V173.663z           M135.849,162.858h-7.013v-1.801h7.013V162.858z" fill="#364D5C"/><path d="M369.087,299.64h-1.751v-7.204h1.751V299.64z M358.569,299.64h-1.76v-7.204h1.76V299.64z           M348.047,299.64h-1.752v-7.204h1.752V299.64z M337.524,299.64h-1.754v-7.204h1.754V299.64z M327.007,299.64h-1.756v-7.204          h1.756V299.64z M316.486,299.64h-1.751v-7.204h1.751V299.64z M305.97,299.64h-1.755v-7.204h1.755V299.64z M295.449,299.64          h-1.753v-7.204h1.753V299.64z M284.93,299.64h-1.755v-7.204h1.755V299.64z M274.41,299.64h-1.752v-7.204h1.752V299.64z           M263.889,299.64h-1.747v-7.204h1.747V299.64z M253.369,299.64h-1.751v-7.204h1.751V299.64z M242.849,299.64h-1.754v-7.204          h1.754V299.64z M232.335,299.64h-1.761v-7.204h1.761V299.64z M221.813,299.64h-1.752v-7.204h1.752V299.64z M211.295,299.64          h-1.755v-7.204h1.755V299.64z M200.774,299.64h-1.754v-7.204h1.754V299.64z M190.252,299.64H188.5v-7.204h1.752V299.64z           M179.738,299.64h-1.764v-7.204h1.764V299.64z M169.214,299.64h-1.753v-7.204h1.753V299.64z M158.695,299.64h-1.757v-7.204          h1.757V299.64z M148.175,299.64h-1.749v-7.204h1.749V299.64z M137.656,299.64h-1.753v-7.204h1.753V299.64z" fill="#364D5C"/></g></g><polygon opacity="0.15" points="409.129,131.903 409.129,158.229 102.873,131.903       "/></g><g><g><path d="M91.371,123.012c-0.618,0-1.232,0-1.845,0c-3.072,0-3.072-4.735,0-4.735c0.612,0,1.227,0,1.845,0         C91.371,119.854,91.371,121.433,91.371,123.012z" fill="#0E2947"/><path d="M420.63,123.012c0.615,0,1.229,0,1.845,0c3.073,0,3.073-4.735,0-4.735c-0.615,0-1.229,0-1.845,0         C420.63,119.854,420.63,121.433,420.63,123.012z" fill="#0E2947"/><g><path d="M99.226,130.6c4.575,0,8.279-4.479,8.279-9.997H90.947C90.947,126.12,94.654,130.6,99.226,130.6z" fill="#24323D"/><path d="M99.226,110.604c-4.571,0-8.278,4.476-8.278,9.998h16.558          C107.505,115.08,103.801,110.604,99.226,110.604z" fill="#364D5C"/><path d="M412.586,130.6c4.575,0,8.278-4.479,8.278-9.997h-16.557          C404.308,126.12,408.016,130.6,412.586,130.6z" fill="#24323D"/><path d="M412.586,110.604c-4.57,0-8.278,4.476-8.278,9.998h16.557          C420.864,115.08,417.161,110.604,412.586,110.604z" fill="#364D5C"/></g></g><g><rect fill="#FFFFFF" height="22.733" width="313.588" x="98.794" y="109.237"/><rect height="11.366" opacity="0.25" width="313.588" x="98.794" y="120.604"/></g></g><rect fill="#364D5C" height="8.053" width="315.085" x="98.458" y="319.825"/></g></g></g></g></svg>