<?xml version="1.0" ?><!DOCTYPE svg  PUBLIC '-//W3C//DTD SVG 1.1//EN'  'http://www.w3.org/Graphics/SVG/1.1/DTD/svg11.dtd'><svg enable-background="new 0 0 512 512" id="Layer_1" version="1.1" viewBox="0 0 512 512" xml:space="preserve" xmlns="http://www.w3.org/2000/svg" xmlns:xlink="http://www.w3.org/1999/xlink"><g><circle cx="256" cy="256" fill="#90DFAA" r="253"/><g><path d="M166.1,398.2L166.1,398.2l-0.3-0.3l-1.1-1.1l0,0L113.8,346h0l-1.4-1.4c-2.9,2.9-4.5,7-4.5,12    c0,9.8,6.1,21.9,15.9,31.6c10.2,10.2,22.1,15.9,31.6,15.9c4.8,0,9-1.5,12.1-4.5L166.1,398.2z" fill="#FF7058"/><path d="M222.5,364.7c14.2-14.2,33.8-21.5,53.9-20.5c31,1.5,62.6-9.6,86.3-33.2c47.6-47.5,44.4-126.6-9.8-169.8    c-41.6-33.2-102-32.8-143.2,1c-28.4,23.3-42.4,56.6-41.9,89.8c0.3,20.7-6.4,40.8-19.6,56.5" fill="#FFFFFF"/><path d="M224.5,361.9l-74.3-74.1c-4.8-4.7-12.5-4.8-17.3,0l-0.8,0.8c-2.3,2.3-3.6,5.4-3.6,8.6    c0,0.9,0.1,1.7,0.3,2.6c-3.9-0.8-8.2,0.2-11.2,3.3l-0.8,0.8c-2.3,2.3-3.6,5.4-3.6,8.6c0,0.9,0.1,1.7,0.3,2.6    c-3.9-0.8-8.2,0.2-11.2,3.3l-0.8,0.8c-2.3,2.3-3.6,5.4-3.6,8.6c0,3.3,1.3,6.3,3.6,8.6l74.3,74.1c2.4,2.4,5.5,3.6,8.6,3.6    c3.1,0,6.3-1.2,8.6-3.6l0.8-0.8c2.3-2.3,3.6-5.4,3.6-8.6c0-0.9-0.1-1.7-0.3-2.6c0.8,0.2,1.7,0.3,2.6,0.3c3.1,0,6.2-1.2,8.6-3.6    l0.8-0.8c2.3-2.3,3.6-5.4,3.6-8.6c0-0.9-0.1-1.7-0.3-2.6c0.8,0.2,1.7,0.3,2.6,0.3c3.1,0,6.3-1.2,8.6-3.6l0.8-0.8    c2.3-2.3,3.6-5.4,3.6-8.6C228.1,367.2,226.8,364.2,224.5,361.9z" fill="#E6E9EE"/><path d="M215,383.5c-3.1,0-6.2-1.2-8.6-3.6l-74.3-74.1c-2.3-2.3-3.6-5.4-3.6-8.6c0-3.3,1.3-6.3,3.6-8.6l0.8-0.8    c4.8-4.8,12.5-4.7,17.3,0l74.3,74.1c2.3,2.3,3.6,5.4,3.6,8.6c0,3.3-1.3,6.3-3.6,8.6l-0.8,0.8C221.3,382.3,218.2,383.5,215,383.5z     M209.2,377.2c3.2,3.2,8.5,3.2,11.7,0l0.8-0.8c1.6-1.6,2.4-3.6,2.4-5.8c0-2.2-0.9-4.3-2.4-5.8l-74.3-74.1c-3.2-3.2-8.5-3.2-11.7,0    l-0.8,0.8c-1.6,1.6-2.4,3.6-2.4,5.8c0,2.2,0.9,4.3,2.4,5.8L209.2,377.2z" fill="#ACB3BA"/><path d="M199.7,398.8c-3.1,0-6.3-1.2-8.6-3.6l-74.3-74.1c-2.3-2.3-3.6-5.4-3.6-8.6c0-3.3,1.3-6.3,3.6-8.6l0.8-0.8    c4.8-4.7,12.5-4.8,17.3,0l74.3,74.1c2.3,2.3,3.6,5.4,3.6,8.6c0,3.3-1.3,6.3-3.6,8.6l-0.8,0.8C205.9,397.6,202.8,398.8,199.7,398.8    z M126.3,303.4c-2.1,0-4.2,0.8-5.9,2.4l-0.8,0.8c-1.6,1.6-2.4,3.6-2.4,5.8c0,2.2,0.9,4.3,2.4,5.8l74.3,74.1    c3.2,3.2,8.5,3.2,11.7,0l0.8-0.8c1.6-1.6,2.4-3.6,2.4-5.8c0-2.2-0.9-4.3-2.4-5.8l-74.3-74.1C130.5,304.2,128.4,303.4,126.3,303.4z    " fill="#ACB3BA"/><path d="M184.4,414.1c-3.1,0-6.3-1.2-8.6-3.6l-74.3-74.1c-2.3-2.3-3.6-5.4-3.6-8.6c0-3.3,1.3-6.3,3.6-8.6l0.8-0.8    c4.8-4.7,12.5-4.7,17.3,0l74.3,74.1c2.3,2.3,3.6,5.4,3.6,8.6s-1.3,6.3-3.6,8.6l-0.8,0.8C190.6,412.9,187.5,414.1,184.4,414.1z     M178.5,407.8c3.2,3.2,8.5,3.2,11.7,0l0.8-0.8c1.6-1.6,2.4-3.6,2.4-5.8c0-2.2-0.9-4.3-2.4-5.8l-74.3-74.1c-3.2-3.2-8.5-3.2-11.7,0    l-0.8,0.8c-1.6,1.6-2.4,3.6-2.4,5.8c0,2.2,0.9,4.3,2.4,5.8L178.5,407.8z" fill="#ACB3BA"/><path d="M299.5,244c-8.6,8.6-22.6,8.6-31.2,0s-8.6-22.5,0-31.1c8.6-8.6,22.6-8.6,31.2,0    C308.2,221.5,308.2,235.4,299.5,244z" fill="#F9B54C"/><rect fill="#324A5E" height="12" transform="matrix(0.7061 0.7081 -0.7081 0.7061 208.7988 -221.2902)" width="7.9" x="367.1" y="134.9"/><rect fill="#324A5E" height="7.9" transform="matrix(0.7079 0.7063 -0.7063 0.7079 334.2556 -168.6221)" width="12" x="365" y="315.9"/><rect fill="#324A5E" height="7.9" transform="matrix(0.7079 0.7063 -0.7063 0.7079 155.5116 -94.2293)" width="12" x="185.7" y="137"/><rect fill="#324A5E" height="7.9" width="12" x="402.1" y="226.4"/><rect fill="#324A5E" height="7.9" width="12" x="148.6" y="226.4"/><rect fill="#324A5E" height="12" width="7.9" x="277.4" y="350.9"/><rect fill="#324A5E" height="12" width="7.9" x="277.4" y="97.9"/><path d="M350.7,212.1c-1.9-1.1-3.8-2.1-5.8-3.2c1-2,2-4,2.9-6c3.2-0.1,6.2-1.3,8.4-3.6c2.3-2.3,3.6-5.4,3.6-8.7    c0-3.3-1.3-6.4-3.6-8.7c-0.7-0.7-1.5-1.3-2.3-1.8c0.2-7-1.6-12.4-5.4-16.3c-3.6-3.6-8.7-5.5-15.2-5.5c-8.3,0-18.6,3.2-29.7,8.9    c-9.3-18.1-20.6-29.1-31.9-29.1c-0.9,0-1.9,0.1-2.8,0.2c-6.2,1-11.6,5.6-15.7,13.2c-0.2,0-0.4-0.1-0.6-0.1c-3.3,0-6.4,1.3-8.7,3.6    c-2.3,2.3-3.6,5.4-3.6,8.7c0,3.3,1.3,6.4,3.6,8.7c0.7,0.7,1.4,1.2,2.2,1.7c-0.8,4.6-1.3,9.5-1.6,14.6    c-29.2,1.6-48.3,10.6-50.6,24.4c-0.8,4.9,0.5,10,4.1,15.1c-0.7,1.5-1.1,3.2-1.1,5c0,3.3,1.3,6.4,3.6,8.7c2.3,2.3,5.4,3.6,8.7,3.6    c2.3,0,4.6-0.7,6.5-1.9c2.3,1.4,4.7,2.7,7.2,4c-5.8,11.2-9,21.5-9,29.8c0,6.4,1.8,11.5,5.5,15.1c3.6,3.6,8.7,5.5,15.2,5.5    c8.3,0,18.6-3.2,29.7-8.9c9.3,18.1,20.6,29.1,31.9,29.1c0.9,0,1.9-0.1,2.8-0.2c6.3-1.1,11.8-5.8,16-13.7c3.2,0,6.3-1.3,8.6-3.6    c2.3-2.3,3.6-5.4,3.6-8.7c0-3.3-1.3-6.4-3.6-8.7c-0.5-0.5-1.1-1-1.7-1.4c0.8-4.6,1.3-9.4,1.6-14.4c29.2-1.6,48.3-10.6,50.6-24.4    C375.7,233,367.5,221.8,350.7,212.1z M314.2,280.2c-0.3,0-0.5,0.1-0.8,0.1c-0.4,0-0.8,0.1-1.3,0.2c-0.4,0.1-0.8,0.2-1.2,0.4    c-0.3,0.1-0.7,0.2-1,0.3c-0.4,0.2-0.8,0.4-1.3,0.7c-0.3,0.1-0.5,0.3-0.8,0.4c-0.6,0.4-1.2,0.9-1.8,1.5c-2.3,2.3-3.6,5.4-3.6,8.7    c0,1.4,0.3,2.8,0.8,4.1c0.1,0.2,0.1,0.4,0.2,0.6c0,0.1,0.1,0.2,0.1,0.2c0.6,1.4,1.4,2.6,2.5,3.7c0,0,0.1,0.1,0.1,0.1    c0.4,0.3,0.7,0.7,1.1,1c-2.1,3.7-5.4,7.7-9.7,8.4c-0.5,0.1-1,0.1-1.5,0.1c-7.4,0-16.7-9.3-24.8-25.2c8.2-4.9,16.6-10.9,25-18    c5.9,0.5,11.7,0.8,17.3,0.8c0.6,0,1.2,0,1.8,0C315.2,272.3,314.8,276.4,314.2,280.2z M220.9,237.1c0.2-0.7,0.4-1.4,0.5-2.1    c0-0.4,0.1-0.7,0.1-1.1c0-0.2,0-0.3,0-0.5c0-0.2,0-0.3-0.1-0.5c0-0.4-0.1-0.8-0.1-1.2c0-0.3-0.1-0.7-0.2-1    c-0.1-0.6-0.3-1.1-0.5-1.7c-0.1-0.3-0.2-0.5-0.4-0.8c-0.2-0.4-0.4-0.8-0.6-1.2c-0.1-0.2-0.3-0.4-0.4-0.6c-0.4-0.6-0.8-1.1-1.4-1.7    c-2.3-2.3-5.4-3.6-8.7-3.6c0,0,0,0,0,0c0,0,0,0,0,0c-0.9,0-1.8,0.1-2.7,0.3c-0.2,0-0.4,0.1-0.6,0.2c-0.7,0.2-1.3,0.4-2,0.7    c-0.1,0.1-0.2,0.1-0.3,0.1c-1.6-2.8-2.3-5.4-1.9-7.9c1.6-9.5,18.2-16.2,42.6-17.7c-0.1,6.1,0.2,12.4,0.7,19    c-7.2,8.4-13.3,16.9-18.2,25.1c-2.1-1.1-4.2-2.2-6.1-3.3C220.8,237.5,220.8,237.3,220.9,237.1z M253.8,176.2    c0.2,0,0.4-0.1,0.6-0.1c0.4-0.1,0.7-0.1,1.1-0.2c0.4-0.1,0.8-0.2,1.2-0.4c0.3-0.1,0.6-0.2,0.9-0.3c0.4-0.2,0.8-0.4,1.3-0.7    c0.2-0.1,0.5-0.3,0.7-0.4c0.6-0.4,1.2-0.9,1.8-1.4c2.3-2.3,3.6-5.4,3.6-8.7v0v0c0-0.5-0.1-0.9-0.1-1.4c-0.3-2.8-1.5-5.3-3.5-7.3    c0,0,0,0,0,0c-0.2-0.2-0.4-0.4-0.7-0.6c2.1-3.7,5.4-7.6,9.7-8.3c0.5-0.1,1-0.1,1.5-0.1c7.4,0,16.7,9.3,24.8,25.2    c-8.2,4.9-16.6,10.9-25,18c-5.9-0.5-11.7-0.8-17.3-0.8c-0.6,0-1.2,0-1.8,0C252.7,184.4,253.1,180.2,253.8,176.2z M345.8,178.7    c-0.5,0.1-0.9,0.2-1.4,0.3c-0.2,0.1-0.5,0.1-0.7,0.2c-0.4,0.1-0.9,0.3-1.3,0.5c-0.3,0.1-0.6,0.3-0.8,0.4c-0.3,0.2-0.7,0.4-1,0.6    c-0.6,0.4-1.2,0.9-1.7,1.4c-0.6,0.6-1.1,1.2-1.5,1.9c-1.3,2-2.1,4.3-2.1,6.8v0v0c0,2.5,0.8,5,2.2,7c0.4,0.6,0.9,1.2,1.4,1.7    c0.4,0.4,0.9,0.8,1.4,1.2c-0.7,1.6-1.6,3.3-2.5,4.9c-6.9-3-14.6-5.8-22.7-8.1c-2.3-8.3-5-15.9-8-22.7c10.1-5.3,19.3-8.3,26.3-8.3    c4.2,0,7.4,1.1,9.6,3.2c2,2,3,5,3.1,9C345.9,178.6,345.8,178.6,345.8,178.7z M304.7,249.1c-3.5,3.5-7.2,6.9-10.8,10.1    c-4.9-0.5-9.8-1.1-14.7-1.9c-6.8-1.1-13.4-2.6-19.8-4.3c-1.6-6.2-3.1-12.8-4.3-19.7c-0.8-4.9-1.5-9.8-2-14.6    c3.2-3.6,6.6-7.3,10.1-10.8c3.5-3.5,7.2-6.9,10.8-10.1c4.9,0.5,9.8,1.1,14.7,1.9c6.8,1.1,13.4,2.6,19.8,4.3    c1.6,6.2,3.1,12.8,4.3,19.8c0.8,4.9,1.5,9.8,1.9,14.6C311.6,241.9,308.2,245.6,304.7,249.1z M320.6,222.3    c-0.9-5.5-2-10.8-3.2-15.9c5.8,1.8,11.4,3.8,16.5,6.1c-3.5,5.7-7.6,11.6-12.2,17.4C321.4,227.4,321.1,224.9,320.6,222.3z     M290.1,191.9c-2.5-0.4-5-0.8-7.5-1.1c5.9-4.6,11.7-8.6,17.4-12.1c2.2,5,4.2,10.5,6.1,16.4C300.9,193.9,295.5,192.8,290.1,191.9z     M263.2,196.9c-1.8,1.7-3.7,3.5-5.5,5.3c-1.8,1.8-3.6,3.7-5.3,5.5c-0.2-3.7-0.3-7.4-0.2-11c0.8,0,1.7,0,2.5,0    C257.5,196.7,260.3,196.8,263.2,196.9z M247.3,234.6c0.9,5.5,2,10.8,3.2,15.9c-5.8-1.8-11.4-3.9-16.5-6.1    c3.4-5.7,7.5-11.5,12.2-17.4C246.5,229.5,246.9,232,247.3,234.6z M277.8,265.1c2.5,0.4,5,0.8,7.5,1.1c-5.9,4.6-11.7,8.6-17.4,12.1    c-2.2-5-4.2-10.5-6.1-16.4C267.1,263,272.4,264.1,277.8,265.1z M304.7,260c1.8-1.7,3.7-3.5,5.5-5.3c1.8-1.8,3.6-3.7,5.3-5.5    c0.2,3.7,0.3,7.4,0.2,11c-0.8,0-1.7,0-2.5,0C310.4,260.2,307.6,260.1,304.7,260z M252.8,259.4c2.3,8.3,5.1,16,8.1,22.8    c-10.1,5.3-19.3,8.3-26.3,8.3c-4.2,0-7.4-1.1-9.6-3.2c-2.1-2.1-3.2-5.3-3.2-9.6c0-7.2,3-16.4,8.3-26.5    C237.1,254.3,244.7,257,252.8,259.4z M322.9,240.9c7.1-8.3,13.2-16.9,18.1-25.1c2,1,3.9,2,5.7,3.1c13.3,7.8,20.6,16.5,19.5,23.3    c-1.6,9.5-18.2,16.2-42.6,17.7C323.7,253.8,323.5,247.4,322.9,240.9z" fill="#324A5E"/></g></g></svg>