<?xml version="1.0" ?><!DOCTYPE svg  PUBLIC '-//W3C//DTD SVG 1.1//EN'  'http://www.w3.org/Graphics/SVG/1.1/DTD/svg11.dtd'><svg enable-background="new 0 0 512 512" height="512px" id="Layer_1" version="1.1" viewBox="0 0 512 512" width="512px" xml:space="preserve" xmlns="http://www.w3.org/2000/svg" xmlns:xlink="http://www.w3.org/1999/xlink"><g><path d="M512,256c0,141.39-114.62,256-256,256c-11.47,0-22.77-0.75-33.84-2.221C96.76,493.22,0,385.92,0,256    C0,114.62,114.61,0,256,0c127.96,0,234,93.89,252.97,216.53C510.97,229.4,512,242.581,512,256z" fill="#6A9CCC"/><path d="M512,256c0,141.39-114.62,256-256,256c0,0-189.866-158.246-190.11-158.511c-0.54-0.52-1.09-1.05-1.6-1.6    c-4.07-3.92-7.49-8.7-9.94-14.24l-2.04-4.6c-8.7-19.66-2.34-41.99,14.09-52.931c1.82-1.21,3.77-2.289,5.83-3.21l1.18-0.52    l5.7-2.53l-4.63-7.56c-2.69-4.4-1.31-10.15,3.09-12.84l2.69-1.65c2.11-1.3,4.63-1.7,7.04-1.12c1.97,0.47,3.69,1.58,4.96,3.12    c0.79,0.57,1.49,1.271,2.07,2.07c0.38,0.33,0.73,0.7,1.06,1.1c0.58,0.42,1.1,0.91,1.57,1.45c0.76-0.87,1.51-1.72,2.19-2.561v-0.01    l0.18-0.029c1.07-1.141,2.32-2.25,3.44-3.36c18.41-18.101,80.28-29.94,130.52-135.04c2.29-26.6,11.62-46.12,28.04-53.6    c21.83-9.93,51.5,3.58,80.26,32.79c0.53,0.52,1.05,1.04,1.58,1.57c18.807,18.824,18.22,18.22,18.22,18.22l7.09-21.669    c1.12-3.42,7.08-4.54,13.3-2.5c3.43,1.12,6.22,2.97,7.86,4.97c0.495,0.414,119.221,119.188,119.33,119.32    C510.97,229.4,512,242.581,512,256z" opacity="0.15"/><g><g><path d="M71.275,332.562l-2.038-5.387c-6.641-17.551-4.507-36.903,4.169-50.784l-1.172,0.521      c-2.067,0.914-4.011,1.994-5.835,3.212c-16.432,10.94-22.792,33.262-14.087,52.924l2.04,4.606      c6.811,15.381,21.026,25.025,36.056,26.196c4.378,0.34,8.825-0.052,13.181-1.215C89.979,359.882,77.517,349.056,71.275,332.562z      " fill="#003C82"/><path d="M117.256,357.121c6.422-2.845,9.193-10.652,6.187-17.439l-26.188-59.149      c-3.004-6.788-10.647-9.984-17.07-7.141l-6.778,3c-8.676,13.881-10.811,33.233-4.169,50.784l2.038,5.387      c6.242,16.494,18.704,27.32,32.313,30.074c1.926-0.513,3.839-1.163,5.716-1.997L117.256,357.121z" fill="#002F66"/></g><path d="M109.588,308.386l-12.333-27.854c-3.004-6.788-10.647-9.984-17.07-7.141l-7.95,3.521     c-2.067,0.914-4.011,1.994-5.835,3.212c-16.432,10.94-22.792,33.262-14.087,52.924L109.588,308.386z" fill="#FFFFFF" opacity="0.1"/><path d="M103.457,271.775l-18.636,11.412l-10.334-16.884c-2.695-4.398-1.312-10.149,3.088-12.844l2.701-1.653     c2.113-1.295,4.653-1.696,7.063-1.116c2.408,0.577,4.488,2.091,5.783,4.204L103.457,271.775z" fill="#CC3333"/><path d="M103.457,271.775l-9.864,6.041l-14.71-25.154l1.394-0.855c2.113-1.295,4.653-1.696,7.063-1.116     c2.41,0.577,4.49,2.091,5.783,4.204L103.457,271.775z" opacity="0.2"/><g><path d="M85.749,318.998c4.248,13.269,12.42,25.126,23.972,31.833c4.93,2.86,8.141,5.14,16.282,4.679      c33.135-1.891,109.682-27.684,203.941-8.427l-11.632-131.628L85.749,318.998z" fill="#BDC3C7"/><path d="M251.111,74.478c-52.272,145.247-127.68,157.671-148.345,177.998c-4.755,4.676-9.17,9.585-12.543,15.378      c-3.392,5.823-5.744,12.238-6.91,18.88c-1.827,10.404-0.923,21.774,2.436,32.265l232.564-103.543L251.111,74.478z" fill="#ECF0F1"/></g><path d="M402.193,188.053c39.22,86.165,39.734,170.252,1.155,187.811     c-38.577,17.563-101.646-38.054-140.866-124.218c-39.218-86.165-39.736-170.251-1.156-187.811     C299.907,46.273,362.971,101.889,402.193,188.053z" fill="#B02020"/><g><path d="M397.701,190.119c-38.516-84.556-96.708-140.833-129.979-125.698      c-29.255,13.305-29.494,77.398-2.938,150.164l42.944-20.008c10.216-4.762,22.419-0.228,27.25,10.13l8.105,17.37      c1.809,3.87,2.36,8.171,1.659,12.311c1.94,4.73,2.191,9.969,0.638,14.699c-1.658,5.057-5.212,9.113-9.878,11.292l-40.679,18.951      c37.05,64.776,83.864,104.255,112.375,91.286C440.469,355.486,436.216,274.671,397.701,190.119z" fill="#BDC3C7"/><path d="M345.525,249.69c1.582-4.824,1.326-10.16-0.651-14.984c-0.203,1.197-0.493,2.386-0.904,3.541      c-1.861,5.23-5.716,9.477-10.712,11.809l-44.565,20.782c1.76,3.279,3.543,6.502,5.352,9.668l41.421-19.313      C340.217,258.977,343.835,254.837,345.525,249.69z" fill="#34495E"/><path d="M309.394,205.276c9.895-4.613,21.905,0.199,26.826,10.754l8.251,17.702      c0.15,0.318,0.269,0.649,0.403,0.974c0.714-4.215,0.153-8.593-1.688-12.541l-8.253-17.702      c-4.921-10.552-17.344-15.176-27.747-10.323l-43.729,20.388c1.25,3.431,2.558,6.876,3.923,10.337L309.394,205.276z" fill="#E67E22"/><path d="M336.22,216.03c-4.921-10.555-16.931-15.367-26.826-10.754l-42.013,19.588      c2.689,6.813,5.601,13.679,8.738,20.572c3.998,8.785,8.206,17.262,12.573,25.401l44.565-20.782      c4.996-2.332,8.851-6.578,10.712-11.809c0.411-1.155,0.701-2.344,0.904-3.541c-0.135-0.324-0.253-0.655-0.403-0.974      L336.22,216.03z" fill="#D35400"/></g><g><path d="M397.701,190.119l-58.242,24.186l3.625,7.772c1.809,3.87,2.36,8.171,1.659,12.311      c1.94,4.73,2.191,9.969,0.638,14.699c-1.658,5.057-5.212,9.113-9.878,11.292l-40.679,18.951      c37.05,64.776,83.864,104.255,112.375,91.286C440.469,355.486,436.216,274.671,397.701,190.119z" opacity="0.2"/><path d="M345.525,249.69c1.582-4.824,1.326-10.16-0.651-14.984c-0.203,1.197-0.493,2.386-0.904,3.541      c-1.861,5.23-5.716,9.477-10.712,11.809l-44.565,20.782c1.76,3.279,3.543,6.502,5.352,9.668l41.421-19.313      C340.217,258.977,343.835,254.837,345.525,249.69z" fill="#45617D"/><path d="M309.394,205.276c9.895-4.613,21.905,0.199,26.826,10.754l8.251,17.702      c0.15,0.318,0.269,0.649,0.403,0.974c0.714-4.215,0.153-8.593-1.688-12.541l-8.253-17.702      c-4.921-10.552-17.344-15.176-27.747-10.323l-43.729,20.388c1.25,3.431,2.558,6.876,3.923,10.337L309.394,205.276z" fill="#E67E22"/><path d="M336.22,216.03c-4.921-10.555-16.931-15.367-26.826-10.754l-42.013,19.588      c2.689,6.813,5.601,13.679,8.738,20.572c3.998,8.785,8.206,17.262,12.573,25.401l44.565-20.782      c4.996-2.332,8.851-6.578,10.712-11.809c0.411-1.155,0.701-2.344,0.904-3.541c-0.135-0.324-0.253-0.655-0.403-0.974      L336.22,216.03z" fill="#D35400"/><path d="M340.555,216.657c1.797,3.85,3.876,7.629,4.351,11.92      c0.2,1.784,1.128,10.064,1.276,11.121c0.514,3.652,0.082,7.43-1.342,10.839c-1.856,4.459-5.289,7.954-9.65,9.984      c-1.995,0.931-3.989,1.86-5.983,2.79c-10.484,4.884-20.968,9.77-31.453,14.655c0.395,0.752,112.463,90.391,112.711,90.869      c7.596-4.829,12.165-13.088,14.875-21.45c3.733-11.518,4.521-23.914,4.224-35.945c-0.2-8.207-0.976-16.396-2.141-24.518      C427.297,286.822,346.572,221.727,340.555,216.657z" fill="#34495E" opacity="0.1"/></g><path d="M339.142,214.455c5.537,12.287,7.475,23.396,4.334,24.813c-3.143,1.414-10.179-7.399-15.716-19.689     c-5.538-12.29-7.477-23.398-4.334-24.818C326.57,193.346,333.605,202.162,339.142,214.455z" fill="#002F66"/><path d="M338.301,214.831c4.719,10.474,7.113,19.608,5.349,20.403c-1.762,0.796-7.018-7.049-11.736-17.528     c-4.719-10.474-7.113-19.608-5.351-20.406C328.328,196.509,333.582,204.356,338.301,214.831z" fill="#2980B9"/><path d="M151.816,351.893c-19.373-6.15-38.217-27.762-47.552-56.466c-4.15-12.753-5.22-27.761-4.826-39.563     l5.444-5.29c-0.998,12.551-0.084,29.88,4.271,43.263c10.824,33.267,35.43,57.238,56.602,55.572L151.816,351.893z" fill="#B02020"/><path d="M462.494,174.89c-2.109-6.201-6.583-10.292-9.987-9.134l-77.261,26.261     c-3.403,1.158-4.456,7.124-2.346,13.329l0,0c2.109,6.207,6.578,10.295,9.984,9.14l77.261-26.262     C463.551,187.067,464.603,181.098,462.494,174.89L462.494,174.89z" fill="#FFFFFF" opacity="0.7"/><path d="M381.784,92.239c-6.227-2.036-12.18-0.917-13.301,2.505l-25.374,77.558     c-1.118,3.417,3.024,7.842,9.254,9.878l0,0c6.227,2.036,12.183,0.917,13.303-2.502l25.373-77.559     C392.156,98.703,388.017,94.28,381.784,92.239L381.784,92.239z" fill="#FFFFFF" opacity="0.5"/><path d="M443.933,290.311c3.762-5.365,4.421-11.391,1.477-13.453l-66.823-46.834     c-2.948-2.066-8.384,0.612-12.141,5.975l0,0c-3.762,5.367-4.424,11.389-1.479,13.456l66.823,46.833     C434.735,298.355,440.171,295.679,443.933,290.311L443.933,290.311z" fill="#FFFFFF" opacity="0.5"/></g></g></svg>