<?xml version="1.0" ?><!DOCTYPE svg  PUBLIC '-//W3C//DTD SVG 1.1//EN'  'http://www.w3.org/Graphics/SVG/1.1/DTD/svg11.dtd'><svg enable-background="new 0 0 512 512" height="512px" id="Layer_1" version="1.1" viewBox="0 0 512 512" width="512px" xml:space="preserve" xmlns="http://www.w3.org/2000/svg" xmlns:xlink="http://www.w3.org/1999/xlink"><g><g><path d="M256.002,0C114.621,0,0,114.616,0,256C0,386.424,97.549,494.07,223.663,509.97     c10.583,1.347,21.379,2.03,32.339,2.03C397.386,512,512,397.377,512,256c0-10.962-0.689-21.762-2.029-32.361     C494.063,97.531,386.418,0,256.002,0z" fill="#BED8E5"/><path d="M403.578,117.254c-36.94-39.285-89.384-63.832-147.576-63.832C144.13,53.423,53.435,144.124,53.435,256     c0,58.177,24.538,110.623,63.825,147.569l106.403,106.4c10.583,1.347,21.379,2.03,32.339,2.03C397.386,512,512,397.377,512,256     c0-10.962-0.689-21.762-2.029-32.361C456.155,169.816,403.585,117.262,403.578,117.254z" opacity="0.2"/><path d="M256.005,53.431C144.13,53.431,53.438,144.124,53.438,256c0,111.87,90.692,202.563,202.567,202.563     c111.882,0,202.564-90.692,202.564-202.563C458.569,144.124,367.887,53.431,256.005,53.431z" fill="#0D2038"/><path d="M255.991,78.562c-97.843,0-177.435,79.601-177.435,177.439c0,29.477,7.235,57.292,20.007,81.785     c2.736,5.231,8.155,8.516,14.057,8.516h285.885c6.447,0,12.38-3.616,15.33-9.347c12.217-23.708,19.241-50.492,19.57-78.87     c0.018-0.692,0.018-1.384,0.018-2.084C433.423,158.162,353.82,78.562,255.991,78.562z" fill="#FFFFFF"/><path d="M205.695,95.554c-4.03,1.299-7.207,2.385-11.349,4.023l0,0c-13.906,5.493-27.662,13.116-40.522,22.984     l33.438,43.57c19.889-15.262,43.653-23.331,68.723-23.331V87.877c-0.399,0-0.686,0-0.686,0     C239.57,87.877,219.968,90.947,205.695,95.554z" fill="#ACC364"/><path d="M147.17,127.938c-4.121,3.493-8.47,7.608-11.017,10.247c-8.214,8.361-15.204,17.161-21.462,26.792     c-1.62,2.5-3.17,5.045-4.562,7.476h-0.003c-5.052,8.846-9.481,17.992-13.483,29.893c-0.542,1.593-0.469,1.423-0.752,2.27     c-0.326,1.022-0.452,1.422-0.812,2.592c-0.199,0.661-0.329,1.1-0.556,1.884c-0.003,0.008-0.165,0.562-0.213,0.731     c-0.357,1.246-0.297,1.069-0.56,2c-0.126,0.477-0.2,0.739-0.2,0.739c-0.602,2.254-1.158,4.53-1.668,6.816l53.606,11.954     c5.356-24.008,18.797-46.046,37.849-62.046l-35.32-42.062C148.017,127.223,147.174,127.932,147.17,127.938z" fill="#69BE7F"/><path d="M144.512,236.231l-54.089-9.546c-0.021,0.092-1.287,7.801-1.189,7.801     c-0.094,0.754-0.294,2.407-0.371,3.161h-0.003c-0.343,3.293-0.756,7.87-0.843,11.169c0,0.016,0,0.023,0,0.039     c-0.003,0.031-0.003,0.062-0.003,0.092c0,0.016-0.004,0.023-0.004,0.031c0,0.031-0.007,0.13-0.007,0.13     c0,0.023-0.01,0.27-0.01,0.293c-0.003,0.077-0.003,0.138-0.003,0.138c-0.004,0.039-0.004,0.084-0.004,0.123     c-0.003,0.023-0.007,0.123-0.007,0.131c0,0.008-0.003,0.115-0.003,0.123c0,0.008-0.011,0.285-0.014,0.292     c0,0.022-0.003,0.115-0.003,0.138c0,0.016-0.003,0.108-0.003,0.131c0,0.015-0.003,0.108-0.003,0.13     c0,0.008-0.003,0.108-0.003,0.124c0,0.008-0.004,0.123-0.004,0.123c0,0.023-0.003,0.161-0.003,0.161     c-0.752,27.724,5.094,56,18.797,82.331l48.722-25.354c-8.407-16.161-12.671-33.653-12.671-51.992     C142.787,249.354,143.368,242.701,144.512,236.231z" fill="#2DD9B5"/><path d="M368.272,241.547c0.609,4.753,0.913,9.615,0.913,14.453c0,19.946-5.275,39.562-15.271,56.708     l47.463,27.647c4.093-7.023,7.689-14.378,10.744-21.993v-0.008c0.063-0.154,0.126-0.308,0.192-0.469     c0.186-0.478,0.371-0.946,0.556-1.423c0.854-2.239,1.784-4.769,2.547-7.054c0,0,0.102-0.3,0.483-1.461     c0.245-0.761,3.348-10.923,3.348-11.723c0.003-0.007,0.249-1.016,0.245-1.008c0-0.016,0.416-1.746,0.416-1.769     c4.104-14.631,4.205-37.446,4.205-37.446c0-6.978-0.427-14.131-1.361-21.399L368.272,241.547z" fill="#D6310F"/><path d="M407.167,182.47c-0.245-0.462-3.774-7.592-4.177-8c-0.077-0.139-0.822-1.461-1.312-2.308     c-1.357-2.392-3.211-5.331-4.16-6.823c-5.706-9.015-11.387-16.077-18.181-23.462c-2.924-3.154-5.916-6.168-9.372-9.361     l-37.269,40.345c18.269,16.87,30.639,39.508,34.833,63.739l54.117-9.369c-2.764-15.955-8.826-33.724-14.382-44.555     C407.258,182.662,407.174,182.493,407.167,182.47z" fill="#ED6724"/><path d="M335.485,107.885c-0.717-0.393-2.253-1.192-2.253-1.192c-0.028-0.016-3.03-1.546-3.058-1.546     c-2.281-1.116-2.701-1.308-2.701-1.308c-19.57-8.861-39.136-14.63-63.481-15.776l-2.585,54.862     c24.982,1.176,48.327,10.376,67.516,26.6l35.463-41.938c-8.956-7.57-17.632-13.401-27.102-18.716     C335.485,107.885,335.485,107.885,335.485,107.885z" fill="#EFC849"/><g><polygon fill="#0D2038" points="256.068,298.54 314.197,138.831 314.215,138.723 229.771,288.962     "/><polygon fill="#FFFFFF" opacity="0.2" points="256.068,298.54 314.197,138.831 314.215,138.723 229.771,288.962     "/><polygon fill="#0D2038" points="282.334,308.093 314.197,138.831 256.068,298.54     "/></g><g><path d="M256.002,273.908c-13.689,0-24.786,11.1-24.786,24.792c0,13.693,11.097,24.786,24.786,24.786      c13.696,0,24.786-11.093,24.786-24.786C280.788,285.008,269.698,273.908,256.002,273.908z" fill="#0D2038"/><path d="M256.002,269.723c-15.974,0-28.974,13-28.974,28.977s13,28.977,28.974,28.977      c15.98,0,28.98-13,28.98-28.977S271.982,269.723,256.002,269.723z M256.002,319.301c-11.356,0-20.595-9.247-20.595-20.601      c0-11.361,9.239-20.6,20.595-20.6c11.359,0,20.598,9.239,20.598,20.6C276.6,310.054,267.361,319.301,256.002,319.301z" fill="#F3735C"/></g><path d="M255.984,78.569c-97.836,0-177.432,79.593-177.432,177.431     c0,29.477,7.238,57.292,20.011,81.785c1.687,3.223,4.391,5.7,7.602,7.139c-52.619-113.77,30.996-244.639,156.647-244.639     c85.679,0,156.959,62.801,170.26,144.785C427.405,152.3,350.15,78.569,255.984,78.569z" fill="#231F20" opacity="0.2"/><path d="M331.011,380.008c-0.979-3.423-4.118-5.785-7.679-5.785c-44.556,0-89.108,0-133.663,0     c-3.565,0-6.696,2.354-7.679,5.785c-3.278,11.431-6.556,22.862-9.831,34.293c-0.689,2.415-0.21,5.007,1.302,7.015     c1.508,2.001,3.869,3.177,6.377,3.177c51.108,0,102.216,0,153.324,0c2.508,0,4.87-1.176,6.381-3.177     c1.508-2.008,1.991-4.6,1.298-7.015C337.567,402.871,334.289,391.439,331.011,380.008z" fill="#EDEDED"/><g opacity="0.3"><polygon points="195.056,402.316 197.173,404.655 207.15,404.655 209.714,402.316 207.553,399.978 197.579,399.978     "/><polygon points="207.734,391.254 212.814,386.578 194.654,386.578 198.922,391.254     "/><polygon points="197.376,398.493 197.915,392.17 193.664,387.493 192.632,399.662 194.199,401.462     "/><polygon points="196.991,413.371 191.911,418.047 210.071,418.047 205.803,413.371     "/><polygon points="207.934,398.493 210.593,401.462 212.527,399.662 213.58,387.462 208.49,392.07     "/><polygon points="207.276,406.131 206.727,412.47 211.016,417.147 212.023,404.962 210.456,403.208     "/><polygon points="222.704,402.316 224.821,404.655 234.794,404.655 237.362,402.316 235.2,399.978 225.223,399.978     "/><polygon points="235.382,391.254 240.462,386.578 222.302,386.578 226.57,391.254     "/><polygon points="224.639,413.371 219.559,418.047 237.719,418.047 233.451,413.371     "/><polygon points="235.599,398.493 238.254,401.462 240.192,399.662 241.228,387.462 236.142,392.07     "/><polygon points="224.376,406.139 221.718,403.216 219.783,404.97 218.751,417.139 223.837,412.47     "/><polygon points="252.283,413.371 247.203,418.047 265.367,418.047 261.095,413.371     "/><polygon points="250.348,402.316 252.465,404.655 262.442,404.655 265.003,402.316 262.845,399.978 252.871,399.978     "/><polygon points="263.026,391.254 268.106,386.578 249.946,386.578 254.214,391.254     "/><polygon points="263.226,398.493 265.885,401.462 267.819,399.662 268.872,387.462 263.782,392.07     "/><polygon points="262.568,406.131 262.019,412.47 266.308,417.147 267.315,404.962 265.752,403.208     "/><polygon points="295.754,386.578 277.594,386.578 281.862,391.254 290.674,391.254     "/><polygon points="290.216,406.131 289.67,412.47 293.952,417.163 294.967,404.962 293.396,403.208     "/><polygon points="290.874,398.493 293.532,401.462 295.471,399.662 296.52,387.462 291.43,392.07     "/><polygon points="307.988,398.493 308.534,392.17 304.248,387.493 303.195,399.662 304.78,401.462     "/><polygon points="307.285,406.131 304.629,403.208 302.691,404.962 301.684,417.139 306.739,412.462     "/><polygon points="318.318,391.254 323.402,386.578 305.238,386.578 309.506,391.254     "/><polygon points="317.857,406.131 317.311,412.47 321.6,417.147 322.607,404.962 321.041,403.208     "/><polygon points="307.579,413.371 302.495,418.047 320.659,418.047 316.384,413.371     "/><polygon points="318.518,398.493 321.177,401.462 323.111,399.662 324.165,387.462 319.074,392.07     "/></g><g><polygon points="195.515,396.631 196.05,390.308 191.799,385.632 190.771,397.801 192.338,399.601     "/><polygon points="193.195,400.455 195.312,402.793 205.289,402.793 207.85,400.455 205.691,398.116 195.714,398.116     "/><polygon points="205.874,389.392 210.953,384.716 192.793,384.716 197.061,389.392     "/><polygon points="206.073,396.631 208.731,399.601 210.666,397.801 211.719,385.6 206.625,390.208     "/><polygon points="195.13,411.508 190.05,416.185 208.21,416.185 203.942,411.508     "/><polygon points="205.415,404.269 204.866,410.609 209.155,415.286 210.162,403.101 208.595,401.347     "/><polygon points="220.843,400.455 222.959,402.793 232.934,402.793 235.501,400.455 233.339,398.116 223.362,398.116     "/><polygon points="222.515,404.279 219.856,401.355 217.918,403.108 216.89,415.278 221.977,410.609     "/><polygon points="233.518,389.392 238.601,384.716 220.437,384.716 224.708,389.392     "/><polygon points="233.738,396.631 236.393,399.601 238.332,397.801 239.367,385.6 234.28,390.208     "/><polygon points="222.777,411.508 217.698,416.185 235.858,416.185 231.59,411.508     "/><polygon points="250.422,411.508 245.342,416.185 263.502,416.185 259.231,411.508     "/><polygon points="261.166,389.392 266.245,384.716 248.085,384.716 252.353,389.392     "/><polygon points="248.487,400.455 250.6,402.793 260.581,402.793 263.142,400.455 260.983,398.116 251.006,398.116     "/><polygon points="261.365,396.631 264.023,399.601 265.958,397.801 267.011,385.6 261.921,390.208     "/><polygon points="260.704,404.269 260.158,410.609 264.447,415.286 265.455,403.101 263.884,401.347     "/><polygon points="289.013,396.631 291.668,399.601 293.603,397.801 294.659,385.6 289.569,390.208     "/><polygon points="293.893,384.716 275.729,384.716 280.001,389.392 288.813,389.392     "/><polygon points="288.355,404.269 287.809,410.609 292.091,415.3 293.099,403.101 291.535,401.347     "/><polygon points="305.423,404.269 302.768,401.347 300.83,403.101 299.823,415.278 304.878,410.601     "/><polygon points="306.127,396.631 306.672,390.308 302.383,385.632 301.334,397.801 302.918,399.601     "/><polygon points="316.458,389.392 321.537,384.716 303.377,384.716 307.645,389.392     "/><polygon points="316.657,396.631 319.315,399.601 321.25,397.801 322.303,385.6 317.213,390.208     "/><polygon points="315.996,404.269 315.45,410.609 319.739,415.286 320.747,403.101 319.176,401.347     "/><polygon points="305.714,411.508 300.634,416.185 318.798,416.185 314.523,411.508     "/></g></g></g></svg>