<?xml version="1.0" ?><!DOCTYPE svg  PUBLIC '-//W3C//DTD SVG 1.1//EN'  'http://www.w3.org/Graphics/SVG/1.1/DTD/svg11.dtd'><svg enable-background="new 0 0 151 151" id="Layer_1" version="1.1" viewBox="0 0 151 151" xml:space="preserve" xmlns="http://www.w3.org/2000/svg" xmlns:xlink="http://www.w3.org/1999/xlink"><g><circle cx="75.5" cy="75.5" fill="#71D456" r="75.1"/><g><rect fill="#414753" height="15.3" width="108.2" x="21.4" y="26.3"/><g><rect fill="#F1F3F7" height="75.9" width="108.2" x="21.4" y="41.5"/></g><g><circle cx="29.6" cy="33.9" fill="#F0582F" r="2.4"/><circle cx="37.8" cy="33.9" fill="#FBD303" r="2.4"/><circle cx="46.1" cy="33.9" fill="#71D456" r="2.4"/></g><path d="M106.3,31.5H55.4c-1.3,0-2.4,1.1-2.4,2.4s1.1,2.4,2.4,2.4h50.9c1.3,0,2.4-1.1,2.4-2.4    S107.7,31.5,106.3,31.5z" fill="#DEDEDF"/><circle cx="117.3" cy="33.9" fill="#DEDEDF" r="3"/><path d="M119.5,33.5l-1.4-1.4c-0.2-0.2-0.5-0.2-0.7,0c-0.2,0.2-0.2,0.5,0,0.7l0.6,0.6h-2.6c-0.3,0-0.5,0.2-0.5,0.5    c0,0.3,0.2,0.5,0.5,0.5h2.6l-0.6,0.6c-0.2,0.2-0.2,0.5,0,0.7c0.2,0.2,0.6,0.1,0.7,0l1.4-1.4c0.1-0.1,0.1-0.2,0.1-0.4    C119.7,33.7,119.6,33.6,119.5,33.5z" fill="#333842"/><g><polygon fill="#F0582F" points="75.5,81.1 33.7,102.9 75.5,124.7 117.3,102.9    "/><polygon fill="#4F5565" points="75.5,67.5 33.7,89.3 75.5,111.1 117.3,89.3    "/><polygon fill="#6EB1E1" points="75.5,53.9 33.7,75.7 75.5,97.5 117.3,75.7    "/></g></g></g></svg>