<?xml version="1.0" ?><!DOCTYPE svg  PUBLIC '-//W3C//DTD SVG 1.1//EN'  'http://www.w3.org/Graphics/SVG/1.1/DTD/svg11.dtd'><svg id="Layer_197" style="enable-background:new 0 0 243.8 243.7;" version="1.1" viewBox="0 0 243.8 243.7" xml:space="preserve" xmlns="http://www.w3.org/2000/svg" xmlns:xlink="http://www.w3.org/1999/xlink"><style type="text/css">
	.st0{fill:#ADEBF6;}
	.st1{fill:#1B3B50;}
	.st2{opacity:0.2;}
	.st3{fill:#4E5C67;}
	.st4{opacity:0.1;}
	.st5{fill:#FFFFFF;}
	.st6{clip-path:url(#SVGID_2_);}
	.st7{fill:#576672;}
	.st8{fill:#45525B;}
	.st9{fill:#192E2D;}
	.st10{fill:#92ADBF;}
	.st11{fill:#4C5D6C;}
	.st12{fill:#FFD55C;}
	.st13{fill:#FCBB51;}
</style><g><g><g><g><g><path class="st0" d="M121.9,0C54.8,0,0,54.8,0,121.9c0,67,54.8,121.9,121.9,121.9c67,0,121.9-54.8,121.9-121.9        C243.8,54.8,188.9,0,121.9,0z"/></g></g><g><g><g><g><path class="st1" d="M71,184.7c-7.5,0-13.6-6.1-13.6-13.6c0-7.5,6.1-13.6,13.6-13.6c7.5,0,13.6,6.1,13.6,13.6          C84.6,178.6,78.5,184.7,71,184.7z M71,161.5c-5.3,0-9.6,4.3-9.6,9.6c0,5.3,4.3,9.6,9.6,9.6c5.3,0,9.6-4.3,9.6-9.6          C80.6,165.8,76.3,161.5,71,161.5z"/></g><g><path class="st1" d="M49.3,147.5c-7.5,0-13.6-6.1-13.6-13.6c0-7.5,6.1-13.6,13.6-13.6c7.5,0,13.6,6.1,13.6,13.6          C62.9,141.4,56.8,147.5,49.3,147.5z M49.3,124.3c-5.3,0-9.6,4.3-9.6,9.6c0,5.3,4.3,9.6,9.6,9.6c5.3,0,9.6-4.3,9.6-9.6          C58.9,128.6,54.6,124.3,49.3,124.3z"/></g><g><path class="st1" d="M54,144.4l9.8,18.3L54,144.4z"/><rect class="st1" height="2" transform="matrix(0.4729 0.8811 -0.8811 0.4729 166.3104 29.0001)" width="20.8" x="48.5" y="152.5"/></g><g><path class="st1" d="M78.5,162.6l16.1-22.7L78.5,162.6z"/><rect class="st1" height="27.8" transform="matrix(0.8167 0.577 -0.577 0.8167 103.1515 -22.2328)" width="2" x="85.6" y="137.3"/></g></g><g><g><path class="st1" d="M192.3,147.5c-7.5,0-13.6-6.1-13.6-13.6c0-7.5,6.1-13.6,13.6-13.6c7.5,0,13.6,6.1,13.6,13.6          C205.9,141.4,199.8,147.5,192.3,147.5z M192.3,124.3c-5.3,0-9.6,4.3-9.6,9.6c0,5.3,4.3,9.6,9.6,9.6c5.3,0,9.6-4.3,9.6-9.6          C201.9,128.6,197.6,124.3,192.3,124.3z"/></g><g><path class="st1" d="M170.5,184.7c-7.5,0-13.6-6.1-13.6-13.6c0-7.5,6.1-13.6,13.6-13.6c7.5,0,13.6,6.1,13.6,13.6          C184.1,178.6,178,184.7,170.5,184.7z M170.5,161.5c-5.3,0-9.6,4.3-9.6,9.6c0,5.3,4.3,9.6,9.6,9.6c5.3,0,9.6-4.3,9.6-9.6          C180.1,165.8,175.8,161.5,170.5,161.5z"/></g><g><path class="st1" d="M187.6,144.4l-9.8,18.3L187.6,144.4z"/><rect class="st1" height="20.8" transform="matrix(0.8812 0.4728 -0.4728 0.8812 94.2825 -68.1225)" width="2" x="181.7" y="143.1"/></g><g><path class="st1" d="M163,162.6L147,139.9L163,162.6z"/><rect class="st1" height="2" transform="matrix(0.5767 0.817 -0.817 0.5767 189.191 -62.5979)" width="27.8" x="141.1" y="150.3"/></g></g><g class="st2"><g><path class="st3" d="M118.6,160.2c-10.8-0.7-21.5-5.1-29.7-13.3c-8.7-8.7-13.5-20.3-13.5-32.6c0-12.3,4.8-23.9,13.5-32.6          c8.6-8.6,19.8-13,31.1-13.4l0.4-0.1v0.1c12.2-0.3,24.4,4.2,33.6,13.4c8.7,8.7,13.5,20.2,13.5,32.6          c0,12.3-4.8,23.9-13.5,32.6c-7.8,7.8-17.7,12.2-27.8,13.2L118.6,160.2z"/></g></g><g><g class="st4"><path class="st3" d="M118.4,159.9c-10.8-0.7-21.4-5.1-29.6-13.3c-8.7-8.7-13.4-20.2-13.4-32.4c0-12.2,4.8-23.8,13.4-32.4          c8.6-8.6,19.7-13,30.9-13.3l0.4-0.1v0.1c12.1-0.3,24.3,4.1,33.5,13.4c8.7,8.7,13.4,20.2,13.4,32.4          c0,12.3-4.8,23.8-13.4,32.4c-7.7,7.7-17.6,12.1-27.7,13.2L118.4,159.9z"/></g><g><circle class="st5" cx="121.2" cy="104.8" r="43"/></g><g><defs><path d="M161.6,121l0.6,0.1l3.2-9.6l-1.2-0.3c2-13.3-2.1-27.2-12.3-37.5c-9-9-20.9-13.2-32.6-12.8l-0.1-1.5           l-10,2.1l0.1,0.9c-7.1,1.9-13.8,5.7-19.3,11.2c-17.1,17.1-17.1,44.8,0,61.9c17.1,17.1,44.8,17.1,61.9,0           C156.2,131.4,159.4,126.3,161.6,121z" id="SVGID_1_"/></defs><clipPath id="SVGID_2_"><use style="overflow:visible;" xlink:href="#SVGID_1_"/></clipPath><g class="st6"><path class="st7" d="M307.1,253.3l0.1-0.1l1.1-1.1l-1.3-1.6l-0.5-0.5l0,0c0.3-0.3,0.5-0.7,0.7-1c0,0,0,0,0,0           c0-0.1,0.1-0.1,0.1-0.2c0.1-0.1,0.1-0.2,0.1-0.3c0.2-0.4,0.5-0.9,0.6-1.3l0.6,0.2l2.1,0.3l0.7-2.8l-2-0.8l-0.6-0.2           c0.1-1.1,0.1-2.2-0.1-3.3l0.6-0.2l1.9-0.8l-0.8-2.8l-2.1,0.3L308,237c-0.4-1-1-2-1.7-2.9l0.4-0.5l1.3-1.7l-2.1-2.1           l-1.7,1.3l-0.5,0.5c-0.9-0.7-1.9-1.2-2.9-1.6l0.2-0.6l0.2-2.1l-2.8-0.7l-0.8,1.9l-0.2,0.6c-1.1-0.1-2.2-0.1-3.3,0.1           l-0.2-0.6l-0.8-1.9l-2.8,0.8l0.3,2.1l0.2,0.6c-0.4,0.2-0.8,0.4-1.2,0.6c-0.1,0-0.2,0.1-0.2,0.1c-0.5,0.3-1,0.6-1.4,0.9v0           l-0.5-0.4l-1.7-1.3l-0.9,0.9l3.5,3.5c0,0,0,0,0,0l1.2,1.2l0,0l0,0c0.2-0.2,0.7,0.4,0.9,0.2c3.1-1.1,7.5-2.5,10.8,0.5           c3.3,3.1,4.3,7.4,1.8,11c-0.2,0.3-0.5,0.6-0.8,0.9l0,0v0l1.2,1.2v0L307.1,253.3z"/></g><g class="st6"><path class="st8" d="M301.2,254.2L301.2,254.2c1-0.5,2-1,2.8-1.7l0,0l0.5,0.4l1.7,1.2l0.9-0.9l-4.8-4.8l0,0           c-3.5,3.5-9.2,3.5-12.7,0c-3.5-3.5-3.5-9.2,0-12.7l0,0l-4.8-4.8l-0.1,0.1l-1.1,1.1l1.3,1.7l0.5,0.4l0,0           c-0.7,0.9-1.2,1.9-1.6,2.9l0,0l-0.6-0.2l-2.1-0.2l-0.7,2.8l1.9,0.8l0.6,0.2l0,0c-0.1,1.1-0.1,2.2,0,3.3l0,0l-0.6,0.2           l-1.9,0.8l0.8,2.8l2.1-0.3l0.6-0.2l0.1,0c0.4,1,1,2,1.7,2.9l0,0l-0.4,0.4l-1.3,1.7l2.1,2.1l1.7-1.3l0.4-0.4l0,0           c0.7,0.5,1.5,1,2.2,1.3c0.2,0.1,0.4,0.2,0.7,0.3l0,0l-0.1,0.6l-0.3,2.1l1.8,0.5l1.1,0.3l0.8-1.9l0.2-0.6l0,0           c0.6,0.1,1.2,0.1,1.9,0.1c0.2,0,0.3,0,0.5,0c0.3,0,0.7,0,1-0.1l0,0l0.2,0.6l0.8,1.9l2.8-0.8l-0.3-2.1L301.2,254.2z"/></g><g class="st6"><path class="st7" d="M289.6,249c3.6,3.4,9.3,3.2,12.7-0.4c0,0,0,0,0,0l-1.2-1.2c-2.3,2.5-6.2,3.2-9.2,1.4           c-3.5-2.1-4.6-6.6-2.6-10.1c0.4-0.6,0.8-1.2,1.4-1.7l-1.2-1.2c-0.2,0.1-0.3,0.3-0.5,0.4C285.8,239.9,286,245.6,289.6,249z"/></g><g class="st6"><path class="st8" d="M299.5,236.1c3.5,2.1,4.6,6.6,2.5,10.1c-0.3,0.4-0.6,0.8-0.9,1.2l1.2,1.2c3.4-3.6,3.2-9.3-0.5-12.7           c-3.5-3.2-8.8-3.2-12.3,0l1.2,1.2C293.1,234.9,296.6,234.4,299.5,236.1z"/></g><g class="st6"><path class="st7" d="M303.6,283.2l0.1-0.1l1.1-1.1l-1.3-1.6l-0.5-0.5l0,0c0.3-0.3,0.5-0.7,0.7-1c0,0,0,0,0,0           c0-0.1,0.1-0.2,0.1-0.2c0-0.1,0.1-0.2,0.2-0.3c0.2-0.4,0.4-0.9,0.6-1.4l0.6,0.2l2.1,0.3l0.7-2.8l-1.9-0.8l-0.6-0.2           c0.1-1.1,0.1-2.2-0.1-3.3l0.6-0.2l1.9-0.8l-0.8-2.8l-2.1,0.3l-0.6,0.2c-0.4-1-1-2-1.7-2.9l0.4-0.5l1.3-1.7l-2.1-2.1           l-1.6,1.3l-0.5,0.5c-0.9-0.7-1.9-1.2-2.9-1.6l0.2-0.6l0.2-2.1l-2.8-0.7l-0.8,1.9l-0.2,0.6c-1.1-0.1-2.2-0.1-3.3,0l-0.2-0.6           l-0.8-1.9l-2.8,0.8l0.3,2.1l0.2,0.6c-0.4,0.2-0.8,0.4-1.2,0.6c-0.1,0-0.2,0.1-0.3,0.1c-0.5,0.3-0.9,0.6-1.4,1l0,0l-0.5-0.4           l-1.7-1.3l-0.9,0.9l3.5,3.5c0,0,0,0,0,0l1.2,1.2c0,0,0,0,0,0l0,0c0.2-0.2,0.7,0.4,0.9,0.2c3.1-1.1,7.5-2.5,10.8,0.5           c3.3,3.1,4.3,7.4,1.8,11c-0.2,0.3-0.5,0.6-0.8,0.9l0,0c0,0,0,0,0,0l1.2,1.2l0,0L303.6,283.2z"/></g><g class="st6"><path class="st8" d="M297.7,284.1L297.7,284.1c1-0.4,2-1,2.9-1.7v0l0.5,0.4l1.7,1.3l0.9-0.9l-4.8-4.8l0,0           c-3.5,3.5-9.2,3.5-12.7,0c-3.5-3.5-3.5-9.2,0-12.7l0,0l-4.8-4.8l-0.1,0.1l-1.1,1.1l1.3,1.6l0.5,0.5l0,0           c-0.7,0.9-1.2,1.9-1.6,2.9l0,0l-0.6-0.2l-2.1-0.3l-0.7,2.8l1.9,0.8l0.6,0.2l0,0c-0.1,1.1-0.1,2.2,0,3.3l0,0l-0.6,0.2           l-1.9,0.8l0.8,2.8l2.1-0.3l0.6-0.2l0.1,0c0.4,1,1,2,1.7,2.9l0,0l-0.4,0.4l-1.3,1.7l2.1,2.1l1.7-1.3l0.4-0.4l0,0           c0.7,0.5,1.5,1,2.2,1.3c0.2,0.1,0.4,0.2,0.7,0.3l0,0l-0.1,0.6l-0.3,2.1l1.8,0.5l1.1,0.3l0.8-1.9l0.1-0.6l0,0           c0.6,0.1,1.2,0.1,1.9,0.1c0.2,0,0.3,0,0.5,0c0.3,0,0.7,0,1-0.1l0,0l0.2,0.6l0.8,1.9l2.8-0.8l-0.3-2.1L297.7,284.1z"/></g><g class="st6"><path class="st7" d="M286.1,278.9c3.6,3.4,9.3,3.2,12.7-0.4c0,0,0,0,0,0l-1.2-1.2c-2.3,2.5-6.2,3.2-9.2,1.3           c-3.5-2.1-4.6-6.6-2.6-10.1c0.4-0.6,0.8-1.2,1.4-1.7l-1.2-1.2c-0.2,0.2-0.3,0.3-0.5,0.4           C282.3,269.8,282.5,275.5,286.1,278.9z"/></g><g class="st6"><path class="st8" d="M296.1,266c3.5,2.1,4.6,6.6,2.6,10.1c-0.3,0.4-0.6,0.8-0.9,1.2l1.2,1.2c3.4-3.6,3.2-9.3-0.4-12.7           c-3.5-3.2-8.8-3.2-12.3,0l1.2,1.2C289.6,264.7,293.2,264.3,296.1,266z"/></g></g><g><polygon class="st9" points="127.4,220.3 121.2,221.9 115.1,220.3 115.1,217.6 127.4,217.6         "/></g><g><polygon class="st7" points="125,171.6 117.4,171.6 117.4,148.6 125,148.6         "/></g><g><polygon class="st10" points="127.5,216.3 115,216.3 115,168.5 127.5,168.5         "/></g><g><polygon class="st11" points="129,218 113.5,218 113.5,215.3 129,215.3         "/></g><g><polygon class="st11" points="129,170.6 113.5,170.6 113.5,167.9 129,167.9         "/></g><g class="st4"><path class="st11" d="M153,83.8c6.4,6.4,10.5,14.2,12.2,22.4c1.5-12.9-2.7-23.3-12.7-33.3c-17.3-17.3-45.3-17.3-62.6,0          c-9.8,9.8-14,19.9-12.7,32.7c1.8-8,5.8-15.6,12-21.8C106.8,66.2,135.4,66.2,153,83.8z"/></g><g><defs><path d="M164.5,104.5c0,23.9-19.4,43.3-43.3,43.3c-23.9,0-43.3-19.4-43.3-43.3c0-23.9,19.4-43.3,43.3-43.3           C145.2,61.2,164.5,80.6,164.5,104.5z" id="SVGID_3_"/></defs><clipPath id="SVGID_4_"><use style="overflow:visible;" xlink:href="#SVGID_3_"/></clipPath></g><g><path class="st7" d="M153.7,73c-17.9-17.9-47.1-17.9-65,0c-8.7,8.7-13.5,20.2-13.5,32.5l0,0l0,0c0,12.3,4.8,23.8,13.5,32.5          c17.9,17.9,47.1,17.9,65,0c8.7-8.7,13.5-20.2,13.5-32.5l0,0l0,0C167.2,93.2,162.4,81.7,153.7,73z M161.6,105.5          c0,10.8-4.2,20.9-11.8,28.5c-15.7,15.7-41.3,15.7-57.1,0c-7.6-7.6-11.8-17.8-11.8-28.5l0,0l0,0c0-10.8,4.2-20.9,11.8-28.5          c15.7-15.7,41.3-15.7,57.1,0C157.4,84.6,161.6,94.7,161.6,105.5L161.6,105.5L161.6,105.5z"/></g></g><g><path class="st7" d="M154.2,73c-18-18-47.2-18-65.2,0c-8.7,8.7-13.5,20.3-13.5,32.6l0,0l0,0c0,12.3,4.8,23.9,13.5,32.6         c18,18,47.3,18,65.2,0c8.7-8.7,13.5-20.3,13.5-32.6l0,0l0,0C167.7,93.2,162.9,81.7,154.2,73z M162.1,105.6         c0,10.8-4.2,21-11.9,28.6c-15.8,15.8-41.5,15.8-57.3,0c-7.7-7.6-11.9-17.8-11.9-28.6l0,0l0,0c0-10.8,4.2-21,11.9-28.6         c15.8-15.8,41.5-15.8,57.3,0C157.9,84.6,162.1,94.8,162.1,105.6L162.1,105.6L162.1,105.6z"/></g><g><g><g><g><g><g><g><rect class="st5" height="24.2" transform="matrix(-0.7077 -0.7065 0.7065 -0.7077 241.8478 222.9538)" width="2.5" x="165.8" y="49.4"/></g></g><g><g><rect class="st5" height="9.7" transform="matrix(-0.7072 -0.707 0.707 -0.7072 276.4007 208.6442)" width="2.5" x="180.2" y="42.2"/></g></g></g><g><g><g><g><rect class="st5" height="2.5" width="20.6" x="49.4" y="105.4"/></g></g><g><g><rect class="st5" height="2.5" width="11.1" x="33.9" y="105.4"/></g></g></g><g><g><g><rect class="st5" height="11.1" transform="matrix(0.8662 0.4998 -0.4998 0.8662 48.6139 -67.616)" width="2.5" x="149.3" y="51.4"/></g></g></g><g><g><g><rect class="st5" height="11.1" transform="matrix(0.9661 0.2583 -0.2583 0.9661 17.8648 -33.5664)" width="2.5" x="135.4" y="45.7"/></g></g></g><g><g><g><rect class="st5" height="20.6" width="2.5" x="120.6" y="34.2"/></g></g><g><g><rect class="st5" height="9.2" width="2.5" x="120.6" y="21.9"/></g></g></g><g><g><g><rect class="st5" height="11.1" transform="matrix(0.9658 -0.2595 0.2595 0.9658 -9.6249 29.5125)" width="2.5" x="105.7" y="45.7"/></g></g></g><g><g><g><rect class="st5" height="11.1" transform="matrix(0.8655 -0.5009 0.5009 0.8655 -16.0002 54.3115)" width="2.5" x="91.9" y="51.4"/></g></g></g><g><g><g><rect class="st5" height="24.2" transform="matrix(0.7074 -0.7068 0.7068 0.7074 -21.0136 72.1352)" width="2.5" x="75.4" y="49.4"/></g></g><g><g><rect class="st5" height="9.7" transform="matrix(0.7068 -0.7074 0.7074 0.7068 -15.0568 57.8496)" width="2.5" x="61" y="42.2"/></g></g></g><g><g><g><rect class="st5" height="11.1" transform="matrix(0.5008 -0.8656 0.8656 0.5008 -31.4785 101.3477)" width="2.5" x="70.9" y="72.4"/></g></g></g><g><g><g><rect class="st5" height="11.1" transform="matrix(0.259 -0.9659 0.9659 0.259 -39.4849 132.1514)" width="2.5" x="65.1" y="86.3"/></g></g></g></g></g></g></g><g><g><g><rect class="st5" height="2.5" width="20.6" x="173.8" y="105.4"/></g></g><g><g><rect class="st5" height="2.5" width="11.1" x="198.8" y="105.4"/></g></g></g><g><g><g><polygon class="st5" points="166.2,79.7 167.4,81.8 177,76.3 175.8,74.1           "/></g></g></g><g><g><g><rect class="st5" height="11.1" transform="matrix(-0.259 -0.9659 0.9659 -0.259 134.6112 286.8917)" width="2.5" x="176.1" y="86.3"/></g></g></g></g></g><g><g><path class="st12" d="M120.9,132.1c-14.7,0-26.6-11.4-27.1-26c-0.2-7.2,2.4-14,7.4-19.2c5-5.2,11.7-8.2,19-8.4         c0.3,0,0.6,0,0.9,0c14.8,0,26.6,11.4,27.1,26c0.2,7.1-2.4,13.8-7.3,19c-5,5.3-11.8,8.3-19.1,8.5         C121.5,132,121.2,132.1,120.9,132.1z"/></g><g><path class="st13" d="M121.1,79.6c14,0,25.5,11,25.9,24.9c0.4,14.2-10.9,26-25.2,26.4c-0.3,0-0.6,0-0.8,0         c-14,0-25.5-11-25.9-24.9c-0.4-14.1,10.9-26,25.2-26.4C120.5,79.6,120.8,79.6,121.1,79.6L121.1,79.6z M121.1,77.3L121.1,77.3         c-0.3,0-0.6,0-0.9,0c-7.6,0.2-14.6,3.3-19.8,8.8c-5.2,5.4-7.9,12.5-7.7,20c0.5,15.2,12.9,27.1,28.2,27.1c0.3,0,0.6,0,0.9,0         c7.6-0.2,14.7-3.4,19.9-8.9c5.1-5.4,7.8-12.5,7.6-19.9C148.8,89.2,136.4,77.3,121.1,77.3L121.1,77.3z"/></g><g><path class="st13" d="M129,108.6c-0.3-1.3-1.1-2.3-2.2-3.1c-0.4-0.3-1.1-0.6-1.9-0.9c-0.9-0.3-1.9-0.7-3.3-1.1l-1.5-0.3         c-1.1-0.2-1.9-0.6-2.5-1.1c-0.6-0.5-0.8-1.1-0.8-2c0-0.7,0.3-1.4,0.8-2.2c0.5-0.6,1.3-0.9,2.5-1l1.5,0c1.3,0,2.1,0.5,2.7,1.4         c0.3,0.5,0.5,1.1,0.6,1.8l0,0.5l3.8,0l0-0.6c-0.1-1.9-0.7-3.5-1.9-4.7c-1-1-2.4-1.6-4.1-1.9v-3.8l-3.9,0l0,3.8         c-1.6,0.2-2.9,0.9-3.9,1.9c-0.1,0.1-0.1,0.1-0.1,0.2c-1.3,1.4-1.9,3-1.9,4.7c0,1.9,0.6,3.5,1.8,4.6c1.2,1.1,2.9,1.8,5.3,2.3         l1.5,0.4c1.5,0.4,2.3,0.8,2.6,1c0.8,0.6,1.2,1.4,1.2,2.5c0,0.7-0.2,1.4-0.5,1.9c-0.6,1-1.6,1.6-3.2,1.7l-1.5-0.1         c-1.6-0.1-2.6-0.7-3.2-1.7c-0.2-0.4-0.5-1.2-0.6-2.9l0-0.5l-3.9,0l0,0.6c0,1.9,0.3,3.4,1,4.5c1,1.8,2.9,3,5.4,3.4l0,3.6         l3.9,0l0-3.6c1.5-0.3,2.6-0.7,3.5-1.2c2-1.3,3-3.4,3-6.4C129.2,109.8,129.1,109.2,129,108.6z"/></g><g><path class="st13" d="M117.8,84.9c0.3,1.1-0.4,2.3-1.5,2.6c-1.1,0.3-2.3-0.4-2.6-1.5c-0.3-1.1,0.4-2.3,1.5-2.6         C116.3,83.1,117.5,83.8,117.8,84.9z"/></g><g><path class="st13" d="M128.3,124.5c0.3,1.1-0.4,2.3-1.5,2.6c-1.1,0.3-2.3-0.4-2.6-1.5c-0.3-1.1,0.4-2.3,1.5-2.6         C126.8,122.7,128,123.4,128.3,124.5z"/></g><g><path class="st13" d="M123.1,84.8c0,1.2-0.9,2.1-2.1,2.1c-1.2,0-2.1-1-2.1-2.1c0-1.2,1-2.1,2.1-2.1         C122.2,82.7,123.1,83.6,123.1,84.8z"/></g><g><path class="st13" d="M123.1,125.7c0,1.2-0.9,2.1-2.1,2.1c-1.2,0-2.1-0.9-2.1-2.1c0-1.2,0.9-2.1,2.1-2.1         C122.1,123.6,123.1,124.6,123.1,125.7z"/></g><g><path class="st13" d="M112.6,86.5c0.6,1,0.2,2.3-0.8,2.9c-1,0.6-2.3,0.2-2.9-0.8c-0.6-1-0.2-2.3,0.8-2.9         C110.7,85.1,112,85.5,112.6,86.5z"/></g><g><path class="st13" d="M133,122c0.6,1,0.2,2.3-0.8,2.9c-1,0.6-2.3,0.2-2.9-0.8c-0.6-1-0.2-2.3,0.8-2.9         C131.1,120.6,132.4,120.9,133,122z"/></g><g><path class="st13" d="M108,89.3c0.8,0.8,0.8,2.2,0,3c-0.8,0.8-2.2,0.8-3,0c-0.8-0.8-0.8-2.2,0-3         C105.9,88.4,107.2,88.4,108,89.3z"/></g><g><path class="st13" d="M136.9,118.3c0.8,0.8,0.8,2.2,0,3c-0.8,0.8-2.2,0.8-3,0c-0.8-0.8-0.8-2.2,0-3         C134.8,117.4,136.1,117.4,136.9,118.3z"/></g><g><path class="st13" d="M104.3,93.2c1,0.6,1.3,1.9,0.8,2.9c-0.6,1-1.9,1.4-2.9,0.8c-1-0.6-1.3-1.9-0.8-2.9         C102,92.9,103.3,92.6,104.3,93.2z"/></g><g><path class="st13" d="M139.7,113.7c1,0.6,1.3,1.9,0.8,2.9c-0.6,1-1.9,1.4-2.9,0.8c-1-0.6-1.3-1.9-0.8-2.9         C137.4,113.5,138.7,113.1,139.7,113.7z"/></g><g><path class="st13" d="M101.8,97.9c1.1,0.3,1.8,1.5,1.5,2.6c-0.3,1.1-1.5,1.8-2.6,1.5c-1.1-0.3-1.8-1.5-1.5-2.6         C99.5,98.2,100.7,97.6,101.8,97.9z"/></g><g><path class="st13" d="M141.3,108.6c1.1,0.3,1.8,1.5,1.5,2.6c-0.3,1.1-1.5,1.8-2.6,1.5c-1.1-0.3-1.8-1.5-1.5-2.6         C139,108.9,140.2,108.3,141.3,108.6z"/></g><g><path class="st13" d="M100.5,103.1c1.2,0,2.1,1,2.1,2.1c0,1.2-0.9,2.1-2.1,2.1c-1.2,0-2.1-0.9-2.1-2.1         C98.4,104,99.4,103.1,100.5,103.1z"/></g><g><path class="st13" d="M141.5,103.2c1.2,0,2.1,1,2.1,2.1c0,1.2-0.9,2.1-2.1,2.1c-1.2,0-2.1-1-2.1-2.1         C139.3,104.1,140.3,103.2,141.5,103.2z"/></g><g><path class="st13" d="M100.7,108.5c1.1-0.3,2.3,0.4,2.6,1.5c0.3,1.1-0.4,2.3-1.5,2.6c-1.1,0.3-2.3-0.4-2.6-1.5         C98.9,109.9,99.5,108.8,100.7,108.5z"/></g><g><path class="st13" d="M140.2,98c1.1-0.3,2.3,0.4,2.6,1.5c0.3,1.1-0.4,2.3-1.5,2.6c-1.1,0.3-2.3-0.4-2.6-1.5         C138.4,99.4,139.1,98.3,140.2,98z"/></g><g><path class="st13" d="M102.2,113.6c1-0.6,2.3-0.2,2.9,0.8c0.6,1,0.2,2.3-0.8,2.9c-1,0.6-2.3,0.2-2.9-0.8         C100.8,115.5,101.2,114.2,102.2,113.6z"/></g><g><path class="st13" d="M137.7,93.2c1-0.6,2.3-0.2,2.9,0.8c0.6,1,0.2,2.3-0.8,2.9c-1,0.6-2.3,0.2-2.9-0.8         C136.3,95.1,136.7,93.8,137.7,93.2z"/></g><g><path class="st13" d="M105,118.2c0.8-0.8,2.2-0.8,3,0c0.8,0.8,0.8,2.2,0,3c-0.8,0.8-2.2,0.8-3,0         C104.2,120.4,104.2,119,105,118.2z"/></g><g><path class="st13" d="M134,89.3c0.8-0.8,2.2-0.8,3,0c0.8,0.8,0.8,2.2,0,3c-0.8,0.8-2.2,0.8-3,0         C133.2,91.5,133.2,90.1,134,89.3z"/></g><g><path class="st13" d="M108.9,121.9c0.6-1,1.9-1.4,2.9-0.8c1,0.6,1.4,1.9,0.8,2.9c-0.6,1-1.9,1.4-2.9,0.8         C108.6,124.2,108.3,122.9,108.9,121.9z"/></g><g><path class="st13" d="M129.4,86.5c0.6-1,1.9-1.4,2.9-0.8c1,0.6,1.4,1.9,0.8,2.9c-0.6,1-1.9,1.4-2.9,0.8         C129.2,88.8,128.8,87.5,129.4,86.5z"/></g><g><path class="st13" d="M113.6,124.5c0.3-1.1,1.5-1.8,2.6-1.5c1.1,0.3,1.8,1.5,1.5,2.6c-0.3,1.1-1.5,1.8-2.6,1.5         C114,126.8,113.3,125.6,113.6,124.5z"/></g><g><path class="st13" d="M124.3,85c0.3-1.1,1.5-1.8,2.6-1.5c1.1,0.3,1.8,1.5,1.5,2.6c-0.3,1.1-1.5,1.8-2.6,1.5         C124.6,87.2,124,86.1,124.3,85z"/></g></g></g></g></g></g></svg>