<?xml version="1.0" ?><!DOCTYPE svg  PUBLIC '-//W3C//DTD SVG 1.1//EN'  'http://www.w3.org/Graphics/SVG/1.1/DTD/svg11.dtd'><svg enable-background="new 0 0 128 128" id="Layer_1" version="1.1" viewBox="0 0 128 128" xml:space="preserve" xmlns="http://www.w3.org/2000/svg" xmlns:xlink="http://www.w3.org/1999/xlink"><g><circle cx="64" cy="64" fill="#C1E7F3" r="63.5"/><path d="M93.6,31.3l-2.5,2.8L65.3,59.6L44.9,82.5l-10.1,7.1l37.6,37.3c30.8-4.1,54.5-30.3,55-62L93.6,31.3z" fill="#A8D5E1"/><g><path d="M50.4,45.8c12.9,7,21.7,23.7,19.7,37.4c-2,13.7-14.1,19-27,12.1c-12.9-7-21.7-23.7-19.7-37.4    C25.3,44.2,37.5,38.8,50.4,45.8z" fill="#A41E23"/><path d="M53.5,43.5c12.9,7,21.7,23.7,19.7,37.4c-2,13.7-14.1,19.1-27,12.1c-12.9-7-21.7-23.7-19.7-37.4    C28.5,41.9,40.6,36.5,53.5,43.5z" fill="#CB3634"/><path d="M53.1,46.2c11.5,6.2,19.3,21.1,17.5,33.2c-1.8,12.1-12.5,16.9-24,10.7c-11.5-6.2-19.3-21.1-17.5-33.2    C30.9,44.8,41.6,40,53.1,46.2z" fill="#F2746D"/><path d="M52.8,48.1c10.5,5.7,17.6,19.2,16,30.3c-1.6,11.1-11.5,15.4-21.9,9.8c-10.5-5.7-17.6-19.2-16-30.3    C32.5,46.8,42.4,42.5,52.8,48.1z" fill="#A41E23"/><path d="M51.6,56.4C57.8,59.7,62,67.7,61,74.2c-1,6.5-6.7,9.1-12.9,5.8c-6.2-3.3-10.4-11.3-9.4-17.8    C39.7,55.6,45.4,53,51.6,56.4z" fill="#F27670"/><path d="M51,60.4c4.1,2.2,6.9,7.5,6.2,11.8c-0.6,4.3-4.5,6-8.5,3.8c-4.1-2.2-6.9-7.5-6.2-11.8    C43.1,59.9,46.9,58.2,51,60.4z" fill="#A41E23"/><g><path d="M101.2,46.6c0,0,3.2,0.1,3.6,2.3l-1.9,1.9l-4.2-2.2L101.2,46.6z" fill="#E19F49"/><path d="M81.8,58.2c0,0,11.2,3.9,21.3-4.9c2.9-2.5,3-7-3.8-5.7C88.8,49.8,81.8,58.2,81.8,58.2z" fill="#BA772A"/><path d="M73.8,47.3c0,0,0.8-16.7,14.9-17.6c4-0.3,9,4.8,4.5,10.7C86.2,49.4,73.8,47.3,73.8,47.3z" fill="#CC8730"/><path d="M99.8,39.6c-3.3-1.6-9.8-0.7-20.6,4.8c-7.6,3.8-15.8,9.1-21.3,13.8c0.3,1.7,0.8,3.4,1.6,5     c0.8,1.6,1.8,3,3,4.2c7-1.7,16.1-5.2,23.7-9c10.8-5.5,15.4-10.1,16-13.8c-1.1-0.4-1.9-1-2.4-1.9C99.5,41.7,99.4,40.7,99.8,39.6z" fill="#F0B259"/><path d="M54.2,65.8c0.1,0.2-0.2,0.5-0.7,0.8l-3.3,1.7c-0.5,0.2-1,0.3-1,0.1c-0.1-0.2,0.2-0.5,0.7-0.8l3.3-1.7     C53.6,65.7,54.1,65.6,54.2,65.8z" fill="#122528"/><path d="M57.9,58.2c-4.7,3.9-7.5,7.4-6.6,9.1c0.9,1.8,5.3,1.5,11.3,0.1c-1.2-1.2-2.2-2.6-3-4.2     C58.7,61.5,58.1,59.9,57.9,58.2z" fill="#4B9183"/><path d="M75.4,56.5l0.2,0.9c0,0,11.5,0.7,21.5-7.2c0,0,6.7-5.2,3.2-6.1c-3.5-0.9-11.6,6-11.6,6" fill="#E19F49"/><path d="M75.4,56.5c0,0,14.5,0,23.1-8.7c6.7-6.8-3.9-3.1-3.9-3.1L75.4,56.5z" fill="#CC8730"/><path d="M99.8,39.6c-0.3,1.1-0.3,2.1,0.2,3.1c0.5,0.9,1.3,1.6,2.4,1.9c0.2-1.1,0-2.1-0.4-2.9     C101.4,40.8,100.7,40.1,99.8,39.6z" fill="#BA772A"/></g></g></g></svg>