<?xml version="1.0" ?><!DOCTYPE svg  PUBLIC '-//W3C//DTD SVG 1.1//EN'  'http://www.w3.org/Graphics/SVG/1.1/DTD/svg11.dtd'><svg enable-background="new 0 0 128 128" id="Layer_1" version="1.1" viewBox="0 0 128 128" xml:space="preserve" xmlns="http://www.w3.org/2000/svg" xmlns:xlink="http://www.w3.org/1999/xlink"><g><circle cx="64" cy="64" fill="#324A5E" r="63.5"/><path d="M57.1,27.1h21.4v11.3c0-0.1-0.1-0.2-0.1-0.3c-0.4-0.9-1.4-1.5-2.4-1.5c-1.5,0-2.6,1.2-2.6,2.6   c0,0.2,0,0.4,0.1,0.6c0.2,1,0.4,2.3,0.3,3.8c-0.2,3.3,2.2,6.8,4,9H57.1V27.1z" fill="#E6E9EE"/><path d="M93.9,27.1H94c-0.1,0.2-0.1,0.5-0.1,0.8v-0.6C93.9,27.3,93.9,27.2,93.9,27.1z" fill="#E6E9EE"/><path d="M126.5,52.6H97.3l0.3-1.3c1-4,1.4-8.2,1.4-12.3V28.3c0-0.4-0.1-0.8-0.3-1.1h17   C121.1,34.6,124.8,43.3,126.5,52.6z" fill="#E6E9EE"/><path d="M96.8,25.9c-1.6-0.1-2.9,0.5-2.9,2v-0.6c0-1.2-1-2.3-2.2-2.3c-1.6-0.1-2.9,0.5-2.9,2v-0.4   c0-1.4-1.2-2.6-2.6-2.6c-0.7,0-1.3,0.2-1.8,0.5c-0.5,0.3-0.8,0.8-0.8,1.5v-0.6c0-1.3-0.8-2.4-2.1-2.7c-1.6-0.3-3.1,1-3.1,2.6v13.1   c0-0.1-0.1-0.2-0.1-0.3c-0.4-0.9-1.4-1.5-2.4-1.5l0,0c-1.7,0-2.9,1.6-2.5,3.2c0.2,1,0.4,2.3,0.3,3.8c-0.3,5.3,6.1,11.2,6.1,11.2   h16.9l0.8-3.5c1-4,1.4-8.2,1.4-12.3V28.3C99,27,98,26,96.8,25.9z" fill="#FFD05B"/><rect fill="#FFFFFF" height="3" width="20.3" x="77.7" y="54.9"/><path d="M100.6,57.8v20.7H89.3c0.1,0,0.2-0.1,0.3-0.1c0.9-0.4,1.5-1.4,1.5-2.4c0-1.5-1.2-2.6-2.6-2.6   c-0.2,0-0.4,0-0.6,0.1c-1,0.2-2.3,0.4-3.8,0.3c-3.3-0.2-6.8,2.2-9,4v-20H100.6z" fill="#54C0EB"/><path d="M100.4,93.9c0.1,0,0.1,0,0.2,0v0.2c-0.2-0.1-0.5-0.1-0.8-0.1H100.4z" fill="#54C0EB"/><path d="M99.5,99.1c0.4,0,0.8-0.1,1.1-0.3v17c-7.5,5.3-16.1,9-25.5,10.7V97.3l1.3,0.3c4,1,8.2,1.4,12.3,1.4H99.5z" fill="#54C0EB"/><path d="M101.9,96.8c0.1-1.6-0.5-2.9-2-2.9h0.6c1.2,0,2.3-1,2.3-2.2c0.1-1.6-0.5-2.9-2-2.9h0.4   c1.4,0,2.6-1.2,2.6-2.6c0-0.7-0.2-1.3-0.5-1.8c-0.3-0.5-0.8-0.8-1.5-0.8h0.6c1.3,0,2.4-0.8,2.7-2.1c0.3-1.6-1-3.1-2.6-3.1H89.3   c0.1,0,0.2-0.1,0.3-0.1c0.9-0.4,1.5-1.4,1.5-2.4l0,0c0-1.7-1.6-2.9-3.2-2.5c-1,0.2-2.3,0.4-3.8,0.3c-5.3-0.3-11.2,6.1-11.2,6.1   v16.9l3.5,0.8c4,1,8.2,1.4,12.3,1.4h10.8C100.8,99.1,101.8,98.1,101.9,96.8z" fill="#FFD05B"/><rect fill="#FFFFFF" height="20.3" width="3" x="69.9" y="77.8"/><path d="M1.5,75.2h28.2l-0.3,1.3c-1,4-1.4,8.2-1.4,12.3v10.8c0,0.4,0.1,0.8,0.3,1.1h-16C6.9,93.2,3.2,84.6,1.5,75.2   z" fill="#FF7058"/><path d="M33.1,100.5c0,0.1,0,0.1,0,0.2H33c0.1-0.2,0.1-0.5,0.1-0.8V100.5z" fill="#FF7058"/><path d="M69.9,75.2v25.5H48.5V89.4c0,0.1,0.1,0.2,0.1,0.3c0.4,0.9,1.4,1.5,2.4,1.5c1.5,0,2.6-1.2,2.6-2.6   c0-0.2,0-0.4-0.1-0.6c-0.2-1-0.4-2.3-0.3-3.8c0.2-3.3-2.2-6.8-4-9H69.9z" fill="#FF7058"/><path d="M30.2,101.9c1.6,0.1,2.9-0.5,2.9-2v0.6c0,1.2,1,2.3,2.2,2.3c1.6,0.1,2.9-0.5,2.9-2v0.4   c0,1.4,1.2,2.6,2.6,2.6c0.7,0,1.3-0.2,1.8-0.5c0.5-0.3,0.8-0.8,0.8-1.5v0.6c0,1.3,0.8,2.4,2.1,2.7c1.6,0.3,3.1-1,3.1-2.6V89.4   c0,0.1,0.1,0.2,0.1,0.3c0.4,0.9,1.4,1.5,2.4,1.5l0,0c1.7,0,2.9-1.6,2.5-3.2c-0.2-1-0.4-2.3-0.3-3.8c0.3-5.3-6.1-11.2-6.1-11.2H30.3   l-0.8,3.5c-1,4-1.4,8.2-1.4,12.3v10.8C28,100.8,29,101.8,30.2,101.9z" fill="#FFD05B"/><rect fill="#FFFFFF" height="3" width="20.3" x="28.9" y="70"/><path d="M26.6,33.9c-0.1,0-0.1,0-0.2,0v-0.2c0.2,0.1,0.5,0.1,0.8,0.1H26.6z" fill="#4CDBC4"/><path d="M51.8,1.6v28.9l-1.3-0.3c-4-1-8.2-1.4-12.3-1.4H27.5c-0.4,0-0.8,0.1-1.1,0.3V12.8   C33.8,7.3,42.5,3.4,51.8,1.6z" fill="#4CDBC4"/><path d="M51.8,50v20H26.4V49.3h11.3c-0.1,0-0.2,0.1-0.3,0.1c-0.9,0.4-1.5,1.4-1.5,2.4c0,1.5,1.2,2.6,2.6,2.6   c0.2,0,0.4,0,0.6-0.1c1-0.2,2.3-0.4,3.8-0.3C46.1,54.2,49.6,51.9,51.8,50z" fill="#4CDBC4"/><path d="M25.1,31c-0.1,1.6,0.5,2.9,2,2.9h-0.6c-1.2,0-2.3,1-2.3,2.2c-0.1,1.6,0.5,2.9,2,2.9h-0.4   c-1.4,0-2.6,1.2-2.6,2.6c0,0.7,0.2,1.3,0.5,1.8c0.3,0.5,0.8,0.8,1.5,0.8h-0.6c-1.3,0-2.4,0.8-2.7,2.1c-0.3,1.6,1,3.1,2.6,3.1h13.1   c-0.1,0-0.2,0.1-0.3,0.1c-0.9,0.4-1.5,1.4-1.5,2.4l0,0c0,1.7,1.6,2.9,3.2,2.5c1-0.2,2.3-0.4,3.8-0.3c5.3,0.3,11.2-6.1,11.2-6.1V31   l-3.5-0.8c-4-1-8.2-1.4-12.3-1.4l-10.8,0C26.2,28.8,25.2,29.7,25.1,31z" fill="#FFD05B"/><rect fill="#FFFFFF" height="20.3" width="3" x="54.1" y="29.7"/></g></svg>