<?xml version="1.0" ?><!DOCTYPE svg  PUBLIC '-//W3C//DTD SVG 1.1//EN'  'http://www.w3.org/Graphics/SVG/1.1/DTD/svg11.dtd'><svg id="Layer_212" style="enable-background:new 0 0 243.7 243.7;" version="1.1" viewBox="0 0 243.7 243.7" xml:space="preserve" xmlns="http://www.w3.org/2000/svg" xmlns:xlink="http://www.w3.org/1999/xlink"><style type="text/css">
	.st0{fill:#F5F5F6;}
	.st1{fill:#FFE28D;}
	.st2{fill:#FF6D3B;}
	.st3{fill:#45525B;}
	.st4{fill:#192E2D;}
	.st5{fill:#657077;}
	.st6{clip-path:url(#SVGID_2_);}
	.st7{fill:#F66A3F;}
	.st8{fill:#FCA64C;}
	.st9{fill:#FFCC62;}
</style><g><g><g><path class="st0" d="M0,121.9c0,67,54.8,121.9,121.9,121.9s121.9-54.8,121.9-121.9C243.7,54.8,188.9,0,121.9,0S0,54.8,0,121.9z"/><g><g><g><g><g><g><g><g><g><g><g><rect class="st1" height="2.5" width="0.4" x="121.7" y="60.8"/></g></g></g></g></g></g></g></g><g><g><g><g><g><g><g><g><polygon class="st2" points="122,79.6 58.1,117.3 57.8,182.7 121.3,221.1                "/></g><g><polygon class="st3" points="122,79.6 58.1,117.3 57.8,182.7 121.3,221.1                "/></g><g><polygon class="st4" points="121.9,93.6 58,131.3 58,141 124.3,180.7                "/></g><g><polygon class="st4" points="122,79.6 122,79.6 121.3,221.1 121.3,221.1 185.2,183.4 185.6,117.9                "/></g><g><polygon class="st3" points="185.6,117.9 122,79.6 122,79.6 58.1,117.3 58.1,117.3 121.7,155.5 121.7,155.5                  185.6,117.9                "/></g><g><polygon class="st5" points="122,79.6 90.8,60.8 27,98.5 58.1,117.3 58.1,117.3 122,79.6                "/></g><g><polygon class="st5" points="122,79.6 153.4,61.1 216.9,99.4 185.6,117.9 185.6,117.9 122,79.6                "/></g><g><polygon class="st4" points="122,79.6 122,79.6 122,79.6 58.1,117.3 58.1,117.3 121.7,155.6 121.7,155.6                  121.7,155.5                "/></g></g></g></g></g><g><g><polygon class="st5" points="216.7,136.7 185.6,117.9 121.7,155.5 152.8,174.4 152.8,174.4 216.7,136.7             "/></g><g><polygon class="st5" points="26.9,135.8 58.1,117.3 121.7,155.5 90.4,174.1 90.4,174.1 26.8,135.8             "/></g></g></g></g><g><defs><polygon id="SVGID_1_" points="185.6,117.9 184.9,41 58.4,40.8 58.1,117.3 58.1,117.3 121.7,155.5 121.7,155.5             185.6,117.9           "/></defs><clipPath id="SVGID_2_"><use style="overflow:visible;" xlink:href="#SVGID_1_"/></clipPath><g class="st6"><g><polygon class="st7" points="70.3,86 121.9,55.5 173.1,86.5 172.8,148.2 121.3,178.7 70,147.7            "/></g><g><polygon class="st8" points="121.9,55.5 121.9,55.5 121.3,178.7 121.3,178.7 70,147.7 70.3,86            "/></g><g><polygon class="st9" points="121.6,117 173.1,86.5 121.9,55.5 70.3,86            "/></g></g></g></g></g></g><g><path class="st9" d="M194,52.2c-1-0.3-2.2-1-2.7-1.5c-0.5-0.5-1.1-1.7-1.4-2.7c-0.3-1-0.9-1-1.2,0c-0.3,1-1,2.2-1.5,2.7        c-0.5,0.5-1.7,1.1-2.7,1.4c-1,0.3-1,0.9,0,1.2c1,0.3,2.2,1,2.7,1.5c0.5,0.5,1.1,1.7,1.4,2.7c0.3,1,0.9,1,1.2,0        c0.3-1,1-2.2,1.5-2.7c0.5-0.5,1.7-1.1,2.7-1.4C195,53.1,195,52.6,194,52.2z"/></g><g><path class="st9" d="M64.1,52.1c-1.2-0.4-2.7-1.2-3.2-1.8c-0.6-0.6-1.3-2-1.7-3.2c-0.4-1.2-1-1.2-1.5,0        c-0.4,1.2-1.2,2.7-1.8,3.2c-0.6,0.6-2,1.3-3.2,1.7c-1.2,0.4-1.2,1.1,0,1.5c1.2,0.4,2.7,1.2,3.2,1.8c0.6,0.6,1.3,2,1.7,3.2        c0.4,1.2,1.1,1.2,1.5,0c0.4-1.2,1.2-2.7,1.8-3.2c0.6-0.6,2-1.3,3.2-1.7C65.3,53.2,65.3,52.5,64.1,52.1z"/></g><g><path class="st9" d="M208.8,116c-2.4-0.8-5.2-2.4-6.3-3.5c-1.1-1.1-2.7-4-3.4-6.4c-0.8-2.4-2.1-2.4-2.9,0        c-0.8,2.4-2.4,5.2-3.5,6.3c-1.1,1.1-4,2.7-6.4,3.4c-2.4,0.8-2.4,2.1,0,2.9c2.4,0.8,5.2,2.4,6.3,3.5c1.1,1.1,2.7,4,3.4,6.4        c0.8,2.4,2.1,2.4,2.9,0c0.8-2.4,2.4-5.2,3.5-6.3c1.1-1.1,4-2.7,6.4-3.4C211.2,118.1,211.2,116.8,208.8,116z"/></g><g><path class="st9" d="M128.6,29.7c-1.4-0.5-3.1-1.4-3.8-2.1c-0.7-0.7-1.6-2.4-2.1-3.8c-0.5-1.4-1.2-1.4-1.7,0        c-0.5,1.4-1.4,3.1-2.1,3.8c-0.7,0.7-2.4,1.6-3.8,2.1c-1.4,0.5-1.4,1.2,0,1.7c1.4,0.5,3.1,1.4,3.8,2.1c0.7,0.7,1.6,2.4,2.1,3.8        c0.5,1.4,1.2,1.4,1.7,0c0.5-1.4,1.4-3.1,2.1-3.8c0.7-0.7,2.4-1.6,3.8-2.1C130.1,30.9,130.1,30.2,128.6,29.7z"/></g></g></g></g></g></svg>