<?xml version="1.0" ?><!DOCTYPE svg  PUBLIC '-//W3C//DTD SVG 1.1//EN'  'http://www.w3.org/Graphics/SVG/1.1/DTD/svg11.dtd'><svg enable-background="new 0 0 512 511.999" height="511.999px" id="Layer_1" version="1.1" viewBox="0 0 512 511.999" width="512px" xml:space="preserve" xmlns="http://www.w3.org/2000/svg" xmlns:xlink="http://www.w3.org/1999/xlink"><g><circle cx="256" cy="256" fill="#F3735C" r="256"/><g><g><rect fill="#231F20" height="318.894" width="268.751" x="119.439" y="114.799"/><rect fill="#102947" height="318.894" width="268.751" x="119.439" y="109.968"/><polygon fill="#E3E3E3" points="377.115,117.016 377.115,416.998 183.013,416.998 130.551,364.536 130.551,117.016     "/><polygon fill="#FFFFFF" points="130.547,364.528 183.01,416.998 183.01,364.528     "/><polygon opacity="0.15" points="183.01,364.528 235.472,416.998 183.01,416.998     "/></g><path d="M143.964,183.717v63.293h63.293v-63.293H143.964z M201.325,241.078h-51.427V189.65h51.427V241.078z" fill="#102947"/><path d="M143.964,282.281v63.293h63.293v-63.293H143.964z M201.325,339.643h-51.427v-51.429h51.427V339.643z" fill="#102947"/><rect fill="#FFFFFF" height="11.35" opacity="0.3" width="143.693" x="181.966" y="131.748"/><polygon opacity="0.3" points="225.509,198.67 221.384,194.545 181.036,225.417 162.971,212.8 158.865,216.906 173.549,231.589      183.052,241.128 183.069,241.11 183.088,241.128 191.473,232.707 191.473,232.707    "/><polygon fill="#EA3924" points="222.127,190.262 218.001,186.137 177.654,217.009 159.588,204.392 155.484,208.498      170.167,223.181 179.67,232.72 179.688,232.702 179.706,232.72 188.091,224.298 188.091,224.298    "/><polygon opacity="0.3" points="228.891,295.827 224.765,291.702 184.418,322.575 166.353,309.959 162.248,314.063      176.931,328.746 186.434,338.285 186.452,338.267 186.469,338.285 194.855,329.863 194.855,329.863    "/><polygon fill="#EA3924" points="225.509,287.419 221.384,283.294 181.036,314.167 162.971,301.55 158.865,305.655      173.549,320.338 183.052,329.877 183.069,329.859 183.088,329.877 191.473,321.457 191.473,321.457    "/><path d="M388.19,271.941v58.355c-0.145,0.039-0.3,0.078-0.444,0.117c-3.546,0.888-7.083,1.777-10.629,2.666     c-30.188,7.596-60.395,15.171-90.582,22.756l-1.74-0.549l-35.627-11.316v0.01l-9.451-2.986c-1.062-0.279-1.778-1.082-2.009-2.165     c-0.01-0.028-0.01-0.067-0.019-0.096c-0.155-0.918,0.096-1.961,0.879-2.745c0.009-0.009,0.009-0.02,0.019-0.028l0.048-0.049     l1.131-1.111l0.899-0.879l3.276-3.228l1.99-1.952v0.01l24.245-23.819l2.232-2.193l0.812-0.802l0.078-0.068l0.105-0.106     l1.353-1.323c0.938-0.232,1.875-0.474,2.812-0.706c4.823-1.217,9.654-2.425,14.477-3.633c11.575-2.909,23.144-5.818,34.71-8.716     c16.795-4.224,33.579-8.437,50.364-12.659c3.546-0.889,7.083-1.778,10.629-2.667C387.89,272.02,388.045,271.981,388.19,271.941z" opacity="0.3"/><g><path d="M259.702,302.443l-21.974,36.329c-0.72-0.747-1.019-1.816-0.794-2.843      c0.004-0.027,0.011-0.048,0.015-0.07l2.403-9.928l9.032-37.443l0.443-1.842l5.787-3.897l12.019,12.293L259.702,302.443z" fill="#FFE796"/><path d="M288.14,327.424l-1.772,0.455l-36.219,9.253l-10.058,2.573c-0.823,0.066-1.634-0.224-2.246-0.822      c-0.012-0.012-0.026-0.017-0.037-0.033c-0.029-0.025-0.054-0.051-0.08-0.077l35.083-22.733l7.074-7.34l12.644,13.117      L288.14,327.424z" fill="#F1E2A6"/><path d="M288.14,327.424l-1.772,0.455l-36.219,9.253l-10.058,2.573c-0.823,0.066-1.634-0.224-2.246-0.822      c-0.012-0.012-0.026-0.017-0.037-0.033c-0.029-0.025-0.054-0.051-0.08-0.077l35.083-22.733l7.074-7.34l12.644,13.117      L288.14,327.424z" fill="#F29C21"/><g><polygon fill="#EFC849" points="279.885,308.699 272.811,316.039 237.728,338.772 259.702,302.443 266.632,295.042        273.38,301.951      "/><polygon fill="#FFFFFF" points="282.692,305.788 279.885,308.699 273.38,301.951 266.632,295.042 270.298,291.129      "/><path d="M292.534,321.818l-4.393,5.605l-1.771,0.455c1.137-7.695-6.024-14.38-13.558-11.84       c2.616-8.37-4.952-16.284-13.015-13.69l-0.093,0.095c0.011-0.027,0.012-0.05,0.022-0.077c-0.026,0.011-0.048,0.013-0.075,0.025       l0.093-0.099c2.302-7.693-4.051-14.959-11.362-13.805l0.443-1.842l5.298-4.368L292.534,321.818z" fill="#F1C40F"/><g><path d="M261.831,300.135c8.112-2.734,15.792,5.23,13.154,13.643c33.296-34.532,66.592-69.07,99.887-103.604        c-4.386-4.547-8.769-9.097-13.156-13.646C328.421,231.063,295.126,265.598,261.831,300.135z" fill="#153142"/><path d="M274.985,313.777c8.113-2.732,15.793,5.23,13.156,13.646c33.296-34.535,66.591-69.068,99.885-103.606        c-4.385-4.547-8.77-9.096-13.154-13.645C341.577,244.708,308.281,279.245,274.985,313.777z" fill="#0E2037"/><path d="M248.827,286.646c8.052-2.714,15.672,5.191,13.055,13.542c33.296-34.536,66.591-69.073,99.887-103.609        c-4.352-4.511-8.702-9.026-13.055-13.539C315.42,217.577,282.125,252.112,248.827,286.646z" fill="#364D5C"/></g><path d="M250.151,337.136l-9.592,2.47c-1.047,0.322-2.079,0.021-2.85-0.778       c-0.693-0.718-1.062-1.805-0.759-2.968l2.393-9.938L250.151,337.136z" fill="#0E2037"/><path d="M387.951,223.739l2.448-2.541c2.883-2.989,2.883-7.833,0-10.823l-28.877-29.955       c-2.881-2.987-7.554-2.987-10.434,0l-2.45,2.542L387.951,223.739z" fill="#EA3924"/></g></g><g><path d="M323.002,86.815h-27.096c-4.356,0-8.03-3.18-8.677-7.49c-2.262-15.103-15.307-26.708-31.067-26.708      c-15.761,0-28.796,11.615-31.058,26.708c-0.647,4.301-4.338,7.49-8.687,7.49h-27.086c-6.871,0-12.446,5.575-12.446,12.446      v36.005c0,1.855,0.898,3.498,2.29,4.522c0.927,0.687,2.087,1.093,3.324,1.093h147.334c3.102,0,5.614-2.513,5.614-5.615V99.261      C335.449,92.391,329.874,86.815,323.002,86.815z M249.515,68.648c6.648-4.196,16.015-1.014,18.882,6.609      c4.068,10.669-6.568,21.039-17.153,16.794c-2.395-0.992-3.875-2.435-3.875-2.435c-0.154-0.146-0.309-0.291-0.454-0.435v-0.01      C240.45,82.85,242.629,72.439,249.515,68.648z" fill="#D1D3D4"/><path d="M176.888,118.994v16.272c0,3.098,2.511,5.61,5.609,5.61h147.341c3.097,0,5.608-2.512,5.608-5.61v-16.272      H176.888z" fill="#939598"/><path d="M275.711,78.92c-0.508-10.413-9.133-18.573-19.54-18.573c-0.019,0-0.027,0.01-0.038,0      c-21.205,0-27.743,30.193-6.697,37.958c0.346,0.133,0.887,0.304,0.985,0.328c0.319,0.106,0.973,0.279,1.305,0.348      c0.231,0.059,0.464,0.107,0.696,0.155c0.01,0,0.019,0,0.039,0.01c5.333,0.931,9.7-0.112,13.837-2.473      c0.02-0.01,0.039-0.02,0.058-0.039c5.892-3.615,9.06-9.676,9.354-15.703c0,0,0.029-0.571,0.029-1.005      C275.741,79.492,275.711,78.92,275.711,78.92z M251.244,92.052c-2.395-0.992-3.875-2.435-3.875-2.435      c-0.154-0.146-0.309-0.291-0.454-0.435v-0.01c-6.466-6.323-4.286-16.733,2.599-20.524c6.648-4.196,16.015-1.014,18.882,6.609      C272.465,85.927,261.829,96.296,251.244,92.052z" fill="#29FFF5"/><path d="M246.912,70.666c5.111-5.111,13.399-5.111,18.51,0.001l4.584-4.584      c-7.644-7.644-20.035-7.644-27.678-0.001c-7.643,7.644-7.643,20.034,0,27.678l4.584-4.584      C241.801,84.064,241.801,75.777,246.912,70.666z" fill="#ABACAD"/><path d="M270.006,66.083l-4.584,4.584c5.11,5.11,5.111,13.397,0.001,18.509c-5.112,5.112-13.4,5.111-18.511,0      l-4.584,4.584c7.642,7.642,20.034,7.642,27.676-0.001C277.648,86.116,277.648,73.725,270.006,66.083z" fill="#F1F2F2"/><rect fill="#BCBEC0" height="26.282" width="158.558" x="176.888" y="99.262"/></g></g></g></svg>