<?xml version="1.0" ?><!DOCTYPE svg  PUBLIC '-//W3C//DTD SVG 1.1//EN'  'http://www.w3.org/Graphics/SVG/1.1/DTD/svg11.dtd'><svg enable-background="new 0 0 64 64" height="64px" version="1.1" viewBox="0 0 64 64" width="64px" xml:space="preserve" xmlns="http://www.w3.org/2000/svg" xmlns:xlink="http://www.w3.org/1999/xlink"><g id="background"><circle cx="32" cy="32" fill="#E2574C" r="32"/></g><g id="icons"><g id="online_training"><g><path d="M47.833,50c0,0.458-0.375,0.833-0.833,0.833H16.167c-0.458,0-0.834-0.375-0.834-0.833V26.667     c0-0.458,0.376-0.833,0.834-0.833H47c0.458,0,0.833,0.375,0.833,0.833V50z" fill="#EBEDEE"/><polygon fill="#EBEDEE" points="52,53.333 12,53.333 15.333,49.167 47.833,49.167    "/><rect fill="#91D8F0" height="18.333" width="29.167" x="17" y="28.333"/><g><path d="M51.001,55H12.999C12.447,55,12,54.596,12,54.099v-0.765h40v0.765C52,54.596,51.553,55,51.001,55z" fill="#D3D5D6"/></g><g><rect fill="#D3D5D6" height="0.833" width="4.167" x="29.5" y="47.5"/></g><g><polygon fill="#82D2ED" points="17,28.333 17,29.167 45.333,29.167 45.333,46.667 46.167,46.667 46.167,28.333     "/></g><polygon fill="#D3D5D6" points="47,50.833 16.167,50.833 17,49.167 46.167,49.167    "/><polygon fill="#BDBFC0" points="37,52.5 26.167,52.5 27,51.667 36.167,51.667    "/></g><g><g><polygon fill="#4E6B78" opacity="0.2" points="36.167,46.667 36.167,25.833 41.167,25.833     "/></g><g><path d="M36.925,11.224l-3.104-0.466c0-0.164-1.573,0.187-2.904,0.259c-1.395,0.077-3.46-1.068-4.799-0.643      c0,0,0,2.047,0,5.25s2.5,4.167,2.5,4.167v3.542h5.833v-4.792L36.378,16C36.378,16,37.594,10.993,36.925,11.224z" fill="#F1C996"/></g><g><rect fill="#2B414D" height="3.333" width="34.167" x="15.333" y="10.833"/><rect fill="#324D5B" height="11.667" width="3.333" x="17" y="6.667"/><rect fill="#2B414D" height="11.667" width="0.833" x="19.5" y="6.667"/><rect fill="#4E6B78" height="15" width="3.334" x="20.333" y="5"/><rect fill="#324D5B" height="11.667" width="3.333" x="44.5" y="6.667"/><rect fill="#2B414D" height="11.667" width="0.833" x="44.5" y="6.667"/><rect fill="#4E6B78" height="15" width="3.333" x="41.167" y="5"/></g><g><path d="M32.368,23.333h-3.75v-3.542c1.719,0.92,3.75,0,3.75,0V23.333z" fill="#F6D9B4"/></g><g><path d="M36.534,13.542c0,0.458-0.375,0.833-0.833,0.833h-0.833c-0.458,0-0.834-0.375-0.834-0.833V8.75      c0-0.458,0.376-0.833,0.834-0.833h0.833c0.458,0,0.833,0.375,0.833,0.833V13.542z" fill="#F6D9B4"/><path d="M33.826,13.958c0,0.458-0.375,0.833-0.833,0.833h-0.834c-0.458,0-0.833-0.375-0.833-0.833V8.333      c0-0.458,0.375-0.833,0.833-0.833h0.834c0.458,0,0.833,0.375,0.833,0.833V13.958z" fill="#F6D9B4"/><path d="M31.118,13.75c0,0.458-0.376,0.833-0.834,0.833h-0.833c-0.458,0-0.833-0.375-0.833-0.833v-5      c0-0.458,0.375-0.833,0.833-0.833h0.833c0.458,0,0.834,0.375,0.834,0.833V13.75z" fill="#F6D9B4"/><path d="M28.409,13.542c0,0.458-0.375,0.833-0.833,0.833h-0.833c-0.458,0-0.834-0.375-0.834-0.833V9.583      c0-0.458,0.376-0.833,0.834-0.833h0.833c0.458,0,0.833,0.375,0.833,0.833V13.542z" fill="#F6D9B4"/></g><g><path d="M35.701,7.917v6.458c0.458,0,0.833-0.375,0.833-0.833V8.75C36.534,8.292,36.159,7.917,35.701,7.917z" fill="#F1C996"/><path d="M32.993,7.5v7.292c0.458,0,0.833-0.375,0.833-0.833V8.333C33.826,7.875,33.451,7.5,32.993,7.5z" fill="#F1C996"/><path d="M30.284,7.917v6.667c0.458,0,0.834-0.375,0.834-0.833v-5C31.118,8.292,30.742,7.917,30.284,7.917z" fill="#F1C996"/><path d="M27.576,8.75v5.625c0.458,0,0.833-0.375,0.833-0.833V9.583C28.409,9.125,28.034,8.75,27.576,8.75z" fill="#F1C996"/></g><g><path d="M36.326,13.333c0,0.575-0.467,0.625-1.042,0.625s-1.041-0.05-1.041-0.625      c0-0.576,0.466-1.042,1.041-1.042S36.326,12.758,36.326,13.333z" fill="#F9E7CE"/><path d="M33.618,13.542c0,0.576-0.467,0.625-1.042,0.625s-1.042-0.049-1.042-0.625      c0-0.575,0.467-1.042,1.042-1.042S33.618,12.966,33.618,13.542z" fill="#F9E7CE"/><path d="M30.909,13.333c0,0.575-0.466,0.625-1.041,0.625s-1.042-0.05-1.042-0.625      c0-0.576,0.467-1.042,1.042-1.042S30.909,12.758,30.909,13.333z" fill="#F9E7CE"/><path d="M28.201,13.125c0,0.575-0.467,0.625-1.042,0.625s-1.041-0.05-1.041-0.625s0.466-1.042,1.041-1.042      S28.201,12.55,28.201,13.125z" fill="#F9E7CE"/></g><g><g><path d="M38.432,10.768c-0.689-0.418-3.284-0.371-4.06-0.862c-0.994-0.048-1.573,1.599-0.639,2.558       c0.971,1,2.557,0.639,2.557,0.639c-0.309,0.469-0.479,0.917-0.565,1.509c-0.025,0-0.05-0.007-0.074-0.007       c-1.766,0-3.309,0.578-3.613,2.78c-0.264,1.91,1.112,2.407,2.414,2.407c0,0,3.653-1.425,3.828-2.004       C38.618,16.661,38.873,10.96,38.432,10.768z" fill="#F4D0A1"/></g><g><path d="M33.733,12.463c0.971,1,2.557,0.639,2.557,0.639c-0.309,0.469-0.479,0.917-0.565,1.509       c-0.025,0-0.05-0.007-0.074-0.007c-1.766,0-3.309,0.578-3.613,2.78c-0.154,1.118,0.254,1.75,0.88,2.083       c-0.15-0.416-0.263-0.795-0.24-1.444c0.061-1.765,1.848-2.78,3.613-2.78c-0.054-0.932,0.64-2.78,0.64-2.78       S35.547,13.165,33.733,12.463z" fill="#F6D9B4"/></g><g><path d="M33.733,12.463c0.971,1,2.557,0.639,2.557,0.639c0.141-0.325,0.64-0.639,0.64-0.639       S35.547,13.165,33.733,12.463z" fill="#EDBC7C"/></g><g><path d="M34.372,9.905c-0.027-0.001-0.054,0.003-0.08,0.004c-0.029,0.095-0.049,0.194-0.049,0.299       c0,0.575,0.466,1.042,1.041,1.042c0.527,0,0.959-0.393,1.027-0.901C35.521,10.251,34.741,10.139,34.372,9.905z" fill="#F9E7CE"/></g></g><g><g><rect fill="#EFC75E" height="22.5" width="9.167" x="27" y="24.167"/></g><g><rect fill="#D7B354" height="22.5" width="3.334" x="32.833" y="24.167"/></g><rect fill="#EBEDEE" height="1.667" width="8.334" x="27.833" y="22.5"/><rect fill="#D3D5D6" height="1.667" width="3.334" x="32.833" y="22.5"/><rect fill="#D7B354" height="0.833" width="9.167" x="27" y="45.833"/></g></g></g></g></svg>